M48
; DRILL file {KiCad (5.1.6-0)} date Friday, April 14, 2023 at 08:26:12 PM
; FORMAT={-:-/ absolute / inch / decimal}
; #@! TF.CreationDate,2023-04-14T20:26:12-07:00
; #@! TF.GenerationSoftware,Kicad,Pcbnew,(5.1.6-0)
; #@! TF.FileFunction,Plated,1,2,PTH
FMAT,2
INCH
T1C0.0118
T2C0.0197
T3C0.0394
T4C0.0472
T5C0.0630
T6C0.1378
%
G90
G05
T1
X3.6083Y-4.4682
X3.6083Y-4.6257
X3.6083Y-4.7832
X3.6083Y-4.9406
X3.6083Y-5.0981
X3.6083Y-5.2556
X3.6083Y-5.4131
X3.6083Y-5.5706
X3.6083Y-5.7281
X3.6083Y-5.8855
X3.6083Y-6.043
X3.6871Y-4.5469
X3.6871Y-4.7044
X3.6871Y-5.0194
X3.6871Y-5.1769
X3.6871Y-5.3344
X3.6871Y-5.4918
X3.6871Y-5.6493
X3.6871Y-5.8068
X3.6871Y-5.9643
X3.6871Y-6.1218
X3.7264Y-4.9013
X3.7303Y-4.813
X3.7598Y-6.2303
X3.7658Y-4.4682
X3.7658Y-4.6257
X3.7658Y-5.4131
X3.7658Y-5.5706
X3.7658Y-5.7281
X3.7658Y-5.8855
X3.7658Y-6.043
X3.8052Y-4.7438
X3.8445Y-4.5469
X3.8445Y-5.1769
X3.8445Y-5.3344
X3.8445Y-5.6493
X3.8445Y-5.8068
X3.8445Y-5.9643
X3.8445Y-6.1218
X3.8583Y-5.0492
X3.8839Y-4.1926
X3.8839Y-4.6651
X3.9183Y-4.753
X3.9233Y-5.2556
X3.9233Y-5.4131
X3.9233Y-5.8855
X3.9567Y-4.7638
X3.9567Y-4.872
X3.9626Y-4.4288
X3.9665Y-6.2303
X3.9921Y-4.8937
X4.002Y-4.5469
X4.002Y-5.3344
X4.002Y-5.9643
X4.002Y-6.1218
X4.0414Y-5.8068
X4.0679Y-4.6063
X4.0808Y-4.4682
X4.0808Y-5.2556
X4.0808Y-5.6493
X4.0808Y-6.043
X4.1201Y-4.7044
X4.1201Y-4.8619
X4.1201Y-5.5312
X4.1339Y-5.128
X4.1595Y-4.3895
X4.1595Y-5.7281
X4.1595Y-6.1218
X4.1989Y-5.0194
X4.1989Y-5.9643
X4.2028Y-4.9606
X4.2028Y-6.2303
X4.2382Y-4.9013
X4.2382Y-5.8068
X4.2776Y-4.4288
X4.2776Y-4.6651
X4.2776Y-6.043
X4.317Y-4.5469
X4.317Y-5.1375
X4.317Y-5.3344
X4.3563Y-4.3107
X4.3563Y-5.8855
X4.3563Y-6.1218
X4.3957Y-4.4682
X4.3957Y-4.6257
X4.3957Y-5.2162
X4.3957Y-5.4131
X4.4094Y-5.0492
X4.4351Y-4.7438
X4.4351Y-5.6887
X4.4745Y-4.3501
X4.4745Y-4.5469
X4.4745Y-5.3344
X4.4882Y-6.2303
X4.5138Y-4.6651
X4.5138Y-5.4525
X4.5138Y-5.6099
X4.5138Y-5.9249
X4.5374Y-4.813
X4.5532Y-4.4288
X4.5532Y-4.9013
X4.5532Y-5.0588
X4.5532Y-5.2162
X4.5532Y-5.7281
X4.5926Y-4.5863
X4.5926Y-4.7438
X4.5926Y-5.3737
X4.5926Y-5.5312
X4.5926Y-5.8462
X4.5926Y-6.0036
X4.6319Y-4.98
X4.6319Y-5.1375
X4.6319Y-5.6493
X4.6319Y-6.1218
X4.6713Y-4.3895
X4.6713Y-4.6651
X4.6713Y-4.8225
X4.6713Y-5.2556
X4.6713Y-5.4525
X4.6713Y-5.7674
X4.6713Y-5.9249
X4.7107Y-4.5076
X4.7107Y-5.0588
X4.7107Y-5.5706
X4.7107Y-6.043
X4.75Y-4.7438
X4.75Y-4.9013
X4.75Y-5.1769
X4.75Y-5.3344
X4.75Y-5.6887
X4.75Y-5.8462
X4.7894Y-4.4288
X4.7894Y-4.5863
X4.7894Y-5.4918
X4.7894Y-5.9643
X4.7894Y-6.1218
X4.7894Y-6.2303
X4.8288Y-4.8225
X4.8288Y-4.98
X4.8288Y-5.2556
X4.8288Y-5.6099
X4.8288Y-5.7674
X4.8682Y-4.5076
X4.8682Y-4.6651
X4.8682Y-5.0981
X4.8682Y-5.3737
X4.8682Y-5.8855
X4.8682Y-6.043
X4.9075Y-4.3895
X4.9075Y-4.9013
X4.9075Y-5.5312
X4.9075Y-5.6887
X4.9114Y-4.1929
X4.9469Y-4.5863
X4.9469Y-4.7438
X4.9469Y-5.0194
X4.9469Y-5.1769
X4.9469Y-5.8068
X4.9469Y-5.9643
X4.9469Y-6.1218
X4.9863Y-4.1926
X4.9863Y-4.4682
X4.9863Y-5.295
X4.9863Y-5.4525
X4.9863Y-5.6099
X4.9902Y-4.813
X5.0256Y-4.3107
X5.0256Y-4.6651
X5.0256Y-5.7281
X5.0256Y-5.8855
X5.0256Y-6.043
X5.065Y-4.5469
X5.065Y-5.5312
X5.0984Y-6.2303
X5.1044Y-4.3895
X5.1044Y-4.7438
X5.1044Y-5.1769
X5.1044Y-5.3344
X5.1044Y-5.6493
X5.1044Y-5.8068
X5.1044Y-5.9643
X5.1044Y-6.1218
X5.1181Y-5.0492
X5.1437Y-4.1926
X5.1437Y-4.6257
X5.1831Y-4.3107
X5.1831Y-4.4682
X5.1831Y-5.2556
X5.1831Y-5.4131
X5.1831Y-5.8855
X5.187Y-4.7441
X5.2225Y-5.1375
X5.2264Y-4.7441
X5.2264Y-4.8622
X5.2618Y-4.8888
X5.2619Y-4.5469
X5.2619Y-5.3344
X5.2619Y-5.9643
X5.2619Y-6.1218
X5.3012Y-4.1926
X5.3012Y-5.8462
X5.3406Y-4.4682
X5.3406Y-5.2556
X5.3406Y-6.043
X5.3406Y-6.2303
X5.3445Y-4.6063
X5.38Y-4.7044
X5.38Y-4.8619
X5.38Y-5.5312
X5.4134Y-5.128
X5.4193Y-4.3895
X5.4193Y-5.7674
X5.4193Y-6.1218
X5.4587Y-4.1926
X5.4587Y-4.5076
X5.4587Y-6.0036
X5.4724Y-4.9606
X5.4981Y-4.9013
X5.4981Y-5.8462
X5.5374Y-6.0824
X5.5768Y-4.4288
X5.5768Y-4.5863
X5.5768Y-5.2556
X5.5906Y-6.2303
X5.6162Y-4.1926
X5.6162Y-5.1375
X5.6162Y-5.4525
X5.6162Y-5.8068
X5.6556Y-4.3107
X5.6556Y-5.9249
X5.6556Y-6.1218
X5.6949Y-4.4682
X5.6949Y-4.6257
X5.6949Y-5.2162
X5.7087Y-5.0492
X5.7343Y-4.7438
X5.7343Y-5.3737
X5.7737Y-4.5469
X5.7737Y-5.6099
X5.813Y-4.6651
X5.813Y-5.295
X5.813Y-5.4525
X5.813Y-5.7281
X5.813Y-5.9249
X5.813Y-6.0824
X5.8366Y-4.813
X5.8366Y-6.2303
X5.8524Y-4.4682
X5.8524Y-4.9013
X5.8524Y-5.0588
X5.8918Y-4.5863
X5.8918Y-4.7438
X5.8918Y-5.1769
X5.8918Y-5.3737
X5.8918Y-5.5312
X5.8918Y-5.8068
X5.8918Y-6.0036
X5.9311Y-4.98
X5.9311Y-5.6493
X5.9311Y-6.1218
T2
X3.5876Y-4.2815
X3.6179Y-4.2084
X3.6179Y-4.3546
X3.6909Y-4.1781
X3.6909Y-4.3848
X3.764Y-4.2084
X3.764Y-4.3546
X3.7943Y-4.2815
X5.753Y-4.2815
X5.7832Y-4.2084
X5.7832Y-4.3546
X5.8563Y-4.1781
X5.8563Y-4.3848
X5.9294Y-4.2084
X5.9294Y-4.3546
X5.9596Y-4.2815
T3
X3.9961Y-4.3012
X4.1339Y-4.3012
X4.2717Y-4.3012
X4.6358Y-4.3012
X4.7736Y-4.3012
X4.9114Y-4.3012
X5.2756Y-4.3012
X5.4134Y-4.3012
X5.5512Y-4.3012
T4
X3.8594Y-5.5557
X4.0219Y-5.4057
X4.1344Y-5.3807
X4.2469Y-5.4057
X4.4094Y-5.5807
X5.139Y-5.5557
X5.3015Y-5.4057
X5.414Y-5.3807
X5.5265Y-5.4057
X5.689Y-5.5807
T5
X3.9594Y-5.6807
X4.3094Y-5.6807
X4.4594Y-6.0307
X5.239Y-5.6807
X5.589Y-5.6807
X5.739Y-6.0307
T6
X3.6909Y-4.2815
X5.8563Y-4.2815
T0
M30
