%TF.GenerationSoftware,KiCad,Pcbnew,(5.1.6-0)*%
%TF.CreationDate,2023-05-06T15:55:21-07:00*%
%TF.ProjectId,input_buffer_bal_XLR_combo_SMD_1206,696e7075-745f-4627-9566-6665725f6261,rev?*%
%TF.SameCoordinates,Original*%
%TF.FileFunction,Soldermask,Bot*%
%TF.FilePolarity,Negative*%
%FSLAX46Y46*%
G04 Gerber Fmt 4.6, Leading zero omitted, Abs format (unit mm)*
G04 Created by KiCad (PCBNEW (5.1.6-0)) date 2023-05-06 15:55:21*
%MOMM*%
%LPD*%
G01*
G04 APERTURE LIST*
%ADD10C,1.700000*%
%ADD11C,3.300000*%
%ADD12C,2.500000*%
%ADD13C,0.900000*%
%ADD14C,7.100000*%
%ADD15C,2.100000*%
G04 APERTURE END LIST*
D10*
%TO.C,J1*%
X99300000Y-153815000D03*
X110730000Y-153815000D03*
D11*
X113270000Y-153180000D03*
D10*
X105015000Y-150640000D03*
D11*
X109460000Y-144290000D03*
X100570000Y-144290000D03*
D12*
X102157500Y-137305000D03*
X107872500Y-137305000D03*
X105015000Y-136670000D03*
X98030000Y-141115000D03*
X112000000Y-141750000D03*
%TD*%
D10*
%TO.C,J2*%
X131800000Y-153815000D03*
X143230000Y-153815000D03*
D11*
X145770000Y-153180000D03*
D10*
X137515000Y-150640000D03*
D11*
X141960000Y-144290000D03*
X133070000Y-144290000D03*
D12*
X134657500Y-137305000D03*
X140372500Y-137305000D03*
X137515000Y-136670000D03*
X130530000Y-141115000D03*
X144500000Y-141750000D03*
%TD*%
D13*
%TO.C,H2*%
X150606155Y-106893845D03*
X148750000Y-106125000D03*
X146893845Y-106893845D03*
X146125000Y-108750000D03*
X146893845Y-110606155D03*
X148750000Y-111375000D03*
X150606155Y-110606155D03*
X151375000Y-108750000D03*
D14*
X148750000Y-108750000D03*
%TD*%
D13*
%TO.C,H1*%
X95606155Y-106893845D03*
X93750000Y-106125000D03*
X91893845Y-106893845D03*
X91125000Y-108750000D03*
X91893845Y-110606155D03*
X93750000Y-111375000D03*
X95606155Y-110606155D03*
X96375000Y-108750000D03*
D14*
X93750000Y-108750000D03*
%TD*%
D15*
%TO.C,J5*%
X134000000Y-109250000D03*
X137500000Y-109250000D03*
X141000000Y-109250000D03*
%TD*%
%TO.C,J4*%
X101500000Y-109250000D03*
X105000000Y-109250000D03*
X108500000Y-109250000D03*
%TD*%
%TO.C,J3*%
X117750000Y-109250000D03*
X121250000Y-109250000D03*
X124750000Y-109250000D03*
%TD*%
M02*
