%TF.GenerationSoftware,KiCad,Pcbnew,(5.1.6-0)*%
%TF.CreationDate,2023-05-04T14:14:28-07:00*%
%TF.ProjectId,input_buffer_bal_XLR_combo_SMD_1206,696e7075-745f-4627-9566-6665725f6261,rev?*%
%TF.SameCoordinates,Original*%
%TF.FileFunction,Legend,Top*%
%TF.FilePolarity,Positive*%
%FSLAX46Y46*%
G04 Gerber Fmt 4.6, Leading zero omitted, Abs format (unit mm)*
G04 Created by KiCad (PCBNEW (5.1.6-0)) date 2023-05-04 14:14:28*
%MOMM*%
%LPD*%
G01*
G04 APERTURE LIST*
%ADD10C,0.150000*%
%ADD11C,0.120000*%
G04 APERTURE END LIST*
D10*
X149202380Y-148166666D02*
X148202380Y-148166666D01*
X149202380Y-147595238D01*
X148202380Y-147595238D01*
X149154761Y-146738095D02*
X149202380Y-146833333D01*
X149202380Y-147023809D01*
X149154761Y-147119047D01*
X149059523Y-147166666D01*
X148678571Y-147166666D01*
X148583333Y-147119047D01*
X148535714Y-147023809D01*
X148535714Y-146833333D01*
X148583333Y-146738095D01*
X148678571Y-146690476D01*
X148773809Y-146690476D01*
X148869047Y-147166666D01*
X148535714Y-145833333D02*
X149202380Y-145833333D01*
X148535714Y-146261904D02*
X149059523Y-146261904D01*
X149154761Y-146214285D01*
X149202380Y-146119047D01*
X149202380Y-145976190D01*
X149154761Y-145880952D01*
X149107142Y-145833333D01*
X148535714Y-145500000D02*
X148535714Y-145119047D01*
X148202380Y-145357142D02*
X149059523Y-145357142D01*
X149154761Y-145309523D01*
X149202380Y-145214285D01*
X149202380Y-145119047D01*
X149202380Y-144785714D02*
X148535714Y-144785714D01*
X148726190Y-144785714D02*
X148630952Y-144738095D01*
X148583333Y-144690476D01*
X148535714Y-144595238D01*
X148535714Y-144500000D01*
X149202380Y-144166666D02*
X148535714Y-144166666D01*
X148202380Y-144166666D02*
X148250000Y-144214285D01*
X148297619Y-144166666D01*
X148250000Y-144119047D01*
X148202380Y-144166666D01*
X148297619Y-144166666D01*
X149202380Y-143690476D02*
X148202380Y-143690476D01*
X148821428Y-143595238D02*
X149202380Y-143309523D01*
X148535714Y-143309523D02*
X148916666Y-143690476D01*
X149202380Y-142119047D02*
X148202380Y-142119047D01*
X149202380Y-141547619D01*
X148202380Y-141547619D01*
X149107142Y-140500000D02*
X149154761Y-140547619D01*
X149202380Y-140690476D01*
X149202380Y-140785714D01*
X149154761Y-140928571D01*
X149059523Y-141023809D01*
X148964285Y-141071428D01*
X148773809Y-141119047D01*
X148630952Y-141119047D01*
X148440476Y-141071428D01*
X148345238Y-141023809D01*
X148250000Y-140928571D01*
X148202380Y-140785714D01*
X148202380Y-140690476D01*
X148250000Y-140547619D01*
X148297619Y-140500000D01*
X148202380Y-139785714D02*
X148916666Y-139785714D01*
X149059523Y-139833333D01*
X149154761Y-139928571D01*
X149202380Y-140071428D01*
X149202380Y-140166666D01*
X148202380Y-138880952D02*
X148202380Y-139071428D01*
X148250000Y-139166666D01*
X148297619Y-139214285D01*
X148440476Y-139309523D01*
X148630952Y-139357142D01*
X149011904Y-139357142D01*
X149107142Y-139309523D01*
X149154761Y-139261904D01*
X149202380Y-139166666D01*
X149202380Y-138976190D01*
X149154761Y-138880952D01*
X149107142Y-138833333D01*
X149011904Y-138785714D01*
X148773809Y-138785714D01*
X148678571Y-138833333D01*
X148630952Y-138880952D01*
X148583333Y-138976190D01*
X148583333Y-139166666D01*
X148630952Y-139261904D01*
X148678571Y-139309523D01*
X148773809Y-139357142D01*
X148678571Y-138023809D02*
X148678571Y-138357142D01*
X149202380Y-138357142D02*
X148202380Y-138357142D01*
X148202380Y-137880952D01*
X148916666Y-137547619D02*
X148916666Y-137071428D01*
X149202380Y-137642857D02*
X148202380Y-137309523D01*
X149202380Y-136976190D01*
X148821428Y-136642857D02*
X148821428Y-135880952D01*
X149202380Y-135404761D02*
X148202380Y-135404761D01*
X148678571Y-135404761D02*
X148678571Y-134833333D01*
X149202380Y-134833333D02*
X148202380Y-134833333D01*
X93202380Y-149416666D02*
X92202380Y-149416666D01*
X93202380Y-148845238D01*
X92202380Y-148845238D01*
X93154761Y-147988095D02*
X93202380Y-148083333D01*
X93202380Y-148273809D01*
X93154761Y-148369047D01*
X93059523Y-148416666D01*
X92678571Y-148416666D01*
X92583333Y-148369047D01*
X92535714Y-148273809D01*
X92535714Y-148083333D01*
X92583333Y-147988095D01*
X92678571Y-147940476D01*
X92773809Y-147940476D01*
X92869047Y-148416666D01*
X92535714Y-147083333D02*
X93202380Y-147083333D01*
X92535714Y-147511904D02*
X93059523Y-147511904D01*
X93154761Y-147464285D01*
X93202380Y-147369047D01*
X93202380Y-147226190D01*
X93154761Y-147130952D01*
X93107142Y-147083333D01*
X92535714Y-146750000D02*
X92535714Y-146369047D01*
X92202380Y-146607142D02*
X93059523Y-146607142D01*
X93154761Y-146559523D01*
X93202380Y-146464285D01*
X93202380Y-146369047D01*
X93202380Y-146035714D02*
X92535714Y-146035714D01*
X92726190Y-146035714D02*
X92630952Y-145988095D01*
X92583333Y-145940476D01*
X92535714Y-145845238D01*
X92535714Y-145750000D01*
X93202380Y-145416666D02*
X92535714Y-145416666D01*
X92202380Y-145416666D02*
X92250000Y-145464285D01*
X92297619Y-145416666D01*
X92250000Y-145369047D01*
X92202380Y-145416666D01*
X92297619Y-145416666D01*
X93202380Y-144940476D02*
X92202380Y-144940476D01*
X92821428Y-144845238D02*
X93202380Y-144559523D01*
X92535714Y-144559523D02*
X92916666Y-144940476D01*
X93202380Y-143369047D02*
X92202380Y-143369047D01*
X93202380Y-142797619D01*
X92202380Y-142797619D01*
X93107142Y-141750000D02*
X93154761Y-141797619D01*
X93202380Y-141940476D01*
X93202380Y-142035714D01*
X93154761Y-142178571D01*
X93059523Y-142273809D01*
X92964285Y-142321428D01*
X92773809Y-142369047D01*
X92630952Y-142369047D01*
X92440476Y-142321428D01*
X92345238Y-142273809D01*
X92250000Y-142178571D01*
X92202380Y-142035714D01*
X92202380Y-141940476D01*
X92250000Y-141797619D01*
X92297619Y-141750000D01*
X92202380Y-141035714D02*
X92916666Y-141035714D01*
X93059523Y-141083333D01*
X93154761Y-141178571D01*
X93202380Y-141321428D01*
X93202380Y-141416666D01*
X92202380Y-140130952D02*
X92202380Y-140321428D01*
X92250000Y-140416666D01*
X92297619Y-140464285D01*
X92440476Y-140559523D01*
X92630952Y-140607142D01*
X93011904Y-140607142D01*
X93107142Y-140559523D01*
X93154761Y-140511904D01*
X93202380Y-140416666D01*
X93202380Y-140226190D01*
X93154761Y-140130952D01*
X93107142Y-140083333D01*
X93011904Y-140035714D01*
X92773809Y-140035714D01*
X92678571Y-140083333D01*
X92630952Y-140130952D01*
X92583333Y-140226190D01*
X92583333Y-140416666D01*
X92630952Y-140511904D01*
X92678571Y-140559523D01*
X92773809Y-140607142D01*
X92678571Y-139273809D02*
X92678571Y-139607142D01*
X93202380Y-139607142D02*
X92202380Y-139607142D01*
X92202380Y-139130952D01*
X92916666Y-138797619D02*
X92916666Y-138321428D01*
X93202380Y-138892857D02*
X92202380Y-138559523D01*
X93202380Y-138226190D01*
X92821428Y-137892857D02*
X92821428Y-137130952D01*
X93202380Y-136654761D02*
X92202380Y-136654761D01*
X92678571Y-136654761D02*
X92678571Y-136083333D01*
X93202380Y-136083333D02*
X92202380Y-136083333D01*
X121428571Y-130439270D02*
X121476190Y-130302366D01*
X121523809Y-130260699D01*
X121619047Y-130224985D01*
X121761904Y-130242842D01*
X121857142Y-130302366D01*
X121904761Y-130355937D01*
X121952380Y-130457127D01*
X121952380Y-130838080D01*
X120952380Y-130713080D01*
X120952380Y-130379747D01*
X121000000Y-130290461D01*
X121047619Y-130248794D01*
X121142857Y-130213080D01*
X121238095Y-130224985D01*
X121333333Y-130284508D01*
X121380952Y-130338080D01*
X121428571Y-130439270D01*
X121428571Y-130772604D01*
X121952380Y-129838080D02*
X121285714Y-129754747D01*
X120952380Y-129713080D02*
X121000000Y-129766651D01*
X121047619Y-129724985D01*
X121000000Y-129671413D01*
X120952380Y-129713080D01*
X121047619Y-129724985D01*
X121952380Y-129219032D02*
X121904761Y-129308318D01*
X121809523Y-129344032D01*
X120952380Y-129236889D01*
X121952380Y-128695223D02*
X121904761Y-128784508D01*
X121857142Y-128826175D01*
X121761904Y-128861889D01*
X121476190Y-128826175D01*
X121380952Y-128766651D01*
X121333333Y-128713080D01*
X121285714Y-128611889D01*
X121285714Y-128469032D01*
X121333333Y-128379747D01*
X121380952Y-128338080D01*
X121476190Y-128302366D01*
X121761904Y-128338080D01*
X121857142Y-128397604D01*
X121904761Y-128451175D01*
X121952380Y-128552366D01*
X121952380Y-128695223D01*
X121285714Y-127421413D02*
X121952380Y-127504747D01*
X121285714Y-127849985D02*
X121809523Y-127915461D01*
X121904761Y-127879747D01*
X121952380Y-127790461D01*
X121952380Y-127647604D01*
X121904761Y-127546413D01*
X121857142Y-127492842D01*
X121904761Y-127070223D02*
X121952380Y-126980937D01*
X121952380Y-126790461D01*
X121904761Y-126689270D01*
X121809523Y-126629747D01*
X121761904Y-126623794D01*
X121666666Y-126659508D01*
X121619047Y-126748794D01*
X121619047Y-126891651D01*
X121571428Y-126980937D01*
X121476190Y-127016651D01*
X121428571Y-127010699D01*
X121333333Y-126951175D01*
X121285714Y-126849985D01*
X121285714Y-126707127D01*
X121333333Y-126617842D01*
X121904761Y-125498794D02*
X121952380Y-125361889D01*
X121952380Y-125123794D01*
X121904761Y-125022604D01*
X121857142Y-124969032D01*
X121761904Y-124909508D01*
X121666666Y-124897604D01*
X121571428Y-124933318D01*
X121523809Y-124974985D01*
X121476190Y-125064270D01*
X121428571Y-125248794D01*
X121380952Y-125338080D01*
X121333333Y-125379747D01*
X121238095Y-125415461D01*
X121142857Y-125403556D01*
X121047619Y-125344032D01*
X121000000Y-125290461D01*
X120952380Y-125189270D01*
X120952380Y-124951175D01*
X121000000Y-124814270D01*
X121952380Y-124361889D02*
X121904761Y-124451175D01*
X121857142Y-124492842D01*
X121761904Y-124528556D01*
X121476190Y-124492842D01*
X121380952Y-124433318D01*
X121333333Y-124379747D01*
X121285714Y-124278556D01*
X121285714Y-124135699D01*
X121333333Y-124046413D01*
X121380952Y-124004747D01*
X121476190Y-123969032D01*
X121761904Y-124004747D01*
X121857142Y-124064270D01*
X121904761Y-124117842D01*
X121952380Y-124219032D01*
X121952380Y-124361889D01*
X121285714Y-123088080D02*
X121952380Y-123171413D01*
X121285714Y-123516651D02*
X121809523Y-123582127D01*
X121904761Y-123546413D01*
X121952380Y-123457127D01*
X121952380Y-123314270D01*
X121904761Y-123213080D01*
X121857142Y-123159508D01*
X121285714Y-122611889D02*
X121952380Y-122695223D01*
X121380952Y-122623794D02*
X121333333Y-122570223D01*
X121285714Y-122469032D01*
X121285714Y-122326175D01*
X121333333Y-122236889D01*
X121428571Y-122201175D01*
X121952380Y-122266651D01*
X121952380Y-121361889D02*
X120952380Y-121236889D01*
X121904761Y-121355937D02*
X121952380Y-121457127D01*
X121952380Y-121647604D01*
X121904761Y-121736889D01*
X121857142Y-121778556D01*
X121761904Y-121814270D01*
X121476190Y-121778556D01*
X121380952Y-121719032D01*
X121333333Y-121665461D01*
X121285714Y-121564270D01*
X121285714Y-121373794D01*
X121333333Y-121284508D01*
D11*
X137500000Y-156000000D02*
X137500000Y-157500000D01*
X105000000Y-156000000D02*
X105000000Y-157500000D01*
D10*
X117059523Y-141972380D02*
X117678571Y-141972380D01*
X117345238Y-142353333D01*
X117488095Y-142353333D01*
X117583333Y-142400952D01*
X117630952Y-142448571D01*
X117678571Y-142543809D01*
X117678571Y-142781904D01*
X117630952Y-142877142D01*
X117583333Y-142924761D01*
X117488095Y-142972380D01*
X117202380Y-142972380D01*
X117107142Y-142924761D01*
X117059523Y-142877142D01*
X118059523Y-142067619D02*
X118107142Y-142020000D01*
X118202380Y-141972380D01*
X118440476Y-141972380D01*
X118535714Y-142020000D01*
X118583333Y-142067619D01*
X118630952Y-142162857D01*
X118630952Y-142258095D01*
X118583333Y-142400952D01*
X118011904Y-142972380D01*
X118630952Y-142972380D01*
X119059523Y-142877142D02*
X119107142Y-142924761D01*
X119059523Y-142972380D01*
X119011904Y-142924761D01*
X119059523Y-142877142D01*
X119059523Y-142972380D01*
X120011904Y-141972380D02*
X119535714Y-141972380D01*
X119488095Y-142448571D01*
X119535714Y-142400952D01*
X119630952Y-142353333D01*
X119869047Y-142353333D01*
X119964285Y-142400952D01*
X120011904Y-142448571D01*
X120059523Y-142543809D01*
X120059523Y-142781904D01*
X120011904Y-142877142D01*
X119964285Y-142924761D01*
X119869047Y-142972380D01*
X119630952Y-142972380D01*
X119535714Y-142924761D01*
X119488095Y-142877142D01*
X120678571Y-141972380D02*
X120773809Y-141972380D01*
X120869047Y-142020000D01*
X120916666Y-142067619D01*
X120964285Y-142162857D01*
X121011904Y-142353333D01*
X121011904Y-142591428D01*
X120964285Y-142781904D01*
X120916666Y-142877142D01*
X120869047Y-142924761D01*
X120773809Y-142972380D01*
X120678571Y-142972380D01*
X120583333Y-142924761D01*
X120535714Y-142877142D01*
X120488095Y-142781904D01*
X120440476Y-142591428D01*
X120440476Y-142353333D01*
X120488095Y-142162857D01*
X120535714Y-142067619D01*
X120583333Y-142020000D01*
X120678571Y-141972380D01*
X121630952Y-141972380D02*
X121726190Y-141972380D01*
X121821428Y-142020000D01*
X121869047Y-142067619D01*
X121916666Y-142162857D01*
X121964285Y-142353333D01*
X121964285Y-142591428D01*
X121916666Y-142781904D01*
X121869047Y-142877142D01*
X121821428Y-142924761D01*
X121726190Y-142972380D01*
X121630952Y-142972380D01*
X121535714Y-142924761D01*
X121488095Y-142877142D01*
X121440476Y-142781904D01*
X121392857Y-142591428D01*
X121392857Y-142353333D01*
X121440476Y-142162857D01*
X121488095Y-142067619D01*
X121535714Y-142020000D01*
X121630952Y-141972380D01*
X123154761Y-142972380D02*
X123154761Y-142305714D01*
X123154761Y-142400952D02*
X123202380Y-142353333D01*
X123297619Y-142305714D01*
X123440476Y-142305714D01*
X123535714Y-142353333D01*
X123583333Y-142448571D01*
X123583333Y-142972380D01*
X123583333Y-142448571D02*
X123630952Y-142353333D01*
X123726190Y-142305714D01*
X123869047Y-142305714D01*
X123964285Y-142353333D01*
X124011904Y-142448571D01*
X124011904Y-142972380D01*
X124488095Y-142972380D02*
X124488095Y-142305714D01*
X124488095Y-142400952D02*
X124535714Y-142353333D01*
X124630952Y-142305714D01*
X124773809Y-142305714D01*
X124869047Y-142353333D01*
X124916666Y-142448571D01*
X124916666Y-142972380D01*
X124916666Y-142448571D02*
X124964285Y-142353333D01*
X125059523Y-142305714D01*
X125202380Y-142305714D01*
X125297619Y-142353333D01*
X125345238Y-142448571D01*
X125345238Y-142972380D01*
D11*
X105000000Y-141250000D02*
X137500000Y-141250000D01*
X105000000Y-139250000D02*
X105000000Y-141836421D01*
X137500000Y-139250000D02*
X137500000Y-141836421D01*
X137500000Y-141250000D02*
X136373496Y-141836421D01*
X137500000Y-141250000D02*
X136373496Y-140663579D01*
X105000000Y-141250000D02*
X106126504Y-141836421D01*
X105000000Y-141250000D02*
X106126504Y-140663579D01*
D10*
X123988095Y-114071428D02*
X124750000Y-114071428D01*
X125750000Y-114452380D02*
X125178571Y-114452380D01*
X125464285Y-114452380D02*
X125464285Y-113452380D01*
X125369047Y-113595238D01*
X125273809Y-113690476D01*
X125178571Y-113738095D01*
X126654761Y-113452380D02*
X126178571Y-113452380D01*
X126130952Y-113928571D01*
X126178571Y-113880952D01*
X126273809Y-113833333D01*
X126511904Y-113833333D01*
X126607142Y-113880952D01*
X126654761Y-113928571D01*
X126702380Y-114023809D01*
X126702380Y-114261904D01*
X126654761Y-114357142D01*
X126607142Y-114404761D01*
X126511904Y-114452380D01*
X126273809Y-114452380D01*
X126178571Y-114404761D01*
X126130952Y-114357142D01*
X126988095Y-113452380D02*
X127321428Y-114452380D01*
X127654761Y-113452380D01*
X114738095Y-114071428D02*
X115500000Y-114071428D01*
X115119047Y-114452380D02*
X115119047Y-113690476D01*
X116500000Y-114452380D02*
X115928571Y-114452380D01*
X116214285Y-114452380D02*
X116214285Y-113452380D01*
X116119047Y-113595238D01*
X116023809Y-113690476D01*
X115928571Y-113738095D01*
X117404761Y-113452380D02*
X116928571Y-113452380D01*
X116880952Y-113928571D01*
X116928571Y-113880952D01*
X117023809Y-113833333D01*
X117261904Y-113833333D01*
X117357142Y-113880952D01*
X117404761Y-113928571D01*
X117452380Y-114023809D01*
X117452380Y-114261904D01*
X117404761Y-114357142D01*
X117357142Y-114404761D01*
X117261904Y-114452380D01*
X117023809Y-114452380D01*
X116928571Y-114404761D01*
X116880952Y-114357142D01*
X117738095Y-113452380D02*
X118071428Y-114452380D01*
X118404761Y-113452380D01*
X108880952Y-113452380D02*
X109071428Y-113452380D01*
X109166666Y-113500000D01*
X109261904Y-113595238D01*
X109309523Y-113785714D01*
X109309523Y-114119047D01*
X109261904Y-114309523D01*
X109166666Y-114404761D01*
X109071428Y-114452380D01*
X108880952Y-114452380D01*
X108785714Y-114404761D01*
X108690476Y-114309523D01*
X108642857Y-114119047D01*
X108642857Y-113785714D01*
X108690476Y-113595238D01*
X108785714Y-113500000D01*
X108880952Y-113452380D01*
X109738095Y-113452380D02*
X109738095Y-114261904D01*
X109785714Y-114357142D01*
X109833333Y-114404761D01*
X109928571Y-114452380D01*
X110119047Y-114452380D01*
X110214285Y-114404761D01*
X110261904Y-114357142D01*
X110309523Y-114261904D01*
X110309523Y-113452380D01*
X110642857Y-113452380D02*
X111214285Y-113452380D01*
X110928571Y-114452380D02*
X110928571Y-113452380D01*
X111547619Y-114071428D02*
X112309523Y-114071428D01*
X141380952Y-113452380D02*
X141571428Y-113452380D01*
X141666666Y-113500000D01*
X141761904Y-113595238D01*
X141809523Y-113785714D01*
X141809523Y-114119047D01*
X141761904Y-114309523D01*
X141666666Y-114404761D01*
X141571428Y-114452380D01*
X141380952Y-114452380D01*
X141285714Y-114404761D01*
X141190476Y-114309523D01*
X141142857Y-114119047D01*
X141142857Y-113785714D01*
X141190476Y-113595238D01*
X141285714Y-113500000D01*
X141380952Y-113452380D01*
X142238095Y-113452380D02*
X142238095Y-114261904D01*
X142285714Y-114357142D01*
X142333333Y-114404761D01*
X142428571Y-114452380D01*
X142619047Y-114452380D01*
X142714285Y-114404761D01*
X142761904Y-114357142D01*
X142809523Y-114261904D01*
X142809523Y-113452380D01*
X143142857Y-113452380D02*
X143714285Y-113452380D01*
X143428571Y-114452380D02*
X143428571Y-113452380D01*
X144047619Y-114071428D02*
X144809523Y-114071428D01*
X136380952Y-113452380D02*
X136571428Y-113452380D01*
X136666666Y-113500000D01*
X136761904Y-113595238D01*
X136809523Y-113785714D01*
X136809523Y-114119047D01*
X136761904Y-114309523D01*
X136666666Y-114404761D01*
X136571428Y-114452380D01*
X136380952Y-114452380D01*
X136285714Y-114404761D01*
X136190476Y-114309523D01*
X136142857Y-114119047D01*
X136142857Y-113785714D01*
X136190476Y-113595238D01*
X136285714Y-113500000D01*
X136380952Y-113452380D01*
X137238095Y-113452380D02*
X137238095Y-114261904D01*
X137285714Y-114357142D01*
X137333333Y-114404761D01*
X137428571Y-114452380D01*
X137619047Y-114452380D01*
X137714285Y-114404761D01*
X137761904Y-114357142D01*
X137809523Y-114261904D01*
X137809523Y-113452380D01*
X138142857Y-113452380D02*
X138714285Y-113452380D01*
X138428571Y-114452380D02*
X138428571Y-113452380D01*
X139047619Y-114071428D02*
X139809523Y-114071428D01*
X139428571Y-114452380D02*
X139428571Y-113690476D01*
X103880952Y-113452380D02*
X104071428Y-113452380D01*
X104166666Y-113500000D01*
X104261904Y-113595238D01*
X104309523Y-113785714D01*
X104309523Y-114119047D01*
X104261904Y-114309523D01*
X104166666Y-114404761D01*
X104071428Y-114452380D01*
X103880952Y-114452380D01*
X103785714Y-114404761D01*
X103690476Y-114309523D01*
X103642857Y-114119047D01*
X103642857Y-113785714D01*
X103690476Y-113595238D01*
X103785714Y-113500000D01*
X103880952Y-113452380D01*
X104738095Y-113452380D02*
X104738095Y-114261904D01*
X104785714Y-114357142D01*
X104833333Y-114404761D01*
X104928571Y-114452380D01*
X105119047Y-114452380D01*
X105214285Y-114404761D01*
X105261904Y-114357142D01*
X105309523Y-114261904D01*
X105309523Y-113452380D01*
X105642857Y-113452380D02*
X106214285Y-113452380D01*
X105928571Y-114452380D02*
X105928571Y-113452380D01*
X106547619Y-114071428D02*
X107309523Y-114071428D01*
X106928571Y-114452380D02*
X106928571Y-113690476D01*
X132238095Y-113500000D02*
X132142857Y-113452380D01*
X132000000Y-113452380D01*
X131857142Y-113500000D01*
X131761904Y-113595238D01*
X131714285Y-113690476D01*
X131666666Y-113880952D01*
X131666666Y-114023809D01*
X131714285Y-114214285D01*
X131761904Y-114309523D01*
X131857142Y-114404761D01*
X132000000Y-114452380D01*
X132095238Y-114452380D01*
X132238095Y-114404761D01*
X132285714Y-114357142D01*
X132285714Y-114023809D01*
X132095238Y-114023809D01*
X132714285Y-114452380D02*
X132714285Y-113452380D01*
X133285714Y-114452380D01*
X133285714Y-113452380D01*
X133761904Y-114452380D02*
X133761904Y-113452380D01*
X134000000Y-113452380D01*
X134142857Y-113500000D01*
X134238095Y-113595238D01*
X134285714Y-113690476D01*
X134333333Y-113880952D01*
X134333333Y-114023809D01*
X134285714Y-114214285D01*
X134238095Y-114309523D01*
X134142857Y-114404761D01*
X134000000Y-114452380D01*
X133761904Y-114452380D01*
X120488095Y-113500000D02*
X120392857Y-113452380D01*
X120250000Y-113452380D01*
X120107142Y-113500000D01*
X120011904Y-113595238D01*
X119964285Y-113690476D01*
X119916666Y-113880952D01*
X119916666Y-114023809D01*
X119964285Y-114214285D01*
X120011904Y-114309523D01*
X120107142Y-114404761D01*
X120250000Y-114452380D01*
X120345238Y-114452380D01*
X120488095Y-114404761D01*
X120535714Y-114357142D01*
X120535714Y-114023809D01*
X120345238Y-114023809D01*
X120964285Y-114452380D02*
X120964285Y-113452380D01*
X121535714Y-114452380D01*
X121535714Y-113452380D01*
X122011904Y-114452380D02*
X122011904Y-113452380D01*
X122250000Y-113452380D01*
X122392857Y-113500000D01*
X122488095Y-113595238D01*
X122535714Y-113690476D01*
X122583333Y-113880952D01*
X122583333Y-114023809D01*
X122535714Y-114214285D01*
X122488095Y-114309523D01*
X122392857Y-114404761D01*
X122250000Y-114452380D01*
X122011904Y-114452380D01*
X99488095Y-113500000D02*
X99392857Y-113452380D01*
X99250000Y-113452380D01*
X99107142Y-113500000D01*
X99011904Y-113595238D01*
X98964285Y-113690476D01*
X98916666Y-113880952D01*
X98916666Y-114023809D01*
X98964285Y-114214285D01*
X99011904Y-114309523D01*
X99107142Y-114404761D01*
X99250000Y-114452380D01*
X99345238Y-114452380D01*
X99488095Y-114404761D01*
X99535714Y-114357142D01*
X99535714Y-114023809D01*
X99345238Y-114023809D01*
X99964285Y-114452380D02*
X99964285Y-113452380D01*
X100535714Y-114452380D01*
X100535714Y-113452380D01*
X101011904Y-114452380D02*
X101011904Y-113452380D01*
X101250000Y-113452380D01*
X101392857Y-113500000D01*
X101488095Y-113595238D01*
X101535714Y-113690476D01*
X101583333Y-113880952D01*
X101583333Y-114023809D01*
X101535714Y-114214285D01*
X101488095Y-114309523D01*
X101392857Y-114404761D01*
X101250000Y-114452380D01*
X101011904Y-114452380D01*
D11*
%TO.C,C8*%
X146102064Y-121340000D02*
X144897936Y-121340000D01*
X146102064Y-123160000D02*
X144897936Y-123160000D01*
%TO.C,C7*%
X130102064Y-121340000D02*
X128897936Y-121340000D01*
X130102064Y-123160000D02*
X128897936Y-123160000D01*
%TO.C,C6*%
X113102064Y-121340000D02*
X111897936Y-121340000D01*
X113102064Y-123160000D02*
X111897936Y-123160000D01*
%TO.C,C5*%
X98102064Y-121340000D02*
X96897936Y-121340000D01*
X98102064Y-123160000D02*
X96897936Y-123160000D01*
%TO.C,C4*%
X136852064Y-125090000D02*
X135647936Y-125090000D01*
X136852064Y-126910000D02*
X135647936Y-126910000D01*
%TO.C,C3*%
X104602064Y-125090000D02*
X103397936Y-125090000D01*
X104602064Y-126910000D02*
X103397936Y-126910000D01*
%TO.C,C2*%
X139102064Y-116090000D02*
X137897936Y-116090000D01*
X139102064Y-117910000D02*
X137897936Y-117910000D01*
%TO.C,C1*%
X106602064Y-116090000D02*
X105397936Y-116090000D01*
X106602064Y-117910000D02*
X105397936Y-117910000D01*
%TO.C,J1*%
X96700000Y-139950000D02*
X96700000Y-135545000D01*
X113335000Y-140650000D02*
X113335000Y-135545000D01*
X113335000Y-135545000D02*
X106315000Y-135545000D01*
X96895000Y-162985000D02*
X93895000Y-162985000D01*
X116135000Y-162985000D02*
X113135000Y-162985000D01*
X117635000Y-160285000D02*
X116135000Y-160285000D01*
X93895000Y-160285000D02*
X92395000Y-160285000D01*
X96895000Y-162985000D02*
X96895000Y-163985000D01*
X113135000Y-162985000D02*
X113135000Y-163985000D01*
X93895000Y-160285000D02*
X93895000Y-162985000D01*
X116135000Y-160285000D02*
X116135000Y-162985000D01*
X92395000Y-153695000D02*
X93895000Y-153695000D01*
X116135000Y-153695000D02*
X117635000Y-153695000D01*
X93895000Y-148595000D02*
X96695000Y-148595000D01*
X116135000Y-148595000D02*
X113335000Y-148595000D01*
X96695000Y-148595000D02*
X96695000Y-142250000D01*
X113335000Y-148595000D02*
X113335000Y-142850000D01*
X103715000Y-135545000D02*
X96695000Y-135545000D01*
X93895000Y-153695000D02*
X93895000Y-148595000D01*
X116135000Y-153695000D02*
X116135000Y-148595000D01*
X117635000Y-160285000D02*
X117635000Y-153695000D01*
X92395000Y-160285000D02*
X92395000Y-153695000D01*
X96914770Y-163995601D02*
G75*
G03*
X113135000Y-163985000I8100230J15130601D01*
G01*
%TO.C,J2*%
X129200000Y-139950000D02*
X129200000Y-135545000D01*
X145835000Y-140650000D02*
X145835000Y-135545000D01*
X145835000Y-135545000D02*
X138815000Y-135545000D01*
X129395000Y-162985000D02*
X126395000Y-162985000D01*
X148635000Y-162985000D02*
X145635000Y-162985000D01*
X150135000Y-160285000D02*
X148635000Y-160285000D01*
X126395000Y-160285000D02*
X124895000Y-160285000D01*
X129395000Y-162985000D02*
X129395000Y-163985000D01*
X145635000Y-162985000D02*
X145635000Y-163985000D01*
X126395000Y-160285000D02*
X126395000Y-162985000D01*
X148635000Y-160285000D02*
X148635000Y-162985000D01*
X124895000Y-153695000D02*
X126395000Y-153695000D01*
X148635000Y-153695000D02*
X150135000Y-153695000D01*
X126395000Y-148595000D02*
X129195000Y-148595000D01*
X148635000Y-148595000D02*
X145835000Y-148595000D01*
X129195000Y-148595000D02*
X129195000Y-142250000D01*
X145835000Y-148595000D02*
X145835000Y-142850000D01*
X136215000Y-135545000D02*
X129195000Y-135545000D01*
X126395000Y-153695000D02*
X126395000Y-148595000D01*
X148635000Y-153695000D02*
X148635000Y-148595000D01*
X150135000Y-160285000D02*
X150135000Y-153695000D01*
X124895000Y-160285000D02*
X124895000Y-153695000D01*
X129414770Y-163995601D02*
G75*
G03*
X145635000Y-163985000I8100230J15130601D01*
G01*
%TO.C,D4*%
X143300000Y-127250000D02*
X143300000Y-129250000D01*
X143300000Y-129250000D02*
X147150000Y-129250000D01*
X143300000Y-127250000D02*
X147150000Y-127250000D01*
%TO.C,D3*%
X127300000Y-127250000D02*
X127300000Y-129250000D01*
X127300000Y-129250000D02*
X131150000Y-129250000D01*
X127300000Y-127250000D02*
X131150000Y-127250000D01*
%TO.C,D2*%
X110300000Y-127250000D02*
X110300000Y-129250000D01*
X110300000Y-129250000D02*
X114150000Y-129250000D01*
X110300000Y-127250000D02*
X114150000Y-127250000D01*
%TO.C,D1*%
X95300000Y-127250000D02*
X95300000Y-129250000D01*
X95300000Y-129250000D02*
X99150000Y-129250000D01*
X95300000Y-127250000D02*
X99150000Y-127250000D01*
%TO.C,U2*%
X137500000Y-118940000D02*
X134050000Y-118940000D01*
X137500000Y-118940000D02*
X139450000Y-118940000D01*
X137500000Y-124060000D02*
X135550000Y-124060000D01*
X137500000Y-124060000D02*
X139450000Y-124060000D01*
%TO.C,U1*%
X105000000Y-118940000D02*
X101550000Y-118940000D01*
X105000000Y-118940000D02*
X106950000Y-118940000D01*
X105000000Y-124060000D02*
X103050000Y-124060000D01*
X105000000Y-124060000D02*
X106950000Y-124060000D01*
%TO.C,R10*%
X141410000Y-130852064D02*
X141410000Y-129647936D01*
X139590000Y-130852064D02*
X139590000Y-129647936D01*
%TO.C,R9*%
X133590000Y-129647936D02*
X133590000Y-130852064D01*
X135410000Y-129647936D02*
X135410000Y-130852064D01*
%TO.C,R8*%
X108910000Y-130852064D02*
X108910000Y-129647936D01*
X107090000Y-130852064D02*
X107090000Y-129647936D01*
%TO.C,R7*%
X101090000Y-129647936D02*
X101090000Y-130852064D01*
X102910000Y-129647936D02*
X102910000Y-130852064D01*
%TO.C,R6*%
X138410000Y-130852064D02*
X138410000Y-129647936D01*
X136590000Y-130852064D02*
X136590000Y-129647936D01*
%TO.C,R5*%
X105910000Y-130852064D02*
X105910000Y-129647936D01*
X104090000Y-130852064D02*
X104090000Y-129647936D01*
%TO.C,R4*%
X144897936Y-126160000D02*
X146102064Y-126160000D01*
X144897936Y-124340000D02*
X146102064Y-124340000D01*
%TO.C,R3*%
X130102064Y-124340000D02*
X128897936Y-124340000D01*
X130102064Y-126160000D02*
X128897936Y-126160000D01*
%TO.C,R2*%
X111897936Y-126160000D02*
X113102064Y-126160000D01*
X111897936Y-124340000D02*
X113102064Y-124340000D01*
%TO.C,R1*%
X98102064Y-124340000D02*
X96897936Y-124340000D01*
X98102064Y-126160000D02*
X96897936Y-126160000D01*
%TO.C,J5*%
X133500000Y-107500000D02*
X133500000Y-105750000D01*
X134500000Y-107500000D02*
X133500000Y-107500000D01*
X134500000Y-105750000D02*
X134500000Y-107500000D01*
X137000000Y-107500000D02*
X137000000Y-105750000D01*
X138000000Y-107500000D02*
X137000000Y-107500000D01*
X138000000Y-105750000D02*
X138000000Y-107500000D01*
X141500000Y-107500000D02*
X141500000Y-105750000D01*
X140500000Y-107500000D02*
X140500000Y-105750000D01*
X141500000Y-107500000D02*
X140500000Y-107500000D01*
X142250000Y-109250000D02*
G75*
G03*
X142250000Y-109250000I-1250000J0D01*
G01*
X138750000Y-109250000D02*
G75*
G03*
X138750000Y-109250000I-1250000J0D01*
G01*
X135250000Y-109250000D02*
G75*
G03*
X135250000Y-109250000I-1250000J0D01*
G01*
X131500000Y-112750000D02*
X143500000Y-112750000D01*
X131500000Y-105750000D02*
X143500000Y-105750000D01*
X143500000Y-112750000D02*
X143500000Y-105750000D01*
X131500000Y-112750000D02*
X131500000Y-105750000D01*
%TO.C,J4*%
X101000000Y-107500000D02*
X101000000Y-105750000D01*
X102000000Y-107500000D02*
X101000000Y-107500000D01*
X102000000Y-105750000D02*
X102000000Y-107500000D01*
X104500000Y-107500000D02*
X104500000Y-105750000D01*
X105500000Y-107500000D02*
X104500000Y-107500000D01*
X105500000Y-105750000D02*
X105500000Y-107500000D01*
X109000000Y-107500000D02*
X109000000Y-105750000D01*
X108000000Y-107500000D02*
X108000000Y-105750000D01*
X109000000Y-107500000D02*
X108000000Y-107500000D01*
X109750000Y-109250000D02*
G75*
G03*
X109750000Y-109250000I-1250000J0D01*
G01*
X106250000Y-109250000D02*
G75*
G03*
X106250000Y-109250000I-1250000J0D01*
G01*
X102750000Y-109250000D02*
G75*
G03*
X102750000Y-109250000I-1250000J0D01*
G01*
X99000000Y-112750000D02*
X111000000Y-112750000D01*
X99000000Y-105750000D02*
X111000000Y-105750000D01*
X111000000Y-112750000D02*
X111000000Y-105750000D01*
X99000000Y-112750000D02*
X99000000Y-105750000D01*
%TO.C,J3*%
X117250000Y-107500000D02*
X117250000Y-105750000D01*
X118250000Y-107500000D02*
X117250000Y-107500000D01*
X118250000Y-105750000D02*
X118250000Y-107500000D01*
X120750000Y-107500000D02*
X120750000Y-105750000D01*
X121750000Y-107500000D02*
X120750000Y-107500000D01*
X121750000Y-105750000D02*
X121750000Y-107500000D01*
X125250000Y-107500000D02*
X125250000Y-105750000D01*
X124250000Y-107500000D02*
X124250000Y-105750000D01*
X125250000Y-107500000D02*
X124250000Y-107500000D01*
X126000000Y-109250000D02*
G75*
G03*
X126000000Y-109250000I-1250000J0D01*
G01*
X122500000Y-109250000D02*
G75*
G03*
X122500000Y-109250000I-1250000J0D01*
G01*
X119000000Y-109250000D02*
G75*
G03*
X119000000Y-109250000I-1250000J0D01*
G01*
X115250000Y-112750000D02*
X127250000Y-112750000D01*
X115250000Y-105750000D02*
X127250000Y-105750000D01*
X127250000Y-112750000D02*
X127250000Y-105750000D01*
X115250000Y-112750000D02*
X115250000Y-105750000D01*
%TO.C,C8*%
D10*
X149583333Y-122607142D02*
X149535714Y-122654761D01*
X149392857Y-122702380D01*
X149297619Y-122702380D01*
X149154761Y-122654761D01*
X149059523Y-122559523D01*
X149011904Y-122464285D01*
X148964285Y-122273809D01*
X148964285Y-122130952D01*
X149011904Y-121940476D01*
X149059523Y-121845238D01*
X149154761Y-121750000D01*
X149297619Y-121702380D01*
X149392857Y-121702380D01*
X149535714Y-121750000D01*
X149583333Y-121797619D01*
X150154761Y-122130952D02*
X150059523Y-122083333D01*
X150011904Y-122035714D01*
X149964285Y-121940476D01*
X149964285Y-121892857D01*
X150011904Y-121797619D01*
X150059523Y-121750000D01*
X150154761Y-121702380D01*
X150345238Y-121702380D01*
X150440476Y-121750000D01*
X150488095Y-121797619D01*
X150535714Y-121892857D01*
X150535714Y-121940476D01*
X150488095Y-122035714D01*
X150440476Y-122083333D01*
X150345238Y-122130952D01*
X150154761Y-122130952D01*
X150059523Y-122178571D01*
X150011904Y-122226190D01*
X149964285Y-122321428D01*
X149964285Y-122511904D01*
X150011904Y-122607142D01*
X150059523Y-122654761D01*
X150154761Y-122702380D01*
X150345238Y-122702380D01*
X150440476Y-122654761D01*
X150488095Y-122607142D01*
X150535714Y-122511904D01*
X150535714Y-122321428D01*
X150488095Y-122226190D01*
X150440476Y-122178571D01*
X150345238Y-122130952D01*
%TO.C,C7*%
X125083333Y-122607142D02*
X125035714Y-122654761D01*
X124892857Y-122702380D01*
X124797619Y-122702380D01*
X124654761Y-122654761D01*
X124559523Y-122559523D01*
X124511904Y-122464285D01*
X124464285Y-122273809D01*
X124464285Y-122130952D01*
X124511904Y-121940476D01*
X124559523Y-121845238D01*
X124654761Y-121750000D01*
X124797619Y-121702380D01*
X124892857Y-121702380D01*
X125035714Y-121750000D01*
X125083333Y-121797619D01*
X125416666Y-121702380D02*
X126083333Y-121702380D01*
X125654761Y-122702380D01*
%TO.C,C6*%
X116583333Y-122607142D02*
X116535714Y-122654761D01*
X116392857Y-122702380D01*
X116297619Y-122702380D01*
X116154761Y-122654761D01*
X116059523Y-122559523D01*
X116011904Y-122464285D01*
X115964285Y-122273809D01*
X115964285Y-122130952D01*
X116011904Y-121940476D01*
X116059523Y-121845238D01*
X116154761Y-121750000D01*
X116297619Y-121702380D01*
X116392857Y-121702380D01*
X116535714Y-121750000D01*
X116583333Y-121797619D01*
X117440476Y-121702380D02*
X117250000Y-121702380D01*
X117154761Y-121750000D01*
X117107142Y-121797619D01*
X117011904Y-121940476D01*
X116964285Y-122130952D01*
X116964285Y-122511904D01*
X117011904Y-122607142D01*
X117059523Y-122654761D01*
X117154761Y-122702380D01*
X117345238Y-122702380D01*
X117440476Y-122654761D01*
X117488095Y-122607142D01*
X117535714Y-122511904D01*
X117535714Y-122273809D01*
X117488095Y-122178571D01*
X117440476Y-122130952D01*
X117345238Y-122083333D01*
X117154761Y-122083333D01*
X117059523Y-122130952D01*
X117011904Y-122178571D01*
X116964285Y-122273809D01*
%TO.C,C5*%
X92833333Y-122607142D02*
X92785714Y-122654761D01*
X92642857Y-122702380D01*
X92547619Y-122702380D01*
X92404761Y-122654761D01*
X92309523Y-122559523D01*
X92261904Y-122464285D01*
X92214285Y-122273809D01*
X92214285Y-122130952D01*
X92261904Y-121940476D01*
X92309523Y-121845238D01*
X92404761Y-121750000D01*
X92547619Y-121702380D01*
X92642857Y-121702380D01*
X92785714Y-121750000D01*
X92833333Y-121797619D01*
X93738095Y-121702380D02*
X93261904Y-121702380D01*
X93214285Y-122178571D01*
X93261904Y-122130952D01*
X93357142Y-122083333D01*
X93595238Y-122083333D01*
X93690476Y-122130952D01*
X93738095Y-122178571D01*
X93785714Y-122273809D01*
X93785714Y-122511904D01*
X93738095Y-122607142D01*
X93690476Y-122654761D01*
X93595238Y-122702380D01*
X93357142Y-122702380D01*
X93261904Y-122654761D01*
X93214285Y-122607142D01*
%TO.C,C4*%
X140583333Y-126357142D02*
X140535714Y-126404761D01*
X140392857Y-126452380D01*
X140297619Y-126452380D01*
X140154761Y-126404761D01*
X140059523Y-126309523D01*
X140011904Y-126214285D01*
X139964285Y-126023809D01*
X139964285Y-125880952D01*
X140011904Y-125690476D01*
X140059523Y-125595238D01*
X140154761Y-125500000D01*
X140297619Y-125452380D01*
X140392857Y-125452380D01*
X140535714Y-125500000D01*
X140583333Y-125547619D01*
X141440476Y-125785714D02*
X141440476Y-126452380D01*
X141202380Y-125404761D02*
X140964285Y-126119047D01*
X141583333Y-126119047D01*
%TO.C,C3*%
X108083333Y-126357142D02*
X108035714Y-126404761D01*
X107892857Y-126452380D01*
X107797619Y-126452380D01*
X107654761Y-126404761D01*
X107559523Y-126309523D01*
X107511904Y-126214285D01*
X107464285Y-126023809D01*
X107464285Y-125880952D01*
X107511904Y-125690476D01*
X107559523Y-125595238D01*
X107654761Y-125500000D01*
X107797619Y-125452380D01*
X107892857Y-125452380D01*
X108035714Y-125500000D01*
X108083333Y-125547619D01*
X108416666Y-125452380D02*
X109035714Y-125452380D01*
X108702380Y-125833333D01*
X108845238Y-125833333D01*
X108940476Y-125880952D01*
X108988095Y-125928571D01*
X109035714Y-126023809D01*
X109035714Y-126261904D01*
X108988095Y-126357142D01*
X108940476Y-126404761D01*
X108845238Y-126452380D01*
X108559523Y-126452380D01*
X108464285Y-126404761D01*
X108416666Y-126357142D01*
%TO.C,C2*%
X134083333Y-117357142D02*
X134035714Y-117404761D01*
X133892857Y-117452380D01*
X133797619Y-117452380D01*
X133654761Y-117404761D01*
X133559523Y-117309523D01*
X133511904Y-117214285D01*
X133464285Y-117023809D01*
X133464285Y-116880952D01*
X133511904Y-116690476D01*
X133559523Y-116595238D01*
X133654761Y-116500000D01*
X133797619Y-116452380D01*
X133892857Y-116452380D01*
X134035714Y-116500000D01*
X134083333Y-116547619D01*
X134464285Y-116547619D02*
X134511904Y-116500000D01*
X134607142Y-116452380D01*
X134845238Y-116452380D01*
X134940476Y-116500000D01*
X134988095Y-116547619D01*
X135035714Y-116642857D01*
X135035714Y-116738095D01*
X134988095Y-116880952D01*
X134416666Y-117452380D01*
X135035714Y-117452380D01*
%TO.C,C1*%
X101833333Y-117357142D02*
X101785714Y-117404761D01*
X101642857Y-117452380D01*
X101547619Y-117452380D01*
X101404761Y-117404761D01*
X101309523Y-117309523D01*
X101261904Y-117214285D01*
X101214285Y-117023809D01*
X101214285Y-116880952D01*
X101261904Y-116690476D01*
X101309523Y-116595238D01*
X101404761Y-116500000D01*
X101547619Y-116452380D01*
X101642857Y-116452380D01*
X101785714Y-116500000D01*
X101833333Y-116547619D01*
X102785714Y-117452380D02*
X102214285Y-117452380D01*
X102500000Y-117452380D02*
X102500000Y-116452380D01*
X102404761Y-116595238D01*
X102309523Y-116690476D01*
X102214285Y-116738095D01*
%TO.C,J1*%
X118452380Y-151098333D02*
X119166666Y-151098333D01*
X119309523Y-151145952D01*
X119404761Y-151241190D01*
X119452380Y-151384047D01*
X119452380Y-151479285D01*
X119452380Y-150098333D02*
X119452380Y-150669761D01*
X119452380Y-150384047D02*
X118452380Y-150384047D01*
X118595238Y-150479285D01*
X118690476Y-150574523D01*
X118738095Y-150669761D01*
%TO.C,J2*%
X150952380Y-151098333D02*
X151666666Y-151098333D01*
X151809523Y-151145952D01*
X151904761Y-151241190D01*
X151952380Y-151384047D01*
X151952380Y-151479285D01*
X151047619Y-150669761D02*
X151000000Y-150622142D01*
X150952380Y-150526904D01*
X150952380Y-150288809D01*
X151000000Y-150193571D01*
X151047619Y-150145952D01*
X151142857Y-150098333D01*
X151238095Y-150098333D01*
X151380952Y-150145952D01*
X151952380Y-150717380D01*
X151952380Y-150098333D01*
%TO.C,D4*%
X148261904Y-128702380D02*
X148261904Y-127702380D01*
X148500000Y-127702380D01*
X148642857Y-127750000D01*
X148738095Y-127845238D01*
X148785714Y-127940476D01*
X148833333Y-128130952D01*
X148833333Y-128273809D01*
X148785714Y-128464285D01*
X148738095Y-128559523D01*
X148642857Y-128654761D01*
X148500000Y-128702380D01*
X148261904Y-128702380D01*
X149690476Y-128035714D02*
X149690476Y-128702380D01*
X149452380Y-127654761D02*
X149214285Y-128369047D01*
X149833333Y-128369047D01*
%TO.C,D3*%
X125261904Y-128702380D02*
X125261904Y-127702380D01*
X125500000Y-127702380D01*
X125642857Y-127750000D01*
X125738095Y-127845238D01*
X125785714Y-127940476D01*
X125833333Y-128130952D01*
X125833333Y-128273809D01*
X125785714Y-128464285D01*
X125738095Y-128559523D01*
X125642857Y-128654761D01*
X125500000Y-128702380D01*
X125261904Y-128702380D01*
X126166666Y-127702380D02*
X126785714Y-127702380D01*
X126452380Y-128083333D01*
X126595238Y-128083333D01*
X126690476Y-128130952D01*
X126738095Y-128178571D01*
X126785714Y-128273809D01*
X126785714Y-128511904D01*
X126738095Y-128607142D01*
X126690476Y-128654761D01*
X126595238Y-128702380D01*
X126309523Y-128702380D01*
X126214285Y-128654761D01*
X126166666Y-128607142D01*
%TO.C,D2*%
X115261904Y-128702380D02*
X115261904Y-127702380D01*
X115500000Y-127702380D01*
X115642857Y-127750000D01*
X115738095Y-127845238D01*
X115785714Y-127940476D01*
X115833333Y-128130952D01*
X115833333Y-128273809D01*
X115785714Y-128464285D01*
X115738095Y-128559523D01*
X115642857Y-128654761D01*
X115500000Y-128702380D01*
X115261904Y-128702380D01*
X116214285Y-127797619D02*
X116261904Y-127750000D01*
X116357142Y-127702380D01*
X116595238Y-127702380D01*
X116690476Y-127750000D01*
X116738095Y-127797619D01*
X116785714Y-127892857D01*
X116785714Y-127988095D01*
X116738095Y-128130952D01*
X116166666Y-128702380D01*
X116785714Y-128702380D01*
%TO.C,D1*%
X93261904Y-128702380D02*
X93261904Y-127702380D01*
X93500000Y-127702380D01*
X93642857Y-127750000D01*
X93738095Y-127845238D01*
X93785714Y-127940476D01*
X93833333Y-128130952D01*
X93833333Y-128273809D01*
X93785714Y-128464285D01*
X93738095Y-128559523D01*
X93642857Y-128654761D01*
X93500000Y-128702380D01*
X93261904Y-128702380D01*
X94785714Y-128702380D02*
X94214285Y-128702380D01*
X94500000Y-128702380D02*
X94500000Y-127702380D01*
X94404761Y-127845238D01*
X94309523Y-127940476D01*
X94214285Y-127988095D01*
%TO.C,U2*%
X131488095Y-117952380D02*
X131488095Y-118761904D01*
X131535714Y-118857142D01*
X131583333Y-118904761D01*
X131678571Y-118952380D01*
X131869047Y-118952380D01*
X131964285Y-118904761D01*
X132011904Y-118857142D01*
X132059523Y-118761904D01*
X132059523Y-117952380D01*
X132488095Y-118047619D02*
X132535714Y-118000000D01*
X132630952Y-117952380D01*
X132869047Y-117952380D01*
X132964285Y-118000000D01*
X133011904Y-118047619D01*
X133059523Y-118142857D01*
X133059523Y-118238095D01*
X133011904Y-118380952D01*
X132440476Y-118952380D01*
X133059523Y-118952380D01*
%TO.C,U1*%
X98988095Y-119202380D02*
X98988095Y-120011904D01*
X99035714Y-120107142D01*
X99083333Y-120154761D01*
X99178571Y-120202380D01*
X99369047Y-120202380D01*
X99464285Y-120154761D01*
X99511904Y-120107142D01*
X99559523Y-120011904D01*
X99559523Y-119202380D01*
X100559523Y-120202380D02*
X99988095Y-120202380D01*
X100273809Y-120202380D02*
X100273809Y-119202380D01*
X100178571Y-119345238D01*
X100083333Y-119440476D01*
X99988095Y-119488095D01*
%TO.C,R10*%
X143202380Y-133392857D02*
X142726190Y-133726190D01*
X143202380Y-133964285D02*
X142202380Y-133964285D01*
X142202380Y-133583333D01*
X142250000Y-133488095D01*
X142297619Y-133440476D01*
X142392857Y-133392857D01*
X142535714Y-133392857D01*
X142630952Y-133440476D01*
X142678571Y-133488095D01*
X142726190Y-133583333D01*
X142726190Y-133964285D01*
X143202380Y-132440476D02*
X143202380Y-133011904D01*
X143202380Y-132726190D02*
X142202380Y-132726190D01*
X142345238Y-132821428D01*
X142440476Y-132916666D01*
X142488095Y-133011904D01*
X142202380Y-131821428D02*
X142202380Y-131726190D01*
X142250000Y-131630952D01*
X142297619Y-131583333D01*
X142392857Y-131535714D01*
X142583333Y-131488095D01*
X142821428Y-131488095D01*
X143011904Y-131535714D01*
X143107142Y-131583333D01*
X143154761Y-131630952D01*
X143202380Y-131726190D01*
X143202380Y-131821428D01*
X143154761Y-131916666D01*
X143107142Y-131964285D01*
X143011904Y-132011904D01*
X142821428Y-132059523D01*
X142583333Y-132059523D01*
X142392857Y-132011904D01*
X142297619Y-131964285D01*
X142250000Y-131916666D01*
X142202380Y-131821428D01*
%TO.C,R9*%
X134952380Y-133916666D02*
X134476190Y-134250000D01*
X134952380Y-134488095D02*
X133952380Y-134488095D01*
X133952380Y-134107142D01*
X134000000Y-134011904D01*
X134047619Y-133964285D01*
X134142857Y-133916666D01*
X134285714Y-133916666D01*
X134380952Y-133964285D01*
X134428571Y-134011904D01*
X134476190Y-134107142D01*
X134476190Y-134488095D01*
X134952380Y-133440476D02*
X134952380Y-133250000D01*
X134904761Y-133154761D01*
X134857142Y-133107142D01*
X134714285Y-133011904D01*
X134523809Y-132964285D01*
X134142857Y-132964285D01*
X134047619Y-133011904D01*
X134000000Y-133059523D01*
X133952380Y-133154761D01*
X133952380Y-133345238D01*
X134000000Y-133440476D01*
X134047619Y-133488095D01*
X134142857Y-133535714D01*
X134380952Y-133535714D01*
X134476190Y-133488095D01*
X134523809Y-133440476D01*
X134571428Y-133345238D01*
X134571428Y-133154761D01*
X134523809Y-133059523D01*
X134476190Y-133011904D01*
X134380952Y-132964285D01*
%TO.C,R8*%
X108452380Y-133916666D02*
X107976190Y-134250000D01*
X108452380Y-134488095D02*
X107452380Y-134488095D01*
X107452380Y-134107142D01*
X107500000Y-134011904D01*
X107547619Y-133964285D01*
X107642857Y-133916666D01*
X107785714Y-133916666D01*
X107880952Y-133964285D01*
X107928571Y-134011904D01*
X107976190Y-134107142D01*
X107976190Y-134488095D01*
X107880952Y-133345238D02*
X107833333Y-133440476D01*
X107785714Y-133488095D01*
X107690476Y-133535714D01*
X107642857Y-133535714D01*
X107547619Y-133488095D01*
X107500000Y-133440476D01*
X107452380Y-133345238D01*
X107452380Y-133154761D01*
X107500000Y-133059523D01*
X107547619Y-133011904D01*
X107642857Y-132964285D01*
X107690476Y-132964285D01*
X107785714Y-133011904D01*
X107833333Y-133059523D01*
X107880952Y-133154761D01*
X107880952Y-133345238D01*
X107928571Y-133440476D01*
X107976190Y-133488095D01*
X108071428Y-133535714D01*
X108261904Y-133535714D01*
X108357142Y-133488095D01*
X108404761Y-133440476D01*
X108452380Y-133345238D01*
X108452380Y-133154761D01*
X108404761Y-133059523D01*
X108357142Y-133011904D01*
X108261904Y-132964285D01*
X108071428Y-132964285D01*
X107976190Y-133011904D01*
X107928571Y-133059523D01*
X107880952Y-133154761D01*
%TO.C,R7*%
X102452380Y-133916666D02*
X101976190Y-134250000D01*
X102452380Y-134488095D02*
X101452380Y-134488095D01*
X101452380Y-134107142D01*
X101500000Y-134011904D01*
X101547619Y-133964285D01*
X101642857Y-133916666D01*
X101785714Y-133916666D01*
X101880952Y-133964285D01*
X101928571Y-134011904D01*
X101976190Y-134107142D01*
X101976190Y-134488095D01*
X101452380Y-133583333D02*
X101452380Y-132916666D01*
X102452380Y-133345238D01*
%TO.C,R6*%
X137952380Y-133916666D02*
X137476190Y-134250000D01*
X137952380Y-134488095D02*
X136952380Y-134488095D01*
X136952380Y-134107142D01*
X137000000Y-134011904D01*
X137047619Y-133964285D01*
X137142857Y-133916666D01*
X137285714Y-133916666D01*
X137380952Y-133964285D01*
X137428571Y-134011904D01*
X137476190Y-134107142D01*
X137476190Y-134488095D01*
X136952380Y-133059523D02*
X136952380Y-133250000D01*
X137000000Y-133345238D01*
X137047619Y-133392857D01*
X137190476Y-133488095D01*
X137380952Y-133535714D01*
X137761904Y-133535714D01*
X137857142Y-133488095D01*
X137904761Y-133440476D01*
X137952380Y-133345238D01*
X137952380Y-133154761D01*
X137904761Y-133059523D01*
X137857142Y-133011904D01*
X137761904Y-132964285D01*
X137523809Y-132964285D01*
X137428571Y-133011904D01*
X137380952Y-133059523D01*
X137333333Y-133154761D01*
X137333333Y-133345238D01*
X137380952Y-133440476D01*
X137428571Y-133488095D01*
X137523809Y-133535714D01*
%TO.C,R5*%
X105452380Y-133916666D02*
X104976190Y-134250000D01*
X105452380Y-134488095D02*
X104452380Y-134488095D01*
X104452380Y-134107142D01*
X104500000Y-134011904D01*
X104547619Y-133964285D01*
X104642857Y-133916666D01*
X104785714Y-133916666D01*
X104880952Y-133964285D01*
X104928571Y-134011904D01*
X104976190Y-134107142D01*
X104976190Y-134488095D01*
X104452380Y-133011904D02*
X104452380Y-133488095D01*
X104928571Y-133535714D01*
X104880952Y-133488095D01*
X104833333Y-133392857D01*
X104833333Y-133154761D01*
X104880952Y-133059523D01*
X104928571Y-133011904D01*
X105023809Y-132964285D01*
X105261904Y-132964285D01*
X105357142Y-133011904D01*
X105404761Y-133059523D01*
X105452380Y-133154761D01*
X105452380Y-133392857D01*
X105404761Y-133488095D01*
X105357142Y-133535714D01*
%TO.C,R4*%
X148833333Y-125702380D02*
X148500000Y-125226190D01*
X148261904Y-125702380D02*
X148261904Y-124702380D01*
X148642857Y-124702380D01*
X148738095Y-124750000D01*
X148785714Y-124797619D01*
X148833333Y-124892857D01*
X148833333Y-125035714D01*
X148785714Y-125130952D01*
X148738095Y-125178571D01*
X148642857Y-125226190D01*
X148261904Y-125226190D01*
X149690476Y-125035714D02*
X149690476Y-125702380D01*
X149452380Y-124654761D02*
X149214285Y-125369047D01*
X149833333Y-125369047D01*
%TO.C,R3*%
X125833333Y-125702380D02*
X125500000Y-125226190D01*
X125261904Y-125702380D02*
X125261904Y-124702380D01*
X125642857Y-124702380D01*
X125738095Y-124750000D01*
X125785714Y-124797619D01*
X125833333Y-124892857D01*
X125833333Y-125035714D01*
X125785714Y-125130952D01*
X125738095Y-125178571D01*
X125642857Y-125226190D01*
X125261904Y-125226190D01*
X126166666Y-124702380D02*
X126785714Y-124702380D01*
X126452380Y-125083333D01*
X126595238Y-125083333D01*
X126690476Y-125130952D01*
X126738095Y-125178571D01*
X126785714Y-125273809D01*
X126785714Y-125511904D01*
X126738095Y-125607142D01*
X126690476Y-125654761D01*
X126595238Y-125702380D01*
X126309523Y-125702380D01*
X126214285Y-125654761D01*
X126166666Y-125607142D01*
%TO.C,R2*%
X116083333Y-125702380D02*
X115750000Y-125226190D01*
X115511904Y-125702380D02*
X115511904Y-124702380D01*
X115892857Y-124702380D01*
X115988095Y-124750000D01*
X116035714Y-124797619D01*
X116083333Y-124892857D01*
X116083333Y-125035714D01*
X116035714Y-125130952D01*
X115988095Y-125178571D01*
X115892857Y-125226190D01*
X115511904Y-125226190D01*
X116464285Y-124797619D02*
X116511904Y-124750000D01*
X116607142Y-124702380D01*
X116845238Y-124702380D01*
X116940476Y-124750000D01*
X116988095Y-124797619D01*
X117035714Y-124892857D01*
X117035714Y-124988095D01*
X116988095Y-125130952D01*
X116416666Y-125702380D01*
X117035714Y-125702380D01*
%TO.C,R1*%
X93833333Y-125702380D02*
X93500000Y-125226190D01*
X93261904Y-125702380D02*
X93261904Y-124702380D01*
X93642857Y-124702380D01*
X93738095Y-124750000D01*
X93785714Y-124797619D01*
X93833333Y-124892857D01*
X93833333Y-125035714D01*
X93785714Y-125130952D01*
X93738095Y-125178571D01*
X93642857Y-125226190D01*
X93261904Y-125226190D01*
X94785714Y-125702380D02*
X94214285Y-125702380D01*
X94500000Y-125702380D02*
X94500000Y-124702380D01*
X94404761Y-124845238D01*
X94309523Y-124940476D01*
X94214285Y-124988095D01*
%TO.C,J5*%
X137166666Y-111202380D02*
X137166666Y-111916666D01*
X137119047Y-112059523D01*
X137023809Y-112154761D01*
X136880952Y-112202380D01*
X136785714Y-112202380D01*
X138119047Y-111202380D02*
X137642857Y-111202380D01*
X137595238Y-111678571D01*
X137642857Y-111630952D01*
X137738095Y-111583333D01*
X137976190Y-111583333D01*
X138071428Y-111630952D01*
X138119047Y-111678571D01*
X138166666Y-111773809D01*
X138166666Y-112011904D01*
X138119047Y-112107142D01*
X138071428Y-112154761D01*
X137976190Y-112202380D01*
X137738095Y-112202380D01*
X137642857Y-112154761D01*
X137595238Y-112107142D01*
%TO.C,J4*%
X104666666Y-111202380D02*
X104666666Y-111916666D01*
X104619047Y-112059523D01*
X104523809Y-112154761D01*
X104380952Y-112202380D01*
X104285714Y-112202380D01*
X105571428Y-111535714D02*
X105571428Y-112202380D01*
X105333333Y-111154761D02*
X105095238Y-111869047D01*
X105714285Y-111869047D01*
%TO.C,J3*%
X120916666Y-111202380D02*
X120916666Y-111916666D01*
X120869047Y-112059523D01*
X120773809Y-112154761D01*
X120630952Y-112202380D01*
X120535714Y-112202380D01*
X121297619Y-111202380D02*
X121916666Y-111202380D01*
X121583333Y-111583333D01*
X121726190Y-111583333D01*
X121821428Y-111630952D01*
X121869047Y-111678571D01*
X121916666Y-111773809D01*
X121916666Y-112011904D01*
X121869047Y-112107142D01*
X121821428Y-112154761D01*
X121726190Y-112202380D01*
X121440476Y-112202380D01*
X121345238Y-112154761D01*
X121297619Y-112107142D01*
%TD*%
M02*
