%TF.GenerationSoftware,KiCad,Pcbnew,(5.1.6-0)*%
%TF.CreationDate,2023-05-06T15:55:21-07:00*%
%TF.ProjectId,input_buffer_bal_XLR_combo_SMD_1206,696e7075-745f-4627-9566-6665725f6261,rev?*%
%TF.SameCoordinates,Original*%
%TF.FileFunction,Paste,Top*%
%TF.FilePolarity,Positive*%
%FSLAX46Y46*%
G04 Gerber Fmt 4.6, Leading zero omitted, Abs format (unit mm)*
G04 Created by KiCad (PCBNEW (5.1.6-0)) date 2023-05-06 15:55:21*
%MOMM*%
%LPD*%
G01*
G04 APERTURE LIST*
%ADD10R,1.100000X1.100000*%
G04 APERTURE END LIST*
%TO.C,C8*%
G36*
G01*
X144725000Y-121625000D02*
X144725000Y-122875000D01*
G75*
G02*
X144475000Y-123125000I-250000J0D01*
G01*
X143550000Y-123125000D01*
G75*
G02*
X143300000Y-122875000I0J250000D01*
G01*
X143300000Y-121625000D01*
G75*
G02*
X143550000Y-121375000I250000J0D01*
G01*
X144475000Y-121375000D01*
G75*
G02*
X144725000Y-121625000I0J-250000D01*
G01*
G37*
G36*
G01*
X147700000Y-121625000D02*
X147700000Y-122875000D01*
G75*
G02*
X147450000Y-123125000I-250000J0D01*
G01*
X146525000Y-123125000D01*
G75*
G02*
X146275000Y-122875000I0J250000D01*
G01*
X146275000Y-121625000D01*
G75*
G02*
X146525000Y-121375000I250000J0D01*
G01*
X147450000Y-121375000D01*
G75*
G02*
X147700000Y-121625000I0J-250000D01*
G01*
G37*
%TD*%
%TO.C,C7*%
G36*
G01*
X128475000Y-121625000D02*
X128475000Y-122875000D01*
G75*
G02*
X128225000Y-123125000I-250000J0D01*
G01*
X127300000Y-123125000D01*
G75*
G02*
X127050000Y-122875000I0J250000D01*
G01*
X127050000Y-121625000D01*
G75*
G02*
X127300000Y-121375000I250000J0D01*
G01*
X128225000Y-121375000D01*
G75*
G02*
X128475000Y-121625000I0J-250000D01*
G01*
G37*
G36*
G01*
X131450000Y-121625000D02*
X131450000Y-122875000D01*
G75*
G02*
X131200000Y-123125000I-250000J0D01*
G01*
X130275000Y-123125000D01*
G75*
G02*
X130025000Y-122875000I0J250000D01*
G01*
X130025000Y-121625000D01*
G75*
G02*
X130275000Y-121375000I250000J0D01*
G01*
X131200000Y-121375000D01*
G75*
G02*
X131450000Y-121625000I0J-250000D01*
G01*
G37*
%TD*%
%TO.C,C6*%
G36*
G01*
X111725000Y-121625000D02*
X111725000Y-122875000D01*
G75*
G02*
X111475000Y-123125000I-250000J0D01*
G01*
X110550000Y-123125000D01*
G75*
G02*
X110300000Y-122875000I0J250000D01*
G01*
X110300000Y-121625000D01*
G75*
G02*
X110550000Y-121375000I250000J0D01*
G01*
X111475000Y-121375000D01*
G75*
G02*
X111725000Y-121625000I0J-250000D01*
G01*
G37*
G36*
G01*
X114700000Y-121625000D02*
X114700000Y-122875000D01*
G75*
G02*
X114450000Y-123125000I-250000J0D01*
G01*
X113525000Y-123125000D01*
G75*
G02*
X113275000Y-122875000I0J250000D01*
G01*
X113275000Y-121625000D01*
G75*
G02*
X113525000Y-121375000I250000J0D01*
G01*
X114450000Y-121375000D01*
G75*
G02*
X114700000Y-121625000I0J-250000D01*
G01*
G37*
%TD*%
%TO.C,C5*%
G36*
G01*
X95975000Y-121625000D02*
X95975000Y-122875000D01*
G75*
G02*
X95725000Y-123125000I-250000J0D01*
G01*
X94800000Y-123125000D01*
G75*
G02*
X94550000Y-122875000I0J250000D01*
G01*
X94550000Y-121625000D01*
G75*
G02*
X94800000Y-121375000I250000J0D01*
G01*
X95725000Y-121375000D01*
G75*
G02*
X95975000Y-121625000I0J-250000D01*
G01*
G37*
G36*
G01*
X98950000Y-121625000D02*
X98950000Y-122875000D01*
G75*
G02*
X98700000Y-123125000I-250000J0D01*
G01*
X97775000Y-123125000D01*
G75*
G02*
X97525000Y-122875000I0J250000D01*
G01*
X97525000Y-121625000D01*
G75*
G02*
X97775000Y-121375000I250000J0D01*
G01*
X98700000Y-121375000D01*
G75*
G02*
X98950000Y-121625000I0J-250000D01*
G01*
G37*
%TD*%
%TO.C,C4*%
G36*
G01*
X135475000Y-125375000D02*
X135475000Y-126625000D01*
G75*
G02*
X135225000Y-126875000I-250000J0D01*
G01*
X134300000Y-126875000D01*
G75*
G02*
X134050000Y-126625000I0J250000D01*
G01*
X134050000Y-125375000D01*
G75*
G02*
X134300000Y-125125000I250000J0D01*
G01*
X135225000Y-125125000D01*
G75*
G02*
X135475000Y-125375000I0J-250000D01*
G01*
G37*
G36*
G01*
X138450000Y-125375000D02*
X138450000Y-126625000D01*
G75*
G02*
X138200000Y-126875000I-250000J0D01*
G01*
X137275000Y-126875000D01*
G75*
G02*
X137025000Y-126625000I0J250000D01*
G01*
X137025000Y-125375000D01*
G75*
G02*
X137275000Y-125125000I250000J0D01*
G01*
X138200000Y-125125000D01*
G75*
G02*
X138450000Y-125375000I0J-250000D01*
G01*
G37*
%TD*%
%TO.C,C3*%
G36*
G01*
X103225000Y-125375000D02*
X103225000Y-126625000D01*
G75*
G02*
X102975000Y-126875000I-250000J0D01*
G01*
X102050000Y-126875000D01*
G75*
G02*
X101800000Y-126625000I0J250000D01*
G01*
X101800000Y-125375000D01*
G75*
G02*
X102050000Y-125125000I250000J0D01*
G01*
X102975000Y-125125000D01*
G75*
G02*
X103225000Y-125375000I0J-250000D01*
G01*
G37*
G36*
G01*
X106200000Y-125375000D02*
X106200000Y-126625000D01*
G75*
G02*
X105950000Y-126875000I-250000J0D01*
G01*
X105025000Y-126875000D01*
G75*
G02*
X104775000Y-126625000I0J250000D01*
G01*
X104775000Y-125375000D01*
G75*
G02*
X105025000Y-125125000I250000J0D01*
G01*
X105950000Y-125125000D01*
G75*
G02*
X106200000Y-125375000I0J-250000D01*
G01*
G37*
%TD*%
%TO.C,C2*%
G36*
G01*
X137725000Y-116375000D02*
X137725000Y-117625000D01*
G75*
G02*
X137475000Y-117875000I-250000J0D01*
G01*
X136550000Y-117875000D01*
G75*
G02*
X136300000Y-117625000I0J250000D01*
G01*
X136300000Y-116375000D01*
G75*
G02*
X136550000Y-116125000I250000J0D01*
G01*
X137475000Y-116125000D01*
G75*
G02*
X137725000Y-116375000I0J-250000D01*
G01*
G37*
G36*
G01*
X140700000Y-116375000D02*
X140700000Y-117625000D01*
G75*
G02*
X140450000Y-117875000I-250000J0D01*
G01*
X139525000Y-117875000D01*
G75*
G02*
X139275000Y-117625000I0J250000D01*
G01*
X139275000Y-116375000D01*
G75*
G02*
X139525000Y-116125000I250000J0D01*
G01*
X140450000Y-116125000D01*
G75*
G02*
X140700000Y-116375000I0J-250000D01*
G01*
G37*
%TD*%
%TO.C,C1*%
G36*
G01*
X105225000Y-116375000D02*
X105225000Y-117625000D01*
G75*
G02*
X104975000Y-117875000I-250000J0D01*
G01*
X104050000Y-117875000D01*
G75*
G02*
X103800000Y-117625000I0J250000D01*
G01*
X103800000Y-116375000D01*
G75*
G02*
X104050000Y-116125000I250000J0D01*
G01*
X104975000Y-116125000D01*
G75*
G02*
X105225000Y-116375000I0J-250000D01*
G01*
G37*
G36*
G01*
X108200000Y-116375000D02*
X108200000Y-117625000D01*
G75*
G02*
X107950000Y-117875000I-250000J0D01*
G01*
X107025000Y-117875000D01*
G75*
G02*
X106775000Y-117625000I0J250000D01*
G01*
X106775000Y-116375000D01*
G75*
G02*
X107025000Y-116125000I250000J0D01*
G01*
X107950000Y-116125000D01*
G75*
G02*
X108200000Y-116375000I0J-250000D01*
G01*
G37*
%TD*%
D10*
%TO.C,D4*%
X146900000Y-128250000D03*
X144100000Y-128250000D03*
%TD*%
%TO.C,D3*%
X130650000Y-128250000D03*
X127850000Y-128250000D03*
%TD*%
%TO.C,D2*%
X113900000Y-128250000D03*
X111100000Y-128250000D03*
%TD*%
%TO.C,D1*%
X98150000Y-128250000D03*
X95350000Y-128250000D03*
%TD*%
%TO.C,U2*%
G36*
G01*
X139000000Y-119745000D02*
X139000000Y-119445000D01*
G75*
G02*
X139150000Y-119295000I150000J0D01*
G01*
X140800000Y-119295000D01*
G75*
G02*
X140950000Y-119445000I0J-150000D01*
G01*
X140950000Y-119745000D01*
G75*
G02*
X140800000Y-119895000I-150000J0D01*
G01*
X139150000Y-119895000D01*
G75*
G02*
X139000000Y-119745000I0J150000D01*
G01*
G37*
G36*
G01*
X139000000Y-121015000D02*
X139000000Y-120715000D01*
G75*
G02*
X139150000Y-120565000I150000J0D01*
G01*
X140800000Y-120565000D01*
G75*
G02*
X140950000Y-120715000I0J-150000D01*
G01*
X140950000Y-121015000D01*
G75*
G02*
X140800000Y-121165000I-150000J0D01*
G01*
X139150000Y-121165000D01*
G75*
G02*
X139000000Y-121015000I0J150000D01*
G01*
G37*
G36*
G01*
X139000000Y-122285000D02*
X139000000Y-121985000D01*
G75*
G02*
X139150000Y-121835000I150000J0D01*
G01*
X140800000Y-121835000D01*
G75*
G02*
X140950000Y-121985000I0J-150000D01*
G01*
X140950000Y-122285000D01*
G75*
G02*
X140800000Y-122435000I-150000J0D01*
G01*
X139150000Y-122435000D01*
G75*
G02*
X139000000Y-122285000I0J150000D01*
G01*
G37*
G36*
G01*
X139000000Y-123555000D02*
X139000000Y-123255000D01*
G75*
G02*
X139150000Y-123105000I150000J0D01*
G01*
X140800000Y-123105000D01*
G75*
G02*
X140950000Y-123255000I0J-150000D01*
G01*
X140950000Y-123555000D01*
G75*
G02*
X140800000Y-123705000I-150000J0D01*
G01*
X139150000Y-123705000D01*
G75*
G02*
X139000000Y-123555000I0J150000D01*
G01*
G37*
G36*
G01*
X134050000Y-123555000D02*
X134050000Y-123255000D01*
G75*
G02*
X134200000Y-123105000I150000J0D01*
G01*
X135850000Y-123105000D01*
G75*
G02*
X136000000Y-123255000I0J-150000D01*
G01*
X136000000Y-123555000D01*
G75*
G02*
X135850000Y-123705000I-150000J0D01*
G01*
X134200000Y-123705000D01*
G75*
G02*
X134050000Y-123555000I0J150000D01*
G01*
G37*
G36*
G01*
X134050000Y-122285000D02*
X134050000Y-121985000D01*
G75*
G02*
X134200000Y-121835000I150000J0D01*
G01*
X135850000Y-121835000D01*
G75*
G02*
X136000000Y-121985000I0J-150000D01*
G01*
X136000000Y-122285000D01*
G75*
G02*
X135850000Y-122435000I-150000J0D01*
G01*
X134200000Y-122435000D01*
G75*
G02*
X134050000Y-122285000I0J150000D01*
G01*
G37*
G36*
G01*
X134050000Y-121015000D02*
X134050000Y-120715000D01*
G75*
G02*
X134200000Y-120565000I150000J0D01*
G01*
X135850000Y-120565000D01*
G75*
G02*
X136000000Y-120715000I0J-150000D01*
G01*
X136000000Y-121015000D01*
G75*
G02*
X135850000Y-121165000I-150000J0D01*
G01*
X134200000Y-121165000D01*
G75*
G02*
X134050000Y-121015000I0J150000D01*
G01*
G37*
G36*
G01*
X134050000Y-119745000D02*
X134050000Y-119445000D01*
G75*
G02*
X134200000Y-119295000I150000J0D01*
G01*
X135850000Y-119295000D01*
G75*
G02*
X136000000Y-119445000I0J-150000D01*
G01*
X136000000Y-119745000D01*
G75*
G02*
X135850000Y-119895000I-150000J0D01*
G01*
X134200000Y-119895000D01*
G75*
G02*
X134050000Y-119745000I0J150000D01*
G01*
G37*
%TD*%
%TO.C,U1*%
G36*
G01*
X106500000Y-119745000D02*
X106500000Y-119445000D01*
G75*
G02*
X106650000Y-119295000I150000J0D01*
G01*
X108300000Y-119295000D01*
G75*
G02*
X108450000Y-119445000I0J-150000D01*
G01*
X108450000Y-119745000D01*
G75*
G02*
X108300000Y-119895000I-150000J0D01*
G01*
X106650000Y-119895000D01*
G75*
G02*
X106500000Y-119745000I0J150000D01*
G01*
G37*
G36*
G01*
X106500000Y-121015000D02*
X106500000Y-120715000D01*
G75*
G02*
X106650000Y-120565000I150000J0D01*
G01*
X108300000Y-120565000D01*
G75*
G02*
X108450000Y-120715000I0J-150000D01*
G01*
X108450000Y-121015000D01*
G75*
G02*
X108300000Y-121165000I-150000J0D01*
G01*
X106650000Y-121165000D01*
G75*
G02*
X106500000Y-121015000I0J150000D01*
G01*
G37*
G36*
G01*
X106500000Y-122285000D02*
X106500000Y-121985000D01*
G75*
G02*
X106650000Y-121835000I150000J0D01*
G01*
X108300000Y-121835000D01*
G75*
G02*
X108450000Y-121985000I0J-150000D01*
G01*
X108450000Y-122285000D01*
G75*
G02*
X108300000Y-122435000I-150000J0D01*
G01*
X106650000Y-122435000D01*
G75*
G02*
X106500000Y-122285000I0J150000D01*
G01*
G37*
G36*
G01*
X106500000Y-123555000D02*
X106500000Y-123255000D01*
G75*
G02*
X106650000Y-123105000I150000J0D01*
G01*
X108300000Y-123105000D01*
G75*
G02*
X108450000Y-123255000I0J-150000D01*
G01*
X108450000Y-123555000D01*
G75*
G02*
X108300000Y-123705000I-150000J0D01*
G01*
X106650000Y-123705000D01*
G75*
G02*
X106500000Y-123555000I0J150000D01*
G01*
G37*
G36*
G01*
X101550000Y-123555000D02*
X101550000Y-123255000D01*
G75*
G02*
X101700000Y-123105000I150000J0D01*
G01*
X103350000Y-123105000D01*
G75*
G02*
X103500000Y-123255000I0J-150000D01*
G01*
X103500000Y-123555000D01*
G75*
G02*
X103350000Y-123705000I-150000J0D01*
G01*
X101700000Y-123705000D01*
G75*
G02*
X101550000Y-123555000I0J150000D01*
G01*
G37*
G36*
G01*
X101550000Y-122285000D02*
X101550000Y-121985000D01*
G75*
G02*
X101700000Y-121835000I150000J0D01*
G01*
X103350000Y-121835000D01*
G75*
G02*
X103500000Y-121985000I0J-150000D01*
G01*
X103500000Y-122285000D01*
G75*
G02*
X103350000Y-122435000I-150000J0D01*
G01*
X101700000Y-122435000D01*
G75*
G02*
X101550000Y-122285000I0J150000D01*
G01*
G37*
G36*
G01*
X101550000Y-121015000D02*
X101550000Y-120715000D01*
G75*
G02*
X101700000Y-120565000I150000J0D01*
G01*
X103350000Y-120565000D01*
G75*
G02*
X103500000Y-120715000I0J-150000D01*
G01*
X103500000Y-121015000D01*
G75*
G02*
X103350000Y-121165000I-150000J0D01*
G01*
X101700000Y-121165000D01*
G75*
G02*
X101550000Y-121015000I0J150000D01*
G01*
G37*
G36*
G01*
X101550000Y-119745000D02*
X101550000Y-119445000D01*
G75*
G02*
X101700000Y-119295000I150000J0D01*
G01*
X103350000Y-119295000D01*
G75*
G02*
X103500000Y-119445000I0J-150000D01*
G01*
X103500000Y-119745000D01*
G75*
G02*
X103350000Y-119895000I-150000J0D01*
G01*
X101700000Y-119895000D01*
G75*
G02*
X101550000Y-119745000I0J150000D01*
G01*
G37*
%TD*%
%TO.C,R10*%
G36*
G01*
X141125000Y-130725000D02*
X139875000Y-130725000D01*
G75*
G02*
X139625000Y-130475000I0J250000D01*
G01*
X139625000Y-129725000D01*
G75*
G02*
X139875000Y-129475000I250000J0D01*
G01*
X141125000Y-129475000D01*
G75*
G02*
X141375000Y-129725000I0J-250000D01*
G01*
X141375000Y-130475000D01*
G75*
G02*
X141125000Y-130725000I-250000J0D01*
G01*
G37*
G36*
G01*
X141125000Y-133525000D02*
X139875000Y-133525000D01*
G75*
G02*
X139625000Y-133275000I0J250000D01*
G01*
X139625000Y-132525000D01*
G75*
G02*
X139875000Y-132275000I250000J0D01*
G01*
X141125000Y-132275000D01*
G75*
G02*
X141375000Y-132525000I0J-250000D01*
G01*
X141375000Y-133275000D01*
G75*
G02*
X141125000Y-133525000I-250000J0D01*
G01*
G37*
%TD*%
%TO.C,R9*%
G36*
G01*
X133875000Y-132275000D02*
X135125000Y-132275000D01*
G75*
G02*
X135375000Y-132525000I0J-250000D01*
G01*
X135375000Y-133275000D01*
G75*
G02*
X135125000Y-133525000I-250000J0D01*
G01*
X133875000Y-133525000D01*
G75*
G02*
X133625000Y-133275000I0J250000D01*
G01*
X133625000Y-132525000D01*
G75*
G02*
X133875000Y-132275000I250000J0D01*
G01*
G37*
G36*
G01*
X133875000Y-129475000D02*
X135125000Y-129475000D01*
G75*
G02*
X135375000Y-129725000I0J-250000D01*
G01*
X135375000Y-130475000D01*
G75*
G02*
X135125000Y-130725000I-250000J0D01*
G01*
X133875000Y-130725000D01*
G75*
G02*
X133625000Y-130475000I0J250000D01*
G01*
X133625000Y-129725000D01*
G75*
G02*
X133875000Y-129475000I250000J0D01*
G01*
G37*
%TD*%
%TO.C,R8*%
G36*
G01*
X108625000Y-130725000D02*
X107375000Y-130725000D01*
G75*
G02*
X107125000Y-130475000I0J250000D01*
G01*
X107125000Y-129725000D01*
G75*
G02*
X107375000Y-129475000I250000J0D01*
G01*
X108625000Y-129475000D01*
G75*
G02*
X108875000Y-129725000I0J-250000D01*
G01*
X108875000Y-130475000D01*
G75*
G02*
X108625000Y-130725000I-250000J0D01*
G01*
G37*
G36*
G01*
X108625000Y-133525000D02*
X107375000Y-133525000D01*
G75*
G02*
X107125000Y-133275000I0J250000D01*
G01*
X107125000Y-132525000D01*
G75*
G02*
X107375000Y-132275000I250000J0D01*
G01*
X108625000Y-132275000D01*
G75*
G02*
X108875000Y-132525000I0J-250000D01*
G01*
X108875000Y-133275000D01*
G75*
G02*
X108625000Y-133525000I-250000J0D01*
G01*
G37*
%TD*%
%TO.C,R7*%
G36*
G01*
X101375000Y-132275000D02*
X102625000Y-132275000D01*
G75*
G02*
X102875000Y-132525000I0J-250000D01*
G01*
X102875000Y-133275000D01*
G75*
G02*
X102625000Y-133525000I-250000J0D01*
G01*
X101375000Y-133525000D01*
G75*
G02*
X101125000Y-133275000I0J250000D01*
G01*
X101125000Y-132525000D01*
G75*
G02*
X101375000Y-132275000I250000J0D01*
G01*
G37*
G36*
G01*
X101375000Y-129475000D02*
X102625000Y-129475000D01*
G75*
G02*
X102875000Y-129725000I0J-250000D01*
G01*
X102875000Y-130475000D01*
G75*
G02*
X102625000Y-130725000I-250000J0D01*
G01*
X101375000Y-130725000D01*
G75*
G02*
X101125000Y-130475000I0J250000D01*
G01*
X101125000Y-129725000D01*
G75*
G02*
X101375000Y-129475000I250000J0D01*
G01*
G37*
%TD*%
%TO.C,R6*%
G36*
G01*
X138125000Y-130725000D02*
X136875000Y-130725000D01*
G75*
G02*
X136625000Y-130475000I0J250000D01*
G01*
X136625000Y-129725000D01*
G75*
G02*
X136875000Y-129475000I250000J0D01*
G01*
X138125000Y-129475000D01*
G75*
G02*
X138375000Y-129725000I0J-250000D01*
G01*
X138375000Y-130475000D01*
G75*
G02*
X138125000Y-130725000I-250000J0D01*
G01*
G37*
G36*
G01*
X138125000Y-133525000D02*
X136875000Y-133525000D01*
G75*
G02*
X136625000Y-133275000I0J250000D01*
G01*
X136625000Y-132525000D01*
G75*
G02*
X136875000Y-132275000I250000J0D01*
G01*
X138125000Y-132275000D01*
G75*
G02*
X138375000Y-132525000I0J-250000D01*
G01*
X138375000Y-133275000D01*
G75*
G02*
X138125000Y-133525000I-250000J0D01*
G01*
G37*
%TD*%
%TO.C,R5*%
G36*
G01*
X105625000Y-130725000D02*
X104375000Y-130725000D01*
G75*
G02*
X104125000Y-130475000I0J250000D01*
G01*
X104125000Y-129725000D01*
G75*
G02*
X104375000Y-129475000I250000J0D01*
G01*
X105625000Y-129475000D01*
G75*
G02*
X105875000Y-129725000I0J-250000D01*
G01*
X105875000Y-130475000D01*
G75*
G02*
X105625000Y-130725000I-250000J0D01*
G01*
G37*
G36*
G01*
X105625000Y-133525000D02*
X104375000Y-133525000D01*
G75*
G02*
X104125000Y-133275000I0J250000D01*
G01*
X104125000Y-132525000D01*
G75*
G02*
X104375000Y-132275000I250000J0D01*
G01*
X105625000Y-132275000D01*
G75*
G02*
X105875000Y-132525000I0J-250000D01*
G01*
X105875000Y-133275000D01*
G75*
G02*
X105625000Y-133525000I-250000J0D01*
G01*
G37*
%TD*%
%TO.C,R4*%
G36*
G01*
X146275000Y-125875000D02*
X146275000Y-124625000D01*
G75*
G02*
X146525000Y-124375000I250000J0D01*
G01*
X147275000Y-124375000D01*
G75*
G02*
X147525000Y-124625000I0J-250000D01*
G01*
X147525000Y-125875000D01*
G75*
G02*
X147275000Y-126125000I-250000J0D01*
G01*
X146525000Y-126125000D01*
G75*
G02*
X146275000Y-125875000I0J250000D01*
G01*
G37*
G36*
G01*
X143475000Y-125875000D02*
X143475000Y-124625000D01*
G75*
G02*
X143725000Y-124375000I250000J0D01*
G01*
X144475000Y-124375000D01*
G75*
G02*
X144725000Y-124625000I0J-250000D01*
G01*
X144725000Y-125875000D01*
G75*
G02*
X144475000Y-126125000I-250000J0D01*
G01*
X143725000Y-126125000D01*
G75*
G02*
X143475000Y-125875000I0J250000D01*
G01*
G37*
%TD*%
%TO.C,R3*%
G36*
G01*
X128475000Y-124625000D02*
X128475000Y-125875000D01*
G75*
G02*
X128225000Y-126125000I-250000J0D01*
G01*
X127475000Y-126125000D01*
G75*
G02*
X127225000Y-125875000I0J250000D01*
G01*
X127225000Y-124625000D01*
G75*
G02*
X127475000Y-124375000I250000J0D01*
G01*
X128225000Y-124375000D01*
G75*
G02*
X128475000Y-124625000I0J-250000D01*
G01*
G37*
G36*
G01*
X131275000Y-124625000D02*
X131275000Y-125875000D01*
G75*
G02*
X131025000Y-126125000I-250000J0D01*
G01*
X130275000Y-126125000D01*
G75*
G02*
X130025000Y-125875000I0J250000D01*
G01*
X130025000Y-124625000D01*
G75*
G02*
X130275000Y-124375000I250000J0D01*
G01*
X131025000Y-124375000D01*
G75*
G02*
X131275000Y-124625000I0J-250000D01*
G01*
G37*
%TD*%
%TO.C,R2*%
G36*
G01*
X113275000Y-125875000D02*
X113275000Y-124625000D01*
G75*
G02*
X113525000Y-124375000I250000J0D01*
G01*
X114275000Y-124375000D01*
G75*
G02*
X114525000Y-124625000I0J-250000D01*
G01*
X114525000Y-125875000D01*
G75*
G02*
X114275000Y-126125000I-250000J0D01*
G01*
X113525000Y-126125000D01*
G75*
G02*
X113275000Y-125875000I0J250000D01*
G01*
G37*
G36*
G01*
X110475000Y-125875000D02*
X110475000Y-124625000D01*
G75*
G02*
X110725000Y-124375000I250000J0D01*
G01*
X111475000Y-124375000D01*
G75*
G02*
X111725000Y-124625000I0J-250000D01*
G01*
X111725000Y-125875000D01*
G75*
G02*
X111475000Y-126125000I-250000J0D01*
G01*
X110725000Y-126125000D01*
G75*
G02*
X110475000Y-125875000I0J250000D01*
G01*
G37*
%TD*%
%TO.C,R1*%
G36*
G01*
X95975000Y-124625000D02*
X95975000Y-125875000D01*
G75*
G02*
X95725000Y-126125000I-250000J0D01*
G01*
X94975000Y-126125000D01*
G75*
G02*
X94725000Y-125875000I0J250000D01*
G01*
X94725000Y-124625000D01*
G75*
G02*
X94975000Y-124375000I250000J0D01*
G01*
X95725000Y-124375000D01*
G75*
G02*
X95975000Y-124625000I0J-250000D01*
G01*
G37*
G36*
G01*
X98775000Y-124625000D02*
X98775000Y-125875000D01*
G75*
G02*
X98525000Y-126125000I-250000J0D01*
G01*
X97775000Y-126125000D01*
G75*
G02*
X97525000Y-125875000I0J250000D01*
G01*
X97525000Y-124625000D01*
G75*
G02*
X97775000Y-124375000I250000J0D01*
G01*
X98525000Y-124375000D01*
G75*
G02*
X98775000Y-124625000I0J-250000D01*
G01*
G37*
%TD*%
M02*
