%TF.GenerationSoftware,KiCad,Pcbnew,(5.1.6-0)*%
%TF.CreationDate,2023-04-14T20:26:11-07:00*%
%TF.ProjectId,input_buffer_bal_XLR_combo_SMD_1206,696e7075-745f-4627-9566-6665725f6261,rev?*%
%TF.SameCoordinates,Original*%
%TF.FileFunction,Copper,L2,Bot*%
%TF.FilePolarity,Positive*%
%FSLAX46Y46*%
G04 Gerber Fmt 4.6, Leading zero omitted, Abs format (unit mm)*
G04 Created by KiCad (PCBNEW (5.1.6-0)) date 2023-04-14 20:26:11*
%MOMM*%
%LPD*%
G01*
G04 APERTURE LIST*
%TA.AperFunction,ComponentPad*%
%ADD10C,3.200000*%
%TD*%
%TA.AperFunction,ComponentPad*%
%ADD11C,2.400000*%
%TD*%
%TA.AperFunction,ComponentPad*%
%ADD12C,0.800000*%
%TD*%
%TA.AperFunction,ComponentPad*%
%ADD13C,7.000000*%
%TD*%
%TA.AperFunction,ComponentPad*%
%ADD14C,2.000000*%
%TD*%
%TA.AperFunction,ViaPad*%
%ADD15C,0.700000*%
%TD*%
%TA.AperFunction,Conductor*%
%ADD16C,0.500000*%
%TD*%
%TA.AperFunction,Conductor*%
%ADD17C,0.300000*%
%TD*%
G04 APERTURE END LIST*
D10*
%TO.P,J1,G*%
%TO.N,GND*%
X113270000Y-153180000D03*
%TO.P,J1,T*%
%TO.N,Net-(D1-Pad1)*%
X109460000Y-144290000D03*
X100570000Y-144290000D03*
D11*
%TO.P,J1,R*%
%TO.N,Net-(D2-Pad2)*%
X102157500Y-137305000D03*
%TO.P,J1,S*%
%TO.N,GND*%
X107872500Y-137305000D03*
%TO.P,J1,3*%
%TO.N,Net-(D2-Pad2)*%
X105015000Y-136670000D03*
%TO.P,J1,2*%
%TO.N,Net-(D1-Pad1)*%
X98030000Y-141115000D03*
%TO.P,J1,1*%
%TO.N,GND*%
X112000000Y-141750000D03*
%TD*%
D10*
%TO.P,J2,G*%
%TO.N,GND*%
X145770000Y-153180000D03*
%TO.P,J2,T*%
%TO.N,Net-(D3-Pad1)*%
X141960000Y-144290000D03*
X133070000Y-144290000D03*
D11*
%TO.P,J2,R*%
%TO.N,Net-(D4-Pad2)*%
X134657500Y-137305000D03*
%TO.P,J2,S*%
%TO.N,GND*%
X140372500Y-137305000D03*
%TO.P,J2,3*%
%TO.N,Net-(D4-Pad2)*%
X137515000Y-136670000D03*
%TO.P,J2,2*%
%TO.N,Net-(D3-Pad1)*%
X130530000Y-141115000D03*
%TO.P,J2,1*%
%TO.N,GND*%
X144500000Y-141750000D03*
%TD*%
D12*
%TO.P,H2,1*%
%TO.N,N/C*%
X150606155Y-106893845D03*
X148750000Y-106125000D03*
X146893845Y-106893845D03*
X146125000Y-108750000D03*
X146893845Y-110606155D03*
X148750000Y-111375000D03*
X150606155Y-110606155D03*
X151375000Y-108750000D03*
D13*
X148750000Y-108750000D03*
%TD*%
D12*
%TO.P,H1,1*%
%TO.N,N/C*%
X95606155Y-106893845D03*
X93750000Y-106125000D03*
X91893845Y-106893845D03*
X91125000Y-108750000D03*
X91893845Y-110606155D03*
X93750000Y-111375000D03*
X95606155Y-110606155D03*
X96375000Y-108750000D03*
D13*
X93750000Y-108750000D03*
%TD*%
D14*
%TO.P,J5,3*%
%TO.N,GND*%
X134000000Y-109250000D03*
%TO.P,J5,2*%
%TO.N,Net-(J5-Pad2)*%
X137500000Y-109250000D03*
%TO.P,J5,1*%
%TO.N,Net-(J5-Pad1)*%
X141000000Y-109250000D03*
%TD*%
%TO.P,J4,3*%
%TO.N,GND*%
X101500000Y-109250000D03*
%TO.P,J4,2*%
%TO.N,Net-(J4-Pad2)*%
X105000000Y-109250000D03*
%TO.P,J4,1*%
%TO.N,Net-(J4-Pad1)*%
X108500000Y-109250000D03*
%TD*%
%TO.P,J3,3*%
%TO.N,+15V*%
X117750000Y-109250000D03*
%TO.P,J3,2*%
%TO.N,GND*%
X121250000Y-109250000D03*
%TO.P,J3,1*%
%TO.N,-15V*%
X124750000Y-109250000D03*
%TD*%
D15*
%TO.N,GND*%
X95500000Y-158250000D03*
X100750000Y-158250000D03*
X106750000Y-158250000D03*
X114000000Y-158250000D03*
X121651191Y-158250000D03*
X129500000Y-158250000D03*
X135651191Y-158250000D03*
X142000000Y-158250000D03*
X148250000Y-158250000D03*
X103325000Y-117000000D03*
X106750000Y-126000000D03*
X94750000Y-122250000D03*
X105000000Y-130250000D03*
X115250000Y-122250000D03*
X137500000Y-130250000D03*
X139000000Y-126000000D03*
X135750000Y-117000000D03*
X148250000Y-122250000D03*
X126750000Y-122250000D03*
X91651191Y-113492500D03*
X91651191Y-117492500D03*
X91651191Y-121492500D03*
X91651191Y-125492500D03*
X91651191Y-129492500D03*
X91651191Y-133492500D03*
X91651191Y-137492500D03*
X91651191Y-141492500D03*
X91651191Y-145492500D03*
X91651191Y-149492500D03*
X91651191Y-153492500D03*
X93651191Y-115492500D03*
X93651191Y-119492500D03*
X93651191Y-127492500D03*
X93651191Y-131492500D03*
X93651191Y-135492500D03*
X93651191Y-139492500D03*
X93651191Y-143492500D03*
X93651191Y-147492500D03*
X93651191Y-151492500D03*
X93651191Y-155492500D03*
X94651191Y-124492500D03*
X95651191Y-113492500D03*
X95651191Y-117492500D03*
X95651191Y-137492500D03*
X95651191Y-141492500D03*
X95651191Y-145492500D03*
X95651191Y-149492500D03*
X95651191Y-153492500D03*
X96651191Y-120492500D03*
X97651191Y-115492500D03*
X97651191Y-131492500D03*
X97651191Y-135492500D03*
X97651191Y-143492500D03*
X97651191Y-147492500D03*
X97651191Y-151492500D03*
X97651191Y-155492500D03*
X98651191Y-106492500D03*
X98651191Y-118492500D03*
X99651191Y-133492500D03*
X99651191Y-137492500D03*
X99651191Y-149492500D03*
X100651191Y-112492500D03*
X101651191Y-115492500D03*
X101651191Y-135492500D03*
X101651191Y-151492500D03*
X101651191Y-155492500D03*
X102651191Y-147492500D03*
X103651191Y-113492500D03*
X103651191Y-133492500D03*
X103651191Y-143492500D03*
X103651191Y-153492500D03*
X104651191Y-119492500D03*
X104651191Y-123492500D03*
X104651191Y-140492500D03*
X105651191Y-111492500D03*
X105651191Y-145492500D03*
X105651191Y-155492500D03*
X106651191Y-127492500D03*
X106651191Y-151492500D03*
X107651191Y-124492500D03*
X107651191Y-147492500D03*
X108651191Y-112492500D03*
X108651191Y-118492500D03*
X108651191Y-153492500D03*
X109651191Y-115492500D03*
X109651191Y-130492500D03*
X109651191Y-135492500D03*
X110651191Y-109492500D03*
X110651191Y-149492500D03*
X110651191Y-155492500D03*
X111651191Y-113492500D03*
X111651191Y-117492500D03*
X111651191Y-132492500D03*
X111651191Y-137492500D03*
X112651191Y-120492500D03*
X112651191Y-144492500D03*
X113651191Y-110492500D03*
X113651191Y-115492500D03*
X113651191Y-135492500D03*
X114651191Y-118492500D03*
X114651191Y-138492500D03*
X114651191Y-142492500D03*
X114651191Y-150492500D03*
X115651191Y-112492500D03*
X115651191Y-124492500D03*
X115651191Y-128492500D03*
X115651191Y-132492500D03*
X115651191Y-145492500D03*
X116651191Y-116492500D03*
X116651191Y-120492500D03*
X116651191Y-136492500D03*
X116651191Y-140492500D03*
X116651191Y-148492500D03*
X116651191Y-152492500D03*
X117651191Y-126492500D03*
X117651191Y-130492500D03*
X117651191Y-143492500D03*
X117651191Y-155492500D03*
X118651191Y-111492500D03*
X118651191Y-118492500D03*
X118651191Y-122492500D03*
X118651191Y-133492500D03*
X118651191Y-138492500D03*
X118651191Y-146492500D03*
X118651191Y-150492500D03*
X119651191Y-114492500D03*
X119651191Y-128492500D03*
X119651191Y-141492500D03*
X119651191Y-153492500D03*
X120651191Y-120492500D03*
X120651191Y-124492500D03*
X120651191Y-131492500D03*
X120651191Y-135492500D03*
X120651191Y-144492500D03*
X120651191Y-148492500D03*
X121651191Y-112492500D03*
X121651191Y-116492500D03*
X121651191Y-139492500D03*
X121651191Y-151492500D03*
X121651191Y-155492500D03*
X122651191Y-122492500D03*
X122651191Y-126492500D03*
X122651191Y-133492500D03*
X122651191Y-142492500D03*
X122651191Y-146492500D03*
X123651191Y-114492500D03*
X123651191Y-118492500D03*
X123651191Y-129492500D03*
X123651191Y-136492500D03*
X123651191Y-149492500D03*
X123651191Y-153492500D03*
X124651191Y-111492500D03*
X124651191Y-124492500D03*
X124651191Y-140492500D03*
X124651191Y-144492500D03*
X125651191Y-116492500D03*
X125651191Y-120492500D03*
X125651191Y-127492500D03*
X125651191Y-131492500D03*
X125651191Y-147492500D03*
X125651191Y-151492500D03*
X125651191Y-155492500D03*
X126651191Y-106492500D03*
X126651191Y-113492500D03*
X126651191Y-134492500D03*
X126651191Y-138492500D03*
X126651191Y-142492500D03*
X127651191Y-109492500D03*
X127651191Y-118492500D03*
X127651191Y-145492500D03*
X127651191Y-149492500D03*
X127651191Y-153492500D03*
X128651191Y-115492500D03*
X128651191Y-140492500D03*
X129651191Y-111492500D03*
X129651191Y-120492500D03*
X129651191Y-131492500D03*
X129651191Y-135492500D03*
X129651191Y-143492500D03*
X129651191Y-147492500D03*
X129651191Y-151492500D03*
X129651191Y-155492500D03*
X130651191Y-106492500D03*
X130651191Y-117492500D03*
X131651191Y-109492500D03*
X131651191Y-113492500D03*
X131651191Y-133492500D03*
X131651191Y-137492500D03*
X131651191Y-149492500D03*
X132651191Y-130492500D03*
X133651191Y-115492500D03*
X133651191Y-135492500D03*
X133651191Y-151492500D03*
X133651191Y-155492500D03*
X134651191Y-106492500D03*
X134651191Y-148492500D03*
X135651191Y-113492500D03*
X135651191Y-133492500D03*
X135651191Y-153492500D03*
X136651191Y-119492500D03*
X136651191Y-123492500D03*
X136651191Y-140492500D03*
X137651191Y-111492500D03*
X137651191Y-146492500D03*
X137651191Y-155492500D03*
X138651191Y-106492500D03*
X138651191Y-114492500D03*
X138651191Y-152492500D03*
X139651191Y-124492500D03*
X139651191Y-148492500D03*
X140651191Y-154492500D03*
X141651191Y-112492500D03*
X141651191Y-116492500D03*
X141651191Y-133492500D03*
X142651191Y-106492500D03*
X142651191Y-130492500D03*
X142651191Y-138492500D03*
X142651191Y-147492500D03*
X143651191Y-109492500D03*
X143651191Y-150492500D03*
X143651191Y-155492500D03*
X144651191Y-113492500D03*
X144651191Y-117492500D03*
X144651191Y-132492500D03*
X145651191Y-120492500D03*
X145651191Y-136492500D03*
X146651191Y-115492500D03*
X146651191Y-142492500D03*
X147651191Y-118492500D03*
X147651191Y-134492500D03*
X147651191Y-138492500D03*
X147651191Y-145492500D03*
X147651191Y-150492500D03*
X148651191Y-113492500D03*
X148651191Y-124492500D03*
X148651191Y-128492500D03*
X149651191Y-116492500D03*
X149651191Y-120492500D03*
X149651191Y-131492500D03*
X149651191Y-136492500D03*
X149651191Y-140492500D03*
X149651191Y-147492500D03*
X149651191Y-152492500D03*
X150651191Y-126492500D03*
X150651191Y-143492500D03*
X150651191Y-155492500D03*
X101400000Y-124300000D03*
X99525000Y-120725000D03*
X131750000Y-120500000D03*
X133650000Y-124175000D03*
X147651191Y-154492500D03*
X112000000Y-128250000D03*
X98000000Y-128250000D03*
X145000000Y-128250000D03*
X130000000Y-128250000D03*
%TO.N,-15V*%
X132750000Y-120500000D03*
X132750000Y-123500000D03*
X124750000Y-106500000D03*
X100500000Y-121000000D03*
X100500000Y-123750000D03*
%TD*%
D16*
%TO.N,-15V*%
X132750000Y-120500000D02*
X132750000Y-123500000D01*
X124750000Y-109250000D02*
X124750000Y-106500000D01*
X100500000Y-121000000D02*
X100500000Y-123750000D01*
%TD*%
D17*
%TO.N,GND*%
G36*
X146232022Y-105681835D02*
G01*
X145681835Y-106232022D01*
X145249556Y-106878974D01*
X144951797Y-107597828D01*
X144800000Y-108360959D01*
X144800000Y-109139041D01*
X144951797Y-109902172D01*
X145249556Y-110621026D01*
X145681835Y-111267978D01*
X146232022Y-111818165D01*
X146878974Y-112250444D01*
X147597828Y-112548203D01*
X148360959Y-112700000D01*
X149139041Y-112700000D01*
X149902172Y-112548203D01*
X150621026Y-112250444D01*
X151267978Y-111818165D01*
X151818165Y-111267978D01*
X152025001Y-110958426D01*
X152025000Y-157476769D01*
X151984200Y-157892881D01*
X151870099Y-158270801D01*
X151684769Y-158619356D01*
X151435263Y-158925281D01*
X151131093Y-159176912D01*
X150783834Y-159364674D01*
X150406727Y-159481408D01*
X149991978Y-159525000D01*
X92523231Y-159525000D01*
X92107119Y-159484200D01*
X91729199Y-159370099D01*
X91380644Y-159184769D01*
X91074719Y-158935263D01*
X90823088Y-158631093D01*
X90635326Y-158283834D01*
X90518592Y-157906727D01*
X90475000Y-157491978D01*
X90475000Y-153691886D01*
X98050000Y-153691886D01*
X98050000Y-153938114D01*
X98098037Y-154179611D01*
X98192265Y-154407097D01*
X98329062Y-154611828D01*
X98503172Y-154785938D01*
X98707903Y-154922735D01*
X98935389Y-155016963D01*
X99176886Y-155065000D01*
X99423114Y-155065000D01*
X99664611Y-155016963D01*
X99892097Y-154922735D01*
X100096828Y-154785938D01*
X100270938Y-154611828D01*
X100407735Y-154407097D01*
X100501963Y-154179611D01*
X100550000Y-153938114D01*
X100550000Y-153691886D01*
X109480000Y-153691886D01*
X109480000Y-153938114D01*
X109528037Y-154179611D01*
X109622265Y-154407097D01*
X109759062Y-154611828D01*
X109933172Y-154785938D01*
X110137903Y-154922735D01*
X110365389Y-155016963D01*
X110606886Y-155065000D01*
X110853114Y-155065000D01*
X111094611Y-155016963D01*
X111322097Y-154922735D01*
X111526828Y-154785938D01*
X111579957Y-154732809D01*
X111858613Y-154732809D01*
X112023286Y-155066084D01*
X112415198Y-155273066D01*
X112839960Y-155399612D01*
X113281247Y-155440859D01*
X113722104Y-155395223D01*
X114145585Y-155264457D01*
X114516714Y-155066084D01*
X114681387Y-154732809D01*
X113270000Y-153321421D01*
X111858613Y-154732809D01*
X111579957Y-154732809D01*
X111700938Y-154611828D01*
X111715240Y-154590423D01*
X111717191Y-154591387D01*
X113128579Y-153180000D01*
X113411421Y-153180000D01*
X114822809Y-154591387D01*
X115156084Y-154426714D01*
X115363066Y-154034802D01*
X115465228Y-153691886D01*
X130550000Y-153691886D01*
X130550000Y-153938114D01*
X130598037Y-154179611D01*
X130692265Y-154407097D01*
X130829062Y-154611828D01*
X131003172Y-154785938D01*
X131207903Y-154922735D01*
X131435389Y-155016963D01*
X131676886Y-155065000D01*
X131923114Y-155065000D01*
X132164611Y-155016963D01*
X132392097Y-154922735D01*
X132596828Y-154785938D01*
X132770938Y-154611828D01*
X132907735Y-154407097D01*
X133001963Y-154179611D01*
X133050000Y-153938114D01*
X133050000Y-153691886D01*
X141980000Y-153691886D01*
X141980000Y-153938114D01*
X142028037Y-154179611D01*
X142122265Y-154407097D01*
X142259062Y-154611828D01*
X142433172Y-154785938D01*
X142637903Y-154922735D01*
X142865389Y-155016963D01*
X143106886Y-155065000D01*
X143353114Y-155065000D01*
X143594611Y-155016963D01*
X143822097Y-154922735D01*
X144026828Y-154785938D01*
X144079957Y-154732809D01*
X144358613Y-154732809D01*
X144523286Y-155066084D01*
X144915198Y-155273066D01*
X145339960Y-155399612D01*
X145781247Y-155440859D01*
X146222104Y-155395223D01*
X146645585Y-155264457D01*
X147016714Y-155066084D01*
X147181387Y-154732809D01*
X145770000Y-153321421D01*
X144358613Y-154732809D01*
X144079957Y-154732809D01*
X144200938Y-154611828D01*
X144215240Y-154590423D01*
X144217191Y-154591387D01*
X145628579Y-153180000D01*
X145911421Y-153180000D01*
X147322809Y-154591387D01*
X147656084Y-154426714D01*
X147863066Y-154034802D01*
X147989612Y-153610040D01*
X148030859Y-153168753D01*
X147985223Y-152727896D01*
X147854457Y-152304415D01*
X147656084Y-151933286D01*
X147322809Y-151768613D01*
X145911421Y-153180000D01*
X145628579Y-153180000D01*
X144217191Y-151768613D01*
X143883916Y-151933286D01*
X143676934Y-152325198D01*
X143591372Y-152612393D01*
X143353114Y-152565000D01*
X143106886Y-152565000D01*
X142865389Y-152613037D01*
X142637903Y-152707265D01*
X142433172Y-152844062D01*
X142259062Y-153018172D01*
X142122265Y-153222903D01*
X142028037Y-153450389D01*
X141980000Y-153691886D01*
X133050000Y-153691886D01*
X133001963Y-153450389D01*
X132907735Y-153222903D01*
X132770938Y-153018172D01*
X132596828Y-152844062D01*
X132392097Y-152707265D01*
X132164611Y-152613037D01*
X131923114Y-152565000D01*
X131676886Y-152565000D01*
X131435389Y-152613037D01*
X131207903Y-152707265D01*
X131003172Y-152844062D01*
X130829062Y-153018172D01*
X130692265Y-153222903D01*
X130598037Y-153450389D01*
X130550000Y-153691886D01*
X115465228Y-153691886D01*
X115489612Y-153610040D01*
X115530859Y-153168753D01*
X115485223Y-152727896D01*
X115354457Y-152304415D01*
X115156084Y-151933286D01*
X114822809Y-151768613D01*
X113411421Y-153180000D01*
X113128579Y-153180000D01*
X111717191Y-151768613D01*
X111383916Y-151933286D01*
X111176934Y-152325198D01*
X111091372Y-152612393D01*
X110853114Y-152565000D01*
X110606886Y-152565000D01*
X110365389Y-152613037D01*
X110137903Y-152707265D01*
X109933172Y-152844062D01*
X109759062Y-153018172D01*
X109622265Y-153222903D01*
X109528037Y-153450389D01*
X109480000Y-153691886D01*
X100550000Y-153691886D01*
X100501963Y-153450389D01*
X100407735Y-153222903D01*
X100270938Y-153018172D01*
X100096828Y-152844062D01*
X99892097Y-152707265D01*
X99664611Y-152613037D01*
X99423114Y-152565000D01*
X99176886Y-152565000D01*
X98935389Y-152613037D01*
X98707903Y-152707265D01*
X98503172Y-152844062D01*
X98329062Y-153018172D01*
X98192265Y-153222903D01*
X98098037Y-153450389D01*
X98050000Y-153691886D01*
X90475000Y-153691886D01*
X90475000Y-150516886D01*
X103765000Y-150516886D01*
X103765000Y-150763114D01*
X103813037Y-151004611D01*
X103907265Y-151232097D01*
X104044062Y-151436828D01*
X104218172Y-151610938D01*
X104422903Y-151747735D01*
X104650389Y-151841963D01*
X104891886Y-151890000D01*
X105138114Y-151890000D01*
X105379611Y-151841963D01*
X105607097Y-151747735D01*
X105787503Y-151627191D01*
X111858613Y-151627191D01*
X113270000Y-153038579D01*
X114681387Y-151627191D01*
X114516714Y-151293916D01*
X114124802Y-151086934D01*
X113700040Y-150960388D01*
X113258753Y-150919141D01*
X112817896Y-150964777D01*
X112394415Y-151095543D01*
X112023286Y-151293916D01*
X111858613Y-151627191D01*
X105787503Y-151627191D01*
X105811828Y-151610938D01*
X105985938Y-151436828D01*
X106122735Y-151232097D01*
X106216963Y-151004611D01*
X106265000Y-150763114D01*
X106265000Y-150516886D01*
X136265000Y-150516886D01*
X136265000Y-150763114D01*
X136313037Y-151004611D01*
X136407265Y-151232097D01*
X136544062Y-151436828D01*
X136718172Y-151610938D01*
X136922903Y-151747735D01*
X137150389Y-151841963D01*
X137391886Y-151890000D01*
X137638114Y-151890000D01*
X137879611Y-151841963D01*
X138107097Y-151747735D01*
X138287503Y-151627191D01*
X144358613Y-151627191D01*
X145770000Y-153038579D01*
X147181387Y-151627191D01*
X147016714Y-151293916D01*
X146624802Y-151086934D01*
X146200040Y-150960388D01*
X145758753Y-150919141D01*
X145317896Y-150964777D01*
X144894415Y-151095543D01*
X144523286Y-151293916D01*
X144358613Y-151627191D01*
X138287503Y-151627191D01*
X138311828Y-151610938D01*
X138485938Y-151436828D01*
X138622735Y-151232097D01*
X138716963Y-151004611D01*
X138765000Y-150763114D01*
X138765000Y-150516886D01*
X138716963Y-150275389D01*
X138622735Y-150047903D01*
X138485938Y-149843172D01*
X138311828Y-149669062D01*
X138107097Y-149532265D01*
X137879611Y-149438037D01*
X137638114Y-149390000D01*
X137391886Y-149390000D01*
X137150389Y-149438037D01*
X136922903Y-149532265D01*
X136718172Y-149669062D01*
X136544062Y-149843172D01*
X136407265Y-150047903D01*
X136313037Y-150275389D01*
X136265000Y-150516886D01*
X106265000Y-150516886D01*
X106216963Y-150275389D01*
X106122735Y-150047903D01*
X105985938Y-149843172D01*
X105811828Y-149669062D01*
X105607097Y-149532265D01*
X105379611Y-149438037D01*
X105138114Y-149390000D01*
X104891886Y-149390000D01*
X104650389Y-149438037D01*
X104422903Y-149532265D01*
X104218172Y-149669062D01*
X104044062Y-149843172D01*
X103907265Y-150047903D01*
X103813037Y-150275389D01*
X103765000Y-150516886D01*
X90475000Y-150516886D01*
X90475000Y-144088093D01*
X98520000Y-144088093D01*
X98520000Y-144491907D01*
X98598780Y-144887963D01*
X98753314Y-145261039D01*
X98977661Y-145596799D01*
X99263201Y-145882339D01*
X99598961Y-146106686D01*
X99972037Y-146261220D01*
X100368093Y-146340000D01*
X100771907Y-146340000D01*
X101167963Y-146261220D01*
X101541039Y-146106686D01*
X101876799Y-145882339D01*
X102162339Y-145596799D01*
X102386686Y-145261039D01*
X102541220Y-144887963D01*
X102620000Y-144491907D01*
X102620000Y-144088093D01*
X107410000Y-144088093D01*
X107410000Y-144491907D01*
X107488780Y-144887963D01*
X107643314Y-145261039D01*
X107867661Y-145596799D01*
X108153201Y-145882339D01*
X108488961Y-146106686D01*
X108862037Y-146261220D01*
X109258093Y-146340000D01*
X109661907Y-146340000D01*
X110057963Y-146261220D01*
X110431039Y-146106686D01*
X110766799Y-145882339D01*
X111052339Y-145596799D01*
X111276686Y-145261039D01*
X111431220Y-144887963D01*
X111510000Y-144491907D01*
X111510000Y-144088093D01*
X131020000Y-144088093D01*
X131020000Y-144491907D01*
X131098780Y-144887963D01*
X131253314Y-145261039D01*
X131477661Y-145596799D01*
X131763201Y-145882339D01*
X132098961Y-146106686D01*
X132472037Y-146261220D01*
X132868093Y-146340000D01*
X133271907Y-146340000D01*
X133667963Y-146261220D01*
X134041039Y-146106686D01*
X134376799Y-145882339D01*
X134662339Y-145596799D01*
X134886686Y-145261039D01*
X135041220Y-144887963D01*
X135120000Y-144491907D01*
X135120000Y-144088093D01*
X139910000Y-144088093D01*
X139910000Y-144491907D01*
X139988780Y-144887963D01*
X140143314Y-145261039D01*
X140367661Y-145596799D01*
X140653201Y-145882339D01*
X140988961Y-146106686D01*
X141362037Y-146261220D01*
X141758093Y-146340000D01*
X142161907Y-146340000D01*
X142557963Y-146261220D01*
X142931039Y-146106686D01*
X143266799Y-145882339D01*
X143552339Y-145596799D01*
X143776686Y-145261039D01*
X143931220Y-144887963D01*
X144010000Y-144491907D01*
X144010000Y-144088093D01*
X143931220Y-143692037D01*
X143846287Y-143486992D01*
X144163902Y-143578315D01*
X144527047Y-143608755D01*
X144889152Y-143567762D01*
X145236302Y-143456915D01*
X145510180Y-143310524D01*
X145626775Y-143018197D01*
X144500000Y-141891421D01*
X144485858Y-141905564D01*
X144344436Y-141764142D01*
X144358579Y-141750000D01*
X144641421Y-141750000D01*
X145768197Y-142876775D01*
X146060524Y-142760180D01*
X146227615Y-142436326D01*
X146328315Y-142086098D01*
X146358755Y-141722953D01*
X146317762Y-141360848D01*
X146206915Y-141013698D01*
X146060524Y-140739820D01*
X145768197Y-140623225D01*
X144641421Y-141750000D01*
X144358579Y-141750000D01*
X143231803Y-140623225D01*
X142939476Y-140739820D01*
X142772385Y-141063674D01*
X142671685Y-141413902D01*
X142641245Y-141777047D01*
X142682238Y-142139152D01*
X142767279Y-142405482D01*
X142557963Y-142318780D01*
X142161907Y-142240000D01*
X141758093Y-142240000D01*
X141362037Y-142318780D01*
X140988961Y-142473314D01*
X140653201Y-142697661D01*
X140367661Y-142983201D01*
X140143314Y-143318961D01*
X139988780Y-143692037D01*
X139910000Y-144088093D01*
X135120000Y-144088093D01*
X135041220Y-143692037D01*
X134886686Y-143318961D01*
X134662339Y-142983201D01*
X134376799Y-142697661D01*
X134041039Y-142473314D01*
X133667963Y-142318780D01*
X133271907Y-142240000D01*
X132868093Y-142240000D01*
X132472037Y-142318780D01*
X132098961Y-142473314D01*
X131763201Y-142697661D01*
X131477661Y-142983201D01*
X131253314Y-143318961D01*
X131098780Y-143692037D01*
X131020000Y-144088093D01*
X111510000Y-144088093D01*
X111431220Y-143692037D01*
X111346287Y-143486992D01*
X111663902Y-143578315D01*
X112027047Y-143608755D01*
X112389152Y-143567762D01*
X112736302Y-143456915D01*
X113010180Y-143310524D01*
X113126775Y-143018197D01*
X112000000Y-141891421D01*
X111985858Y-141905564D01*
X111844436Y-141764142D01*
X111858579Y-141750000D01*
X112141421Y-141750000D01*
X113268197Y-142876775D01*
X113560524Y-142760180D01*
X113727615Y-142436326D01*
X113828315Y-142086098D01*
X113858755Y-141722953D01*
X113817762Y-141360848D01*
X113706915Y-141013698D01*
X113674199Y-140952489D01*
X128880000Y-140952489D01*
X128880000Y-141277511D01*
X128943408Y-141596287D01*
X129067789Y-141896568D01*
X129248361Y-142166814D01*
X129478186Y-142396639D01*
X129748432Y-142577211D01*
X130048713Y-142701592D01*
X130367489Y-142765000D01*
X130692511Y-142765000D01*
X131011287Y-142701592D01*
X131311568Y-142577211D01*
X131581814Y-142396639D01*
X131811639Y-142166814D01*
X131992211Y-141896568D01*
X132116592Y-141596287D01*
X132180000Y-141277511D01*
X132180000Y-140952489D01*
X132116592Y-140633713D01*
X132053669Y-140481803D01*
X143373225Y-140481803D01*
X144500000Y-141608579D01*
X145626775Y-140481803D01*
X145510180Y-140189476D01*
X145186326Y-140022385D01*
X144836098Y-139921685D01*
X144472953Y-139891245D01*
X144110848Y-139932238D01*
X143763698Y-140043085D01*
X143489820Y-140189476D01*
X143373225Y-140481803D01*
X132053669Y-140481803D01*
X131992211Y-140333432D01*
X131811639Y-140063186D01*
X131581814Y-139833361D01*
X131311568Y-139652789D01*
X131011287Y-139528408D01*
X130692511Y-139465000D01*
X130367489Y-139465000D01*
X130048713Y-139528408D01*
X129748432Y-139652789D01*
X129478186Y-139833361D01*
X129248361Y-140063186D01*
X129067789Y-140333432D01*
X128943408Y-140633713D01*
X128880000Y-140952489D01*
X113674199Y-140952489D01*
X113560524Y-140739820D01*
X113268197Y-140623225D01*
X112141421Y-141750000D01*
X111858579Y-141750000D01*
X110731803Y-140623225D01*
X110439476Y-140739820D01*
X110272385Y-141063674D01*
X110171685Y-141413902D01*
X110141245Y-141777047D01*
X110182238Y-142139152D01*
X110267279Y-142405482D01*
X110057963Y-142318780D01*
X109661907Y-142240000D01*
X109258093Y-142240000D01*
X108862037Y-142318780D01*
X108488961Y-142473314D01*
X108153201Y-142697661D01*
X107867661Y-142983201D01*
X107643314Y-143318961D01*
X107488780Y-143692037D01*
X107410000Y-144088093D01*
X102620000Y-144088093D01*
X102541220Y-143692037D01*
X102386686Y-143318961D01*
X102162339Y-142983201D01*
X101876799Y-142697661D01*
X101541039Y-142473314D01*
X101167963Y-142318780D01*
X100771907Y-142240000D01*
X100368093Y-142240000D01*
X99972037Y-142318780D01*
X99598961Y-142473314D01*
X99263201Y-142697661D01*
X98977661Y-142983201D01*
X98753314Y-143318961D01*
X98598780Y-143692037D01*
X98520000Y-144088093D01*
X90475000Y-144088093D01*
X90475000Y-140952489D01*
X96380000Y-140952489D01*
X96380000Y-141277511D01*
X96443408Y-141596287D01*
X96567789Y-141896568D01*
X96748361Y-142166814D01*
X96978186Y-142396639D01*
X97248432Y-142577211D01*
X97548713Y-142701592D01*
X97867489Y-142765000D01*
X98192511Y-142765000D01*
X98511287Y-142701592D01*
X98811568Y-142577211D01*
X99081814Y-142396639D01*
X99311639Y-142166814D01*
X99492211Y-141896568D01*
X99616592Y-141596287D01*
X99680000Y-141277511D01*
X99680000Y-140952489D01*
X99616592Y-140633713D01*
X99553669Y-140481803D01*
X110873225Y-140481803D01*
X112000000Y-141608579D01*
X113126775Y-140481803D01*
X113010180Y-140189476D01*
X112686326Y-140022385D01*
X112336098Y-139921685D01*
X111972953Y-139891245D01*
X111610848Y-139932238D01*
X111263698Y-140043085D01*
X110989820Y-140189476D01*
X110873225Y-140481803D01*
X99553669Y-140481803D01*
X99492211Y-140333432D01*
X99311639Y-140063186D01*
X99081814Y-139833361D01*
X98811568Y-139652789D01*
X98511287Y-139528408D01*
X98192511Y-139465000D01*
X97867489Y-139465000D01*
X97548713Y-139528408D01*
X97248432Y-139652789D01*
X96978186Y-139833361D01*
X96748361Y-140063186D01*
X96567789Y-140333432D01*
X96443408Y-140633713D01*
X96380000Y-140952489D01*
X90475000Y-140952489D01*
X90475000Y-137142489D01*
X100507500Y-137142489D01*
X100507500Y-137467511D01*
X100570908Y-137786287D01*
X100695289Y-138086568D01*
X100875861Y-138356814D01*
X101105686Y-138586639D01*
X101375932Y-138767211D01*
X101676213Y-138891592D01*
X101994989Y-138955000D01*
X102320011Y-138955000D01*
X102638787Y-138891592D01*
X102939068Y-138767211D01*
X103209314Y-138586639D01*
X103222756Y-138573197D01*
X106745725Y-138573197D01*
X106862320Y-138865524D01*
X107186174Y-139032615D01*
X107536402Y-139133315D01*
X107899547Y-139163755D01*
X108261652Y-139122762D01*
X108608802Y-139011915D01*
X108882680Y-138865524D01*
X108999275Y-138573197D01*
X107872500Y-137446421D01*
X106745725Y-138573197D01*
X103222756Y-138573197D01*
X103439139Y-138356814D01*
X103619711Y-138086568D01*
X103744092Y-137786287D01*
X103753008Y-137741461D01*
X103963186Y-137951639D01*
X104233432Y-138132211D01*
X104533713Y-138256592D01*
X104852489Y-138320000D01*
X105177511Y-138320000D01*
X105496287Y-138256592D01*
X105796568Y-138132211D01*
X106066814Y-137951639D01*
X106119979Y-137898474D01*
X106165585Y-138041302D01*
X106311976Y-138315180D01*
X106604303Y-138431775D01*
X107731079Y-137305000D01*
X108013921Y-137305000D01*
X109140697Y-138431775D01*
X109433024Y-138315180D01*
X109600115Y-137991326D01*
X109700815Y-137641098D01*
X109731255Y-137277953D01*
X109715920Y-137142489D01*
X133007500Y-137142489D01*
X133007500Y-137467511D01*
X133070908Y-137786287D01*
X133195289Y-138086568D01*
X133375861Y-138356814D01*
X133605686Y-138586639D01*
X133875932Y-138767211D01*
X134176213Y-138891592D01*
X134494989Y-138955000D01*
X134820011Y-138955000D01*
X135138787Y-138891592D01*
X135439068Y-138767211D01*
X135709314Y-138586639D01*
X135722756Y-138573197D01*
X139245725Y-138573197D01*
X139362320Y-138865524D01*
X139686174Y-139032615D01*
X140036402Y-139133315D01*
X140399547Y-139163755D01*
X140761652Y-139122762D01*
X141108802Y-139011915D01*
X141382680Y-138865524D01*
X141499275Y-138573197D01*
X140372500Y-137446421D01*
X139245725Y-138573197D01*
X135722756Y-138573197D01*
X135939139Y-138356814D01*
X136119711Y-138086568D01*
X136244092Y-137786287D01*
X136253008Y-137741461D01*
X136463186Y-137951639D01*
X136733432Y-138132211D01*
X137033713Y-138256592D01*
X137352489Y-138320000D01*
X137677511Y-138320000D01*
X137996287Y-138256592D01*
X138296568Y-138132211D01*
X138566814Y-137951639D01*
X138619979Y-137898474D01*
X138665585Y-138041302D01*
X138811976Y-138315180D01*
X139104303Y-138431775D01*
X140231079Y-137305000D01*
X140513921Y-137305000D01*
X141640697Y-138431775D01*
X141933024Y-138315180D01*
X142100115Y-137991326D01*
X142200815Y-137641098D01*
X142231255Y-137277953D01*
X142190262Y-136915848D01*
X142079415Y-136568698D01*
X141933024Y-136294820D01*
X141640697Y-136178225D01*
X140513921Y-137305000D01*
X140231079Y-137305000D01*
X139104303Y-136178225D01*
X139098248Y-136180640D01*
X139038669Y-136036803D01*
X139245725Y-136036803D01*
X140372500Y-137163579D01*
X141499275Y-136036803D01*
X141382680Y-135744476D01*
X141058826Y-135577385D01*
X140708598Y-135476685D01*
X140345453Y-135446245D01*
X139983348Y-135487238D01*
X139636198Y-135598085D01*
X139362320Y-135744476D01*
X139245725Y-136036803D01*
X139038669Y-136036803D01*
X138977211Y-135888432D01*
X138796639Y-135618186D01*
X138566814Y-135388361D01*
X138296568Y-135207789D01*
X137996287Y-135083408D01*
X137677511Y-135020000D01*
X137352489Y-135020000D01*
X137033713Y-135083408D01*
X136733432Y-135207789D01*
X136463186Y-135388361D01*
X136233361Y-135618186D01*
X136052789Y-135888432D01*
X135928408Y-136188713D01*
X135919492Y-136233539D01*
X135709314Y-136023361D01*
X135439068Y-135842789D01*
X135138787Y-135718408D01*
X134820011Y-135655000D01*
X134494989Y-135655000D01*
X134176213Y-135718408D01*
X133875932Y-135842789D01*
X133605686Y-136023361D01*
X133375861Y-136253186D01*
X133195289Y-136523432D01*
X133070908Y-136823713D01*
X133007500Y-137142489D01*
X109715920Y-137142489D01*
X109690262Y-136915848D01*
X109579415Y-136568698D01*
X109433024Y-136294820D01*
X109140697Y-136178225D01*
X108013921Y-137305000D01*
X107731079Y-137305000D01*
X106604303Y-136178225D01*
X106598248Y-136180640D01*
X106538669Y-136036803D01*
X106745725Y-136036803D01*
X107872500Y-137163579D01*
X108999275Y-136036803D01*
X108882680Y-135744476D01*
X108558826Y-135577385D01*
X108208598Y-135476685D01*
X107845453Y-135446245D01*
X107483348Y-135487238D01*
X107136198Y-135598085D01*
X106862320Y-135744476D01*
X106745725Y-136036803D01*
X106538669Y-136036803D01*
X106477211Y-135888432D01*
X106296639Y-135618186D01*
X106066814Y-135388361D01*
X105796568Y-135207789D01*
X105496287Y-135083408D01*
X105177511Y-135020000D01*
X104852489Y-135020000D01*
X104533713Y-135083408D01*
X104233432Y-135207789D01*
X103963186Y-135388361D01*
X103733361Y-135618186D01*
X103552789Y-135888432D01*
X103428408Y-136188713D01*
X103419492Y-136233539D01*
X103209314Y-136023361D01*
X102939068Y-135842789D01*
X102638787Y-135718408D01*
X102320011Y-135655000D01*
X101994989Y-135655000D01*
X101676213Y-135718408D01*
X101375932Y-135842789D01*
X101105686Y-136023361D01*
X100875861Y-136253186D01*
X100695289Y-136523432D01*
X100570908Y-136823713D01*
X100507500Y-137142489D01*
X90475000Y-137142489D01*
X90475000Y-120921207D01*
X99700000Y-120921207D01*
X99700000Y-121078793D01*
X99730743Y-121233351D01*
X99791049Y-121378942D01*
X99800000Y-121392338D01*
X99800001Y-123357661D01*
X99791049Y-123371058D01*
X99730743Y-123516649D01*
X99700000Y-123671207D01*
X99700000Y-123828793D01*
X99730743Y-123983351D01*
X99791049Y-124128942D01*
X99878599Y-124259970D01*
X99990030Y-124371401D01*
X100121058Y-124458951D01*
X100266649Y-124519257D01*
X100421207Y-124550000D01*
X100578793Y-124550000D01*
X100733351Y-124519257D01*
X100878942Y-124458951D01*
X101009970Y-124371401D01*
X101121401Y-124259970D01*
X101208951Y-124128942D01*
X101269257Y-123983351D01*
X101300000Y-123828793D01*
X101300000Y-123671207D01*
X101269257Y-123516649D01*
X101208951Y-123371058D01*
X101200000Y-123357662D01*
X101200000Y-121392338D01*
X101208951Y-121378942D01*
X101269257Y-121233351D01*
X101300000Y-121078793D01*
X101300000Y-120921207D01*
X101269257Y-120766649D01*
X101208951Y-120621058D01*
X101121401Y-120490030D01*
X101052578Y-120421207D01*
X131950000Y-120421207D01*
X131950000Y-120578793D01*
X131980743Y-120733351D01*
X132041049Y-120878942D01*
X132050000Y-120892338D01*
X132050001Y-123107661D01*
X132041049Y-123121058D01*
X131980743Y-123266649D01*
X131950000Y-123421207D01*
X131950000Y-123578793D01*
X131980743Y-123733351D01*
X132041049Y-123878942D01*
X132128599Y-124009970D01*
X132240030Y-124121401D01*
X132371058Y-124208951D01*
X132516649Y-124269257D01*
X132671207Y-124300000D01*
X132828793Y-124300000D01*
X132983351Y-124269257D01*
X133128942Y-124208951D01*
X133259970Y-124121401D01*
X133371401Y-124009970D01*
X133458951Y-123878942D01*
X133519257Y-123733351D01*
X133550000Y-123578793D01*
X133550000Y-123421207D01*
X133519257Y-123266649D01*
X133458951Y-123121058D01*
X133450000Y-123107662D01*
X133450000Y-120892338D01*
X133458951Y-120878942D01*
X133519257Y-120733351D01*
X133550000Y-120578793D01*
X133550000Y-120421207D01*
X133519257Y-120266649D01*
X133458951Y-120121058D01*
X133371401Y-119990030D01*
X133259970Y-119878599D01*
X133128942Y-119791049D01*
X132983351Y-119730743D01*
X132828793Y-119700000D01*
X132671207Y-119700000D01*
X132516649Y-119730743D01*
X132371058Y-119791049D01*
X132240030Y-119878599D01*
X132128599Y-119990030D01*
X132041049Y-120121058D01*
X131980743Y-120266649D01*
X131950000Y-120421207D01*
X101052578Y-120421207D01*
X101009970Y-120378599D01*
X100878942Y-120291049D01*
X100733351Y-120230743D01*
X100578793Y-120200000D01*
X100421207Y-120200000D01*
X100266649Y-120230743D01*
X100121058Y-120291049D01*
X99990030Y-120378599D01*
X99878599Y-120490030D01*
X99791049Y-120621058D01*
X99730743Y-120766649D01*
X99700000Y-120921207D01*
X90475000Y-120921207D01*
X90475000Y-110958427D01*
X90681835Y-111267978D01*
X91232022Y-111818165D01*
X91878974Y-112250444D01*
X92597828Y-112548203D01*
X93360959Y-112700000D01*
X94139041Y-112700000D01*
X94902172Y-112548203D01*
X95621026Y-112250444D01*
X96267978Y-111818165D01*
X96818165Y-111267978D01*
X97250444Y-110621026D01*
X97352015Y-110375811D01*
X100515610Y-110375811D01*
X100608138Y-110647674D01*
X100897947Y-110794812D01*
X101210892Y-110882584D01*
X101534949Y-110907616D01*
X101857662Y-110868947D01*
X102166631Y-110768063D01*
X102391862Y-110647674D01*
X102484390Y-110375811D01*
X101500000Y-109391421D01*
X100515610Y-110375811D01*
X97352015Y-110375811D01*
X97548203Y-109902172D01*
X97670976Y-109284949D01*
X99842384Y-109284949D01*
X99881053Y-109607662D01*
X99981937Y-109916631D01*
X100102326Y-110141862D01*
X100374189Y-110234390D01*
X101358579Y-109250000D01*
X101641421Y-109250000D01*
X102625811Y-110234390D01*
X102897674Y-110141862D01*
X103044812Y-109852053D01*
X103132584Y-109539108D01*
X103157616Y-109215051D01*
X103144692Y-109107187D01*
X103550000Y-109107187D01*
X103550000Y-109392813D01*
X103605723Y-109672949D01*
X103715027Y-109936833D01*
X103873711Y-110174321D01*
X104075679Y-110376289D01*
X104313167Y-110534973D01*
X104577051Y-110644277D01*
X104857187Y-110700000D01*
X105142813Y-110700000D01*
X105422949Y-110644277D01*
X105686833Y-110534973D01*
X105924321Y-110376289D01*
X106126289Y-110174321D01*
X106284973Y-109936833D01*
X106394277Y-109672949D01*
X106450000Y-109392813D01*
X106450000Y-109107187D01*
X107050000Y-109107187D01*
X107050000Y-109392813D01*
X107105723Y-109672949D01*
X107215027Y-109936833D01*
X107373711Y-110174321D01*
X107575679Y-110376289D01*
X107813167Y-110534973D01*
X108077051Y-110644277D01*
X108357187Y-110700000D01*
X108642813Y-110700000D01*
X108922949Y-110644277D01*
X109186833Y-110534973D01*
X109424321Y-110376289D01*
X109626289Y-110174321D01*
X109784973Y-109936833D01*
X109894277Y-109672949D01*
X109950000Y-109392813D01*
X109950000Y-109107187D01*
X116300000Y-109107187D01*
X116300000Y-109392813D01*
X116355723Y-109672949D01*
X116465027Y-109936833D01*
X116623711Y-110174321D01*
X116825679Y-110376289D01*
X117063167Y-110534973D01*
X117327051Y-110644277D01*
X117607187Y-110700000D01*
X117892813Y-110700000D01*
X118172949Y-110644277D01*
X118436833Y-110534973D01*
X118674321Y-110376289D01*
X118674799Y-110375811D01*
X120265610Y-110375811D01*
X120358138Y-110647674D01*
X120647947Y-110794812D01*
X120960892Y-110882584D01*
X121284949Y-110907616D01*
X121607662Y-110868947D01*
X121916631Y-110768063D01*
X122141862Y-110647674D01*
X122234390Y-110375811D01*
X121250000Y-109391421D01*
X120265610Y-110375811D01*
X118674799Y-110375811D01*
X118876289Y-110174321D01*
X119034973Y-109936833D01*
X119144277Y-109672949D01*
X119200000Y-109392813D01*
X119200000Y-109284949D01*
X119592384Y-109284949D01*
X119631053Y-109607662D01*
X119731937Y-109916631D01*
X119852326Y-110141862D01*
X120124189Y-110234390D01*
X121108579Y-109250000D01*
X121391421Y-109250000D01*
X122375811Y-110234390D01*
X122647674Y-110141862D01*
X122794812Y-109852053D01*
X122882584Y-109539108D01*
X122907616Y-109215051D01*
X122894692Y-109107187D01*
X123300000Y-109107187D01*
X123300000Y-109392813D01*
X123355723Y-109672949D01*
X123465027Y-109936833D01*
X123623711Y-110174321D01*
X123825679Y-110376289D01*
X124063167Y-110534973D01*
X124327051Y-110644277D01*
X124607187Y-110700000D01*
X124892813Y-110700000D01*
X125172949Y-110644277D01*
X125436833Y-110534973D01*
X125674321Y-110376289D01*
X125674799Y-110375811D01*
X133015610Y-110375811D01*
X133108138Y-110647674D01*
X133397947Y-110794812D01*
X133710892Y-110882584D01*
X134034949Y-110907616D01*
X134357662Y-110868947D01*
X134666631Y-110768063D01*
X134891862Y-110647674D01*
X134984390Y-110375811D01*
X134000000Y-109391421D01*
X133015610Y-110375811D01*
X125674799Y-110375811D01*
X125876289Y-110174321D01*
X126034973Y-109936833D01*
X126144277Y-109672949D01*
X126200000Y-109392813D01*
X126200000Y-109284949D01*
X132342384Y-109284949D01*
X132381053Y-109607662D01*
X132481937Y-109916631D01*
X132602326Y-110141862D01*
X132874189Y-110234390D01*
X133858579Y-109250000D01*
X134141421Y-109250000D01*
X135125811Y-110234390D01*
X135397674Y-110141862D01*
X135544812Y-109852053D01*
X135632584Y-109539108D01*
X135657616Y-109215051D01*
X135644692Y-109107187D01*
X136050000Y-109107187D01*
X136050000Y-109392813D01*
X136105723Y-109672949D01*
X136215027Y-109936833D01*
X136373711Y-110174321D01*
X136575679Y-110376289D01*
X136813167Y-110534973D01*
X137077051Y-110644277D01*
X137357187Y-110700000D01*
X137642813Y-110700000D01*
X137922949Y-110644277D01*
X138186833Y-110534973D01*
X138424321Y-110376289D01*
X138626289Y-110174321D01*
X138784973Y-109936833D01*
X138894277Y-109672949D01*
X138950000Y-109392813D01*
X138950000Y-109107187D01*
X139550000Y-109107187D01*
X139550000Y-109392813D01*
X139605723Y-109672949D01*
X139715027Y-109936833D01*
X139873711Y-110174321D01*
X140075679Y-110376289D01*
X140313167Y-110534973D01*
X140577051Y-110644277D01*
X140857187Y-110700000D01*
X141142813Y-110700000D01*
X141422949Y-110644277D01*
X141686833Y-110534973D01*
X141924321Y-110376289D01*
X142126289Y-110174321D01*
X142284973Y-109936833D01*
X142394277Y-109672949D01*
X142450000Y-109392813D01*
X142450000Y-109107187D01*
X142394277Y-108827051D01*
X142284973Y-108563167D01*
X142126289Y-108325679D01*
X141924321Y-108123711D01*
X141686833Y-107965027D01*
X141422949Y-107855723D01*
X141142813Y-107800000D01*
X140857187Y-107800000D01*
X140577051Y-107855723D01*
X140313167Y-107965027D01*
X140075679Y-108123711D01*
X139873711Y-108325679D01*
X139715027Y-108563167D01*
X139605723Y-108827051D01*
X139550000Y-109107187D01*
X138950000Y-109107187D01*
X138894277Y-108827051D01*
X138784973Y-108563167D01*
X138626289Y-108325679D01*
X138424321Y-108123711D01*
X138186833Y-107965027D01*
X137922949Y-107855723D01*
X137642813Y-107800000D01*
X137357187Y-107800000D01*
X137077051Y-107855723D01*
X136813167Y-107965027D01*
X136575679Y-108123711D01*
X136373711Y-108325679D01*
X136215027Y-108563167D01*
X136105723Y-108827051D01*
X136050000Y-109107187D01*
X135644692Y-109107187D01*
X135618947Y-108892338D01*
X135518063Y-108583369D01*
X135397674Y-108358138D01*
X135125811Y-108265610D01*
X134141421Y-109250000D01*
X133858579Y-109250000D01*
X132874189Y-108265610D01*
X132602326Y-108358138D01*
X132455188Y-108647947D01*
X132367416Y-108960892D01*
X132342384Y-109284949D01*
X126200000Y-109284949D01*
X126200000Y-109107187D01*
X126144277Y-108827051D01*
X126034973Y-108563167D01*
X125876289Y-108325679D01*
X125674799Y-108124189D01*
X133015610Y-108124189D01*
X134000000Y-109108579D01*
X134984390Y-108124189D01*
X134891862Y-107852326D01*
X134602053Y-107705188D01*
X134289108Y-107617416D01*
X133965051Y-107592384D01*
X133642338Y-107631053D01*
X133333369Y-107731937D01*
X133108138Y-107852326D01*
X133015610Y-108124189D01*
X125674799Y-108124189D01*
X125674321Y-108123711D01*
X125450000Y-107973825D01*
X125450000Y-106892338D01*
X125458951Y-106878942D01*
X125519257Y-106733351D01*
X125550000Y-106578793D01*
X125550000Y-106421207D01*
X125519257Y-106266649D01*
X125458951Y-106121058D01*
X125371401Y-105990030D01*
X125259970Y-105878599D01*
X125128942Y-105791049D01*
X124983351Y-105730743D01*
X124828793Y-105700000D01*
X124671207Y-105700000D01*
X124516649Y-105730743D01*
X124371058Y-105791049D01*
X124240030Y-105878599D01*
X124128599Y-105990030D01*
X124041049Y-106121058D01*
X123980743Y-106266649D01*
X123950000Y-106421207D01*
X123950000Y-106578793D01*
X123980743Y-106733351D01*
X124041049Y-106878942D01*
X124050001Y-106892339D01*
X124050000Y-107973825D01*
X123825679Y-108123711D01*
X123623711Y-108325679D01*
X123465027Y-108563167D01*
X123355723Y-108827051D01*
X123300000Y-109107187D01*
X122894692Y-109107187D01*
X122868947Y-108892338D01*
X122768063Y-108583369D01*
X122647674Y-108358138D01*
X122375811Y-108265610D01*
X121391421Y-109250000D01*
X121108579Y-109250000D01*
X120124189Y-108265610D01*
X119852326Y-108358138D01*
X119705188Y-108647947D01*
X119617416Y-108960892D01*
X119592384Y-109284949D01*
X119200000Y-109284949D01*
X119200000Y-109107187D01*
X119144277Y-108827051D01*
X119034973Y-108563167D01*
X118876289Y-108325679D01*
X118674799Y-108124189D01*
X120265610Y-108124189D01*
X121250000Y-109108579D01*
X122234390Y-108124189D01*
X122141862Y-107852326D01*
X121852053Y-107705188D01*
X121539108Y-107617416D01*
X121215051Y-107592384D01*
X120892338Y-107631053D01*
X120583369Y-107731937D01*
X120358138Y-107852326D01*
X120265610Y-108124189D01*
X118674799Y-108124189D01*
X118674321Y-108123711D01*
X118436833Y-107965027D01*
X118172949Y-107855723D01*
X117892813Y-107800000D01*
X117607187Y-107800000D01*
X117327051Y-107855723D01*
X117063167Y-107965027D01*
X116825679Y-108123711D01*
X116623711Y-108325679D01*
X116465027Y-108563167D01*
X116355723Y-108827051D01*
X116300000Y-109107187D01*
X109950000Y-109107187D01*
X109894277Y-108827051D01*
X109784973Y-108563167D01*
X109626289Y-108325679D01*
X109424321Y-108123711D01*
X109186833Y-107965027D01*
X108922949Y-107855723D01*
X108642813Y-107800000D01*
X108357187Y-107800000D01*
X108077051Y-107855723D01*
X107813167Y-107965027D01*
X107575679Y-108123711D01*
X107373711Y-108325679D01*
X107215027Y-108563167D01*
X107105723Y-108827051D01*
X107050000Y-109107187D01*
X106450000Y-109107187D01*
X106394277Y-108827051D01*
X106284973Y-108563167D01*
X106126289Y-108325679D01*
X105924321Y-108123711D01*
X105686833Y-107965027D01*
X105422949Y-107855723D01*
X105142813Y-107800000D01*
X104857187Y-107800000D01*
X104577051Y-107855723D01*
X104313167Y-107965027D01*
X104075679Y-108123711D01*
X103873711Y-108325679D01*
X103715027Y-108563167D01*
X103605723Y-108827051D01*
X103550000Y-109107187D01*
X103144692Y-109107187D01*
X103118947Y-108892338D01*
X103018063Y-108583369D01*
X102897674Y-108358138D01*
X102625811Y-108265610D01*
X101641421Y-109250000D01*
X101358579Y-109250000D01*
X100374189Y-108265610D01*
X100102326Y-108358138D01*
X99955188Y-108647947D01*
X99867416Y-108960892D01*
X99842384Y-109284949D01*
X97670976Y-109284949D01*
X97700000Y-109139041D01*
X97700000Y-108360959D01*
X97652904Y-108124189D01*
X100515610Y-108124189D01*
X101500000Y-109108579D01*
X102484390Y-108124189D01*
X102391862Y-107852326D01*
X102102053Y-107705188D01*
X101789108Y-107617416D01*
X101465051Y-107592384D01*
X101142338Y-107631053D01*
X100833369Y-107731937D01*
X100608138Y-107852326D01*
X100515610Y-108124189D01*
X97652904Y-108124189D01*
X97548203Y-107597828D01*
X97250444Y-106878974D01*
X96818165Y-106232022D01*
X96267978Y-105681835D01*
X95958427Y-105475000D01*
X146541573Y-105475000D01*
X146232022Y-105681835D01*
G37*
X146232022Y-105681835D02*
X145681835Y-106232022D01*
X145249556Y-106878974D01*
X144951797Y-107597828D01*
X144800000Y-108360959D01*
X144800000Y-109139041D01*
X144951797Y-109902172D01*
X145249556Y-110621026D01*
X145681835Y-111267978D01*
X146232022Y-111818165D01*
X146878974Y-112250444D01*
X147597828Y-112548203D01*
X148360959Y-112700000D01*
X149139041Y-112700000D01*
X149902172Y-112548203D01*
X150621026Y-112250444D01*
X151267978Y-111818165D01*
X151818165Y-111267978D01*
X152025001Y-110958426D01*
X152025000Y-157476769D01*
X151984200Y-157892881D01*
X151870099Y-158270801D01*
X151684769Y-158619356D01*
X151435263Y-158925281D01*
X151131093Y-159176912D01*
X150783834Y-159364674D01*
X150406727Y-159481408D01*
X149991978Y-159525000D01*
X92523231Y-159525000D01*
X92107119Y-159484200D01*
X91729199Y-159370099D01*
X91380644Y-159184769D01*
X91074719Y-158935263D01*
X90823088Y-158631093D01*
X90635326Y-158283834D01*
X90518592Y-157906727D01*
X90475000Y-157491978D01*
X90475000Y-153691886D01*
X98050000Y-153691886D01*
X98050000Y-153938114D01*
X98098037Y-154179611D01*
X98192265Y-154407097D01*
X98329062Y-154611828D01*
X98503172Y-154785938D01*
X98707903Y-154922735D01*
X98935389Y-155016963D01*
X99176886Y-155065000D01*
X99423114Y-155065000D01*
X99664611Y-155016963D01*
X99892097Y-154922735D01*
X100096828Y-154785938D01*
X100270938Y-154611828D01*
X100407735Y-154407097D01*
X100501963Y-154179611D01*
X100550000Y-153938114D01*
X100550000Y-153691886D01*
X109480000Y-153691886D01*
X109480000Y-153938114D01*
X109528037Y-154179611D01*
X109622265Y-154407097D01*
X109759062Y-154611828D01*
X109933172Y-154785938D01*
X110137903Y-154922735D01*
X110365389Y-155016963D01*
X110606886Y-155065000D01*
X110853114Y-155065000D01*
X111094611Y-155016963D01*
X111322097Y-154922735D01*
X111526828Y-154785938D01*
X111579957Y-154732809D01*
X111858613Y-154732809D01*
X112023286Y-155066084D01*
X112415198Y-155273066D01*
X112839960Y-155399612D01*
X113281247Y-155440859D01*
X113722104Y-155395223D01*
X114145585Y-155264457D01*
X114516714Y-155066084D01*
X114681387Y-154732809D01*
X113270000Y-153321421D01*
X111858613Y-154732809D01*
X111579957Y-154732809D01*
X111700938Y-154611828D01*
X111715240Y-154590423D01*
X111717191Y-154591387D01*
X113128579Y-153180000D01*
X113411421Y-153180000D01*
X114822809Y-154591387D01*
X115156084Y-154426714D01*
X115363066Y-154034802D01*
X115465228Y-153691886D01*
X130550000Y-153691886D01*
X130550000Y-153938114D01*
X130598037Y-154179611D01*
X130692265Y-154407097D01*
X130829062Y-154611828D01*
X131003172Y-154785938D01*
X131207903Y-154922735D01*
X131435389Y-155016963D01*
X131676886Y-155065000D01*
X131923114Y-155065000D01*
X132164611Y-155016963D01*
X132392097Y-154922735D01*
X132596828Y-154785938D01*
X132770938Y-154611828D01*
X132907735Y-154407097D01*
X133001963Y-154179611D01*
X133050000Y-153938114D01*
X133050000Y-153691886D01*
X141980000Y-153691886D01*
X141980000Y-153938114D01*
X142028037Y-154179611D01*
X142122265Y-154407097D01*
X142259062Y-154611828D01*
X142433172Y-154785938D01*
X142637903Y-154922735D01*
X142865389Y-155016963D01*
X143106886Y-155065000D01*
X143353114Y-155065000D01*
X143594611Y-155016963D01*
X143822097Y-154922735D01*
X144026828Y-154785938D01*
X144079957Y-154732809D01*
X144358613Y-154732809D01*
X144523286Y-155066084D01*
X144915198Y-155273066D01*
X145339960Y-155399612D01*
X145781247Y-155440859D01*
X146222104Y-155395223D01*
X146645585Y-155264457D01*
X147016714Y-155066084D01*
X147181387Y-154732809D01*
X145770000Y-153321421D01*
X144358613Y-154732809D01*
X144079957Y-154732809D01*
X144200938Y-154611828D01*
X144215240Y-154590423D01*
X144217191Y-154591387D01*
X145628579Y-153180000D01*
X145911421Y-153180000D01*
X147322809Y-154591387D01*
X147656084Y-154426714D01*
X147863066Y-154034802D01*
X147989612Y-153610040D01*
X148030859Y-153168753D01*
X147985223Y-152727896D01*
X147854457Y-152304415D01*
X147656084Y-151933286D01*
X147322809Y-151768613D01*
X145911421Y-153180000D01*
X145628579Y-153180000D01*
X144217191Y-151768613D01*
X143883916Y-151933286D01*
X143676934Y-152325198D01*
X143591372Y-152612393D01*
X143353114Y-152565000D01*
X143106886Y-152565000D01*
X142865389Y-152613037D01*
X142637903Y-152707265D01*
X142433172Y-152844062D01*
X142259062Y-153018172D01*
X142122265Y-153222903D01*
X142028037Y-153450389D01*
X141980000Y-153691886D01*
X133050000Y-153691886D01*
X133001963Y-153450389D01*
X132907735Y-153222903D01*
X132770938Y-153018172D01*
X132596828Y-152844062D01*
X132392097Y-152707265D01*
X132164611Y-152613037D01*
X131923114Y-152565000D01*
X131676886Y-152565000D01*
X131435389Y-152613037D01*
X131207903Y-152707265D01*
X131003172Y-152844062D01*
X130829062Y-153018172D01*
X130692265Y-153222903D01*
X130598037Y-153450389D01*
X130550000Y-153691886D01*
X115465228Y-153691886D01*
X115489612Y-153610040D01*
X115530859Y-153168753D01*
X115485223Y-152727896D01*
X115354457Y-152304415D01*
X115156084Y-151933286D01*
X114822809Y-151768613D01*
X113411421Y-153180000D01*
X113128579Y-153180000D01*
X111717191Y-151768613D01*
X111383916Y-151933286D01*
X111176934Y-152325198D01*
X111091372Y-152612393D01*
X110853114Y-152565000D01*
X110606886Y-152565000D01*
X110365389Y-152613037D01*
X110137903Y-152707265D01*
X109933172Y-152844062D01*
X109759062Y-153018172D01*
X109622265Y-153222903D01*
X109528037Y-153450389D01*
X109480000Y-153691886D01*
X100550000Y-153691886D01*
X100501963Y-153450389D01*
X100407735Y-153222903D01*
X100270938Y-153018172D01*
X100096828Y-152844062D01*
X99892097Y-152707265D01*
X99664611Y-152613037D01*
X99423114Y-152565000D01*
X99176886Y-152565000D01*
X98935389Y-152613037D01*
X98707903Y-152707265D01*
X98503172Y-152844062D01*
X98329062Y-153018172D01*
X98192265Y-153222903D01*
X98098037Y-153450389D01*
X98050000Y-153691886D01*
X90475000Y-153691886D01*
X90475000Y-150516886D01*
X103765000Y-150516886D01*
X103765000Y-150763114D01*
X103813037Y-151004611D01*
X103907265Y-151232097D01*
X104044062Y-151436828D01*
X104218172Y-151610938D01*
X104422903Y-151747735D01*
X104650389Y-151841963D01*
X104891886Y-151890000D01*
X105138114Y-151890000D01*
X105379611Y-151841963D01*
X105607097Y-151747735D01*
X105787503Y-151627191D01*
X111858613Y-151627191D01*
X113270000Y-153038579D01*
X114681387Y-151627191D01*
X114516714Y-151293916D01*
X114124802Y-151086934D01*
X113700040Y-150960388D01*
X113258753Y-150919141D01*
X112817896Y-150964777D01*
X112394415Y-151095543D01*
X112023286Y-151293916D01*
X111858613Y-151627191D01*
X105787503Y-151627191D01*
X105811828Y-151610938D01*
X105985938Y-151436828D01*
X106122735Y-151232097D01*
X106216963Y-151004611D01*
X106265000Y-150763114D01*
X106265000Y-150516886D01*
X136265000Y-150516886D01*
X136265000Y-150763114D01*
X136313037Y-151004611D01*
X136407265Y-151232097D01*
X136544062Y-151436828D01*
X136718172Y-151610938D01*
X136922903Y-151747735D01*
X137150389Y-151841963D01*
X137391886Y-151890000D01*
X137638114Y-151890000D01*
X137879611Y-151841963D01*
X138107097Y-151747735D01*
X138287503Y-151627191D01*
X144358613Y-151627191D01*
X145770000Y-153038579D01*
X147181387Y-151627191D01*
X147016714Y-151293916D01*
X146624802Y-151086934D01*
X146200040Y-150960388D01*
X145758753Y-150919141D01*
X145317896Y-150964777D01*
X144894415Y-151095543D01*
X144523286Y-151293916D01*
X144358613Y-151627191D01*
X138287503Y-151627191D01*
X138311828Y-151610938D01*
X138485938Y-151436828D01*
X138622735Y-151232097D01*
X138716963Y-151004611D01*
X138765000Y-150763114D01*
X138765000Y-150516886D01*
X138716963Y-150275389D01*
X138622735Y-150047903D01*
X138485938Y-149843172D01*
X138311828Y-149669062D01*
X138107097Y-149532265D01*
X137879611Y-149438037D01*
X137638114Y-149390000D01*
X137391886Y-149390000D01*
X137150389Y-149438037D01*
X136922903Y-149532265D01*
X136718172Y-149669062D01*
X136544062Y-149843172D01*
X136407265Y-150047903D01*
X136313037Y-150275389D01*
X136265000Y-150516886D01*
X106265000Y-150516886D01*
X106216963Y-150275389D01*
X106122735Y-150047903D01*
X105985938Y-149843172D01*
X105811828Y-149669062D01*
X105607097Y-149532265D01*
X105379611Y-149438037D01*
X105138114Y-149390000D01*
X104891886Y-149390000D01*
X104650389Y-149438037D01*
X104422903Y-149532265D01*
X104218172Y-149669062D01*
X104044062Y-149843172D01*
X103907265Y-150047903D01*
X103813037Y-150275389D01*
X103765000Y-150516886D01*
X90475000Y-150516886D01*
X90475000Y-144088093D01*
X98520000Y-144088093D01*
X98520000Y-144491907D01*
X98598780Y-144887963D01*
X98753314Y-145261039D01*
X98977661Y-145596799D01*
X99263201Y-145882339D01*
X99598961Y-146106686D01*
X99972037Y-146261220D01*
X100368093Y-146340000D01*
X100771907Y-146340000D01*
X101167963Y-146261220D01*
X101541039Y-146106686D01*
X101876799Y-145882339D01*
X102162339Y-145596799D01*
X102386686Y-145261039D01*
X102541220Y-144887963D01*
X102620000Y-144491907D01*
X102620000Y-144088093D01*
X107410000Y-144088093D01*
X107410000Y-144491907D01*
X107488780Y-144887963D01*
X107643314Y-145261039D01*
X107867661Y-145596799D01*
X108153201Y-145882339D01*
X108488961Y-146106686D01*
X108862037Y-146261220D01*
X109258093Y-146340000D01*
X109661907Y-146340000D01*
X110057963Y-146261220D01*
X110431039Y-146106686D01*
X110766799Y-145882339D01*
X111052339Y-145596799D01*
X111276686Y-145261039D01*
X111431220Y-144887963D01*
X111510000Y-144491907D01*
X111510000Y-144088093D01*
X131020000Y-144088093D01*
X131020000Y-144491907D01*
X131098780Y-144887963D01*
X131253314Y-145261039D01*
X131477661Y-145596799D01*
X131763201Y-145882339D01*
X132098961Y-146106686D01*
X132472037Y-146261220D01*
X132868093Y-146340000D01*
X133271907Y-146340000D01*
X133667963Y-146261220D01*
X134041039Y-146106686D01*
X134376799Y-145882339D01*
X134662339Y-145596799D01*
X134886686Y-145261039D01*
X135041220Y-144887963D01*
X135120000Y-144491907D01*
X135120000Y-144088093D01*
X139910000Y-144088093D01*
X139910000Y-144491907D01*
X139988780Y-144887963D01*
X140143314Y-145261039D01*
X140367661Y-145596799D01*
X140653201Y-145882339D01*
X140988961Y-146106686D01*
X141362037Y-146261220D01*
X141758093Y-146340000D01*
X142161907Y-146340000D01*
X142557963Y-146261220D01*
X142931039Y-146106686D01*
X143266799Y-145882339D01*
X143552339Y-145596799D01*
X143776686Y-145261039D01*
X143931220Y-144887963D01*
X144010000Y-144491907D01*
X144010000Y-144088093D01*
X143931220Y-143692037D01*
X143846287Y-143486992D01*
X144163902Y-143578315D01*
X144527047Y-143608755D01*
X144889152Y-143567762D01*
X145236302Y-143456915D01*
X145510180Y-143310524D01*
X145626775Y-143018197D01*
X144500000Y-141891421D01*
X144485858Y-141905564D01*
X144344436Y-141764142D01*
X144358579Y-141750000D01*
X144641421Y-141750000D01*
X145768197Y-142876775D01*
X146060524Y-142760180D01*
X146227615Y-142436326D01*
X146328315Y-142086098D01*
X146358755Y-141722953D01*
X146317762Y-141360848D01*
X146206915Y-141013698D01*
X146060524Y-140739820D01*
X145768197Y-140623225D01*
X144641421Y-141750000D01*
X144358579Y-141750000D01*
X143231803Y-140623225D01*
X142939476Y-140739820D01*
X142772385Y-141063674D01*
X142671685Y-141413902D01*
X142641245Y-141777047D01*
X142682238Y-142139152D01*
X142767279Y-142405482D01*
X142557963Y-142318780D01*
X142161907Y-142240000D01*
X141758093Y-142240000D01*
X141362037Y-142318780D01*
X140988961Y-142473314D01*
X140653201Y-142697661D01*
X140367661Y-142983201D01*
X140143314Y-143318961D01*
X139988780Y-143692037D01*
X139910000Y-144088093D01*
X135120000Y-144088093D01*
X135041220Y-143692037D01*
X134886686Y-143318961D01*
X134662339Y-142983201D01*
X134376799Y-142697661D01*
X134041039Y-142473314D01*
X133667963Y-142318780D01*
X133271907Y-142240000D01*
X132868093Y-142240000D01*
X132472037Y-142318780D01*
X132098961Y-142473314D01*
X131763201Y-142697661D01*
X131477661Y-142983201D01*
X131253314Y-143318961D01*
X131098780Y-143692037D01*
X131020000Y-144088093D01*
X111510000Y-144088093D01*
X111431220Y-143692037D01*
X111346287Y-143486992D01*
X111663902Y-143578315D01*
X112027047Y-143608755D01*
X112389152Y-143567762D01*
X112736302Y-143456915D01*
X113010180Y-143310524D01*
X113126775Y-143018197D01*
X112000000Y-141891421D01*
X111985858Y-141905564D01*
X111844436Y-141764142D01*
X111858579Y-141750000D01*
X112141421Y-141750000D01*
X113268197Y-142876775D01*
X113560524Y-142760180D01*
X113727615Y-142436326D01*
X113828315Y-142086098D01*
X113858755Y-141722953D01*
X113817762Y-141360848D01*
X113706915Y-141013698D01*
X113674199Y-140952489D01*
X128880000Y-140952489D01*
X128880000Y-141277511D01*
X128943408Y-141596287D01*
X129067789Y-141896568D01*
X129248361Y-142166814D01*
X129478186Y-142396639D01*
X129748432Y-142577211D01*
X130048713Y-142701592D01*
X130367489Y-142765000D01*
X130692511Y-142765000D01*
X131011287Y-142701592D01*
X131311568Y-142577211D01*
X131581814Y-142396639D01*
X131811639Y-142166814D01*
X131992211Y-141896568D01*
X132116592Y-141596287D01*
X132180000Y-141277511D01*
X132180000Y-140952489D01*
X132116592Y-140633713D01*
X132053669Y-140481803D01*
X143373225Y-140481803D01*
X144500000Y-141608579D01*
X145626775Y-140481803D01*
X145510180Y-140189476D01*
X145186326Y-140022385D01*
X144836098Y-139921685D01*
X144472953Y-139891245D01*
X144110848Y-139932238D01*
X143763698Y-140043085D01*
X143489820Y-140189476D01*
X143373225Y-140481803D01*
X132053669Y-140481803D01*
X131992211Y-140333432D01*
X131811639Y-140063186D01*
X131581814Y-139833361D01*
X131311568Y-139652789D01*
X131011287Y-139528408D01*
X130692511Y-139465000D01*
X130367489Y-139465000D01*
X130048713Y-139528408D01*
X129748432Y-139652789D01*
X129478186Y-139833361D01*
X129248361Y-140063186D01*
X129067789Y-140333432D01*
X128943408Y-140633713D01*
X128880000Y-140952489D01*
X113674199Y-140952489D01*
X113560524Y-140739820D01*
X113268197Y-140623225D01*
X112141421Y-141750000D01*
X111858579Y-141750000D01*
X110731803Y-140623225D01*
X110439476Y-140739820D01*
X110272385Y-141063674D01*
X110171685Y-141413902D01*
X110141245Y-141777047D01*
X110182238Y-142139152D01*
X110267279Y-142405482D01*
X110057963Y-142318780D01*
X109661907Y-142240000D01*
X109258093Y-142240000D01*
X108862037Y-142318780D01*
X108488961Y-142473314D01*
X108153201Y-142697661D01*
X107867661Y-142983201D01*
X107643314Y-143318961D01*
X107488780Y-143692037D01*
X107410000Y-144088093D01*
X102620000Y-144088093D01*
X102541220Y-143692037D01*
X102386686Y-143318961D01*
X102162339Y-142983201D01*
X101876799Y-142697661D01*
X101541039Y-142473314D01*
X101167963Y-142318780D01*
X100771907Y-142240000D01*
X100368093Y-142240000D01*
X99972037Y-142318780D01*
X99598961Y-142473314D01*
X99263201Y-142697661D01*
X98977661Y-142983201D01*
X98753314Y-143318961D01*
X98598780Y-143692037D01*
X98520000Y-144088093D01*
X90475000Y-144088093D01*
X90475000Y-140952489D01*
X96380000Y-140952489D01*
X96380000Y-141277511D01*
X96443408Y-141596287D01*
X96567789Y-141896568D01*
X96748361Y-142166814D01*
X96978186Y-142396639D01*
X97248432Y-142577211D01*
X97548713Y-142701592D01*
X97867489Y-142765000D01*
X98192511Y-142765000D01*
X98511287Y-142701592D01*
X98811568Y-142577211D01*
X99081814Y-142396639D01*
X99311639Y-142166814D01*
X99492211Y-141896568D01*
X99616592Y-141596287D01*
X99680000Y-141277511D01*
X99680000Y-140952489D01*
X99616592Y-140633713D01*
X99553669Y-140481803D01*
X110873225Y-140481803D01*
X112000000Y-141608579D01*
X113126775Y-140481803D01*
X113010180Y-140189476D01*
X112686326Y-140022385D01*
X112336098Y-139921685D01*
X111972953Y-139891245D01*
X111610848Y-139932238D01*
X111263698Y-140043085D01*
X110989820Y-140189476D01*
X110873225Y-140481803D01*
X99553669Y-140481803D01*
X99492211Y-140333432D01*
X99311639Y-140063186D01*
X99081814Y-139833361D01*
X98811568Y-139652789D01*
X98511287Y-139528408D01*
X98192511Y-139465000D01*
X97867489Y-139465000D01*
X97548713Y-139528408D01*
X97248432Y-139652789D01*
X96978186Y-139833361D01*
X96748361Y-140063186D01*
X96567789Y-140333432D01*
X96443408Y-140633713D01*
X96380000Y-140952489D01*
X90475000Y-140952489D01*
X90475000Y-137142489D01*
X100507500Y-137142489D01*
X100507500Y-137467511D01*
X100570908Y-137786287D01*
X100695289Y-138086568D01*
X100875861Y-138356814D01*
X101105686Y-138586639D01*
X101375932Y-138767211D01*
X101676213Y-138891592D01*
X101994989Y-138955000D01*
X102320011Y-138955000D01*
X102638787Y-138891592D01*
X102939068Y-138767211D01*
X103209314Y-138586639D01*
X103222756Y-138573197D01*
X106745725Y-138573197D01*
X106862320Y-138865524D01*
X107186174Y-139032615D01*
X107536402Y-139133315D01*
X107899547Y-139163755D01*
X108261652Y-139122762D01*
X108608802Y-139011915D01*
X108882680Y-138865524D01*
X108999275Y-138573197D01*
X107872500Y-137446421D01*
X106745725Y-138573197D01*
X103222756Y-138573197D01*
X103439139Y-138356814D01*
X103619711Y-138086568D01*
X103744092Y-137786287D01*
X103753008Y-137741461D01*
X103963186Y-137951639D01*
X104233432Y-138132211D01*
X104533713Y-138256592D01*
X104852489Y-138320000D01*
X105177511Y-138320000D01*
X105496287Y-138256592D01*
X105796568Y-138132211D01*
X106066814Y-137951639D01*
X106119979Y-137898474D01*
X106165585Y-138041302D01*
X106311976Y-138315180D01*
X106604303Y-138431775D01*
X107731079Y-137305000D01*
X108013921Y-137305000D01*
X109140697Y-138431775D01*
X109433024Y-138315180D01*
X109600115Y-137991326D01*
X109700815Y-137641098D01*
X109731255Y-137277953D01*
X109715920Y-137142489D01*
X133007500Y-137142489D01*
X133007500Y-137467511D01*
X133070908Y-137786287D01*
X133195289Y-138086568D01*
X133375861Y-138356814D01*
X133605686Y-138586639D01*
X133875932Y-138767211D01*
X134176213Y-138891592D01*
X134494989Y-138955000D01*
X134820011Y-138955000D01*
X135138787Y-138891592D01*
X135439068Y-138767211D01*
X135709314Y-138586639D01*
X135722756Y-138573197D01*
X139245725Y-138573197D01*
X139362320Y-138865524D01*
X139686174Y-139032615D01*
X140036402Y-139133315D01*
X140399547Y-139163755D01*
X140761652Y-139122762D01*
X141108802Y-139011915D01*
X141382680Y-138865524D01*
X141499275Y-138573197D01*
X140372500Y-137446421D01*
X139245725Y-138573197D01*
X135722756Y-138573197D01*
X135939139Y-138356814D01*
X136119711Y-138086568D01*
X136244092Y-137786287D01*
X136253008Y-137741461D01*
X136463186Y-137951639D01*
X136733432Y-138132211D01*
X137033713Y-138256592D01*
X137352489Y-138320000D01*
X137677511Y-138320000D01*
X137996287Y-138256592D01*
X138296568Y-138132211D01*
X138566814Y-137951639D01*
X138619979Y-137898474D01*
X138665585Y-138041302D01*
X138811976Y-138315180D01*
X139104303Y-138431775D01*
X140231079Y-137305000D01*
X140513921Y-137305000D01*
X141640697Y-138431775D01*
X141933024Y-138315180D01*
X142100115Y-137991326D01*
X142200815Y-137641098D01*
X142231255Y-137277953D01*
X142190262Y-136915848D01*
X142079415Y-136568698D01*
X141933024Y-136294820D01*
X141640697Y-136178225D01*
X140513921Y-137305000D01*
X140231079Y-137305000D01*
X139104303Y-136178225D01*
X139098248Y-136180640D01*
X139038669Y-136036803D01*
X139245725Y-136036803D01*
X140372500Y-137163579D01*
X141499275Y-136036803D01*
X141382680Y-135744476D01*
X141058826Y-135577385D01*
X140708598Y-135476685D01*
X140345453Y-135446245D01*
X139983348Y-135487238D01*
X139636198Y-135598085D01*
X139362320Y-135744476D01*
X139245725Y-136036803D01*
X139038669Y-136036803D01*
X138977211Y-135888432D01*
X138796639Y-135618186D01*
X138566814Y-135388361D01*
X138296568Y-135207789D01*
X137996287Y-135083408D01*
X137677511Y-135020000D01*
X137352489Y-135020000D01*
X137033713Y-135083408D01*
X136733432Y-135207789D01*
X136463186Y-135388361D01*
X136233361Y-135618186D01*
X136052789Y-135888432D01*
X135928408Y-136188713D01*
X135919492Y-136233539D01*
X135709314Y-136023361D01*
X135439068Y-135842789D01*
X135138787Y-135718408D01*
X134820011Y-135655000D01*
X134494989Y-135655000D01*
X134176213Y-135718408D01*
X133875932Y-135842789D01*
X133605686Y-136023361D01*
X133375861Y-136253186D01*
X133195289Y-136523432D01*
X133070908Y-136823713D01*
X133007500Y-137142489D01*
X109715920Y-137142489D01*
X109690262Y-136915848D01*
X109579415Y-136568698D01*
X109433024Y-136294820D01*
X109140697Y-136178225D01*
X108013921Y-137305000D01*
X107731079Y-137305000D01*
X106604303Y-136178225D01*
X106598248Y-136180640D01*
X106538669Y-136036803D01*
X106745725Y-136036803D01*
X107872500Y-137163579D01*
X108999275Y-136036803D01*
X108882680Y-135744476D01*
X108558826Y-135577385D01*
X108208598Y-135476685D01*
X107845453Y-135446245D01*
X107483348Y-135487238D01*
X107136198Y-135598085D01*
X106862320Y-135744476D01*
X106745725Y-136036803D01*
X106538669Y-136036803D01*
X106477211Y-135888432D01*
X106296639Y-135618186D01*
X106066814Y-135388361D01*
X105796568Y-135207789D01*
X105496287Y-135083408D01*
X105177511Y-135020000D01*
X104852489Y-135020000D01*
X104533713Y-135083408D01*
X104233432Y-135207789D01*
X103963186Y-135388361D01*
X103733361Y-135618186D01*
X103552789Y-135888432D01*
X103428408Y-136188713D01*
X103419492Y-136233539D01*
X103209314Y-136023361D01*
X102939068Y-135842789D01*
X102638787Y-135718408D01*
X102320011Y-135655000D01*
X101994989Y-135655000D01*
X101676213Y-135718408D01*
X101375932Y-135842789D01*
X101105686Y-136023361D01*
X100875861Y-136253186D01*
X100695289Y-136523432D01*
X100570908Y-136823713D01*
X100507500Y-137142489D01*
X90475000Y-137142489D01*
X90475000Y-120921207D01*
X99700000Y-120921207D01*
X99700000Y-121078793D01*
X99730743Y-121233351D01*
X99791049Y-121378942D01*
X99800000Y-121392338D01*
X99800001Y-123357661D01*
X99791049Y-123371058D01*
X99730743Y-123516649D01*
X99700000Y-123671207D01*
X99700000Y-123828793D01*
X99730743Y-123983351D01*
X99791049Y-124128942D01*
X99878599Y-124259970D01*
X99990030Y-124371401D01*
X100121058Y-124458951D01*
X100266649Y-124519257D01*
X100421207Y-124550000D01*
X100578793Y-124550000D01*
X100733351Y-124519257D01*
X100878942Y-124458951D01*
X101009970Y-124371401D01*
X101121401Y-124259970D01*
X101208951Y-124128942D01*
X101269257Y-123983351D01*
X101300000Y-123828793D01*
X101300000Y-123671207D01*
X101269257Y-123516649D01*
X101208951Y-123371058D01*
X101200000Y-123357662D01*
X101200000Y-121392338D01*
X101208951Y-121378942D01*
X101269257Y-121233351D01*
X101300000Y-121078793D01*
X101300000Y-120921207D01*
X101269257Y-120766649D01*
X101208951Y-120621058D01*
X101121401Y-120490030D01*
X101052578Y-120421207D01*
X131950000Y-120421207D01*
X131950000Y-120578793D01*
X131980743Y-120733351D01*
X132041049Y-120878942D01*
X132050000Y-120892338D01*
X132050001Y-123107661D01*
X132041049Y-123121058D01*
X131980743Y-123266649D01*
X131950000Y-123421207D01*
X131950000Y-123578793D01*
X131980743Y-123733351D01*
X132041049Y-123878942D01*
X132128599Y-124009970D01*
X132240030Y-124121401D01*
X132371058Y-124208951D01*
X132516649Y-124269257D01*
X132671207Y-124300000D01*
X132828793Y-124300000D01*
X132983351Y-124269257D01*
X133128942Y-124208951D01*
X133259970Y-124121401D01*
X133371401Y-124009970D01*
X133458951Y-123878942D01*
X133519257Y-123733351D01*
X133550000Y-123578793D01*
X133550000Y-123421207D01*
X133519257Y-123266649D01*
X133458951Y-123121058D01*
X133450000Y-123107662D01*
X133450000Y-120892338D01*
X133458951Y-120878942D01*
X133519257Y-120733351D01*
X133550000Y-120578793D01*
X133550000Y-120421207D01*
X133519257Y-120266649D01*
X133458951Y-120121058D01*
X133371401Y-119990030D01*
X133259970Y-119878599D01*
X133128942Y-119791049D01*
X132983351Y-119730743D01*
X132828793Y-119700000D01*
X132671207Y-119700000D01*
X132516649Y-119730743D01*
X132371058Y-119791049D01*
X132240030Y-119878599D01*
X132128599Y-119990030D01*
X132041049Y-120121058D01*
X131980743Y-120266649D01*
X131950000Y-120421207D01*
X101052578Y-120421207D01*
X101009970Y-120378599D01*
X100878942Y-120291049D01*
X100733351Y-120230743D01*
X100578793Y-120200000D01*
X100421207Y-120200000D01*
X100266649Y-120230743D01*
X100121058Y-120291049D01*
X99990030Y-120378599D01*
X99878599Y-120490030D01*
X99791049Y-120621058D01*
X99730743Y-120766649D01*
X99700000Y-120921207D01*
X90475000Y-120921207D01*
X90475000Y-110958427D01*
X90681835Y-111267978D01*
X91232022Y-111818165D01*
X91878974Y-112250444D01*
X92597828Y-112548203D01*
X93360959Y-112700000D01*
X94139041Y-112700000D01*
X94902172Y-112548203D01*
X95621026Y-112250444D01*
X96267978Y-111818165D01*
X96818165Y-111267978D01*
X97250444Y-110621026D01*
X97352015Y-110375811D01*
X100515610Y-110375811D01*
X100608138Y-110647674D01*
X100897947Y-110794812D01*
X101210892Y-110882584D01*
X101534949Y-110907616D01*
X101857662Y-110868947D01*
X102166631Y-110768063D01*
X102391862Y-110647674D01*
X102484390Y-110375811D01*
X101500000Y-109391421D01*
X100515610Y-110375811D01*
X97352015Y-110375811D01*
X97548203Y-109902172D01*
X97670976Y-109284949D01*
X99842384Y-109284949D01*
X99881053Y-109607662D01*
X99981937Y-109916631D01*
X100102326Y-110141862D01*
X100374189Y-110234390D01*
X101358579Y-109250000D01*
X101641421Y-109250000D01*
X102625811Y-110234390D01*
X102897674Y-110141862D01*
X103044812Y-109852053D01*
X103132584Y-109539108D01*
X103157616Y-109215051D01*
X103144692Y-109107187D01*
X103550000Y-109107187D01*
X103550000Y-109392813D01*
X103605723Y-109672949D01*
X103715027Y-109936833D01*
X103873711Y-110174321D01*
X104075679Y-110376289D01*
X104313167Y-110534973D01*
X104577051Y-110644277D01*
X104857187Y-110700000D01*
X105142813Y-110700000D01*
X105422949Y-110644277D01*
X105686833Y-110534973D01*
X105924321Y-110376289D01*
X106126289Y-110174321D01*
X106284973Y-109936833D01*
X106394277Y-109672949D01*
X106450000Y-109392813D01*
X106450000Y-109107187D01*
X107050000Y-109107187D01*
X107050000Y-109392813D01*
X107105723Y-109672949D01*
X107215027Y-109936833D01*
X107373711Y-110174321D01*
X107575679Y-110376289D01*
X107813167Y-110534973D01*
X108077051Y-110644277D01*
X108357187Y-110700000D01*
X108642813Y-110700000D01*
X108922949Y-110644277D01*
X109186833Y-110534973D01*
X109424321Y-110376289D01*
X109626289Y-110174321D01*
X109784973Y-109936833D01*
X109894277Y-109672949D01*
X109950000Y-109392813D01*
X109950000Y-109107187D01*
X116300000Y-109107187D01*
X116300000Y-109392813D01*
X116355723Y-109672949D01*
X116465027Y-109936833D01*
X116623711Y-110174321D01*
X116825679Y-110376289D01*
X117063167Y-110534973D01*
X117327051Y-110644277D01*
X117607187Y-110700000D01*
X117892813Y-110700000D01*
X118172949Y-110644277D01*
X118436833Y-110534973D01*
X118674321Y-110376289D01*
X118674799Y-110375811D01*
X120265610Y-110375811D01*
X120358138Y-110647674D01*
X120647947Y-110794812D01*
X120960892Y-110882584D01*
X121284949Y-110907616D01*
X121607662Y-110868947D01*
X121916631Y-110768063D01*
X122141862Y-110647674D01*
X122234390Y-110375811D01*
X121250000Y-109391421D01*
X120265610Y-110375811D01*
X118674799Y-110375811D01*
X118876289Y-110174321D01*
X119034973Y-109936833D01*
X119144277Y-109672949D01*
X119200000Y-109392813D01*
X119200000Y-109284949D01*
X119592384Y-109284949D01*
X119631053Y-109607662D01*
X119731937Y-109916631D01*
X119852326Y-110141862D01*
X120124189Y-110234390D01*
X121108579Y-109250000D01*
X121391421Y-109250000D01*
X122375811Y-110234390D01*
X122647674Y-110141862D01*
X122794812Y-109852053D01*
X122882584Y-109539108D01*
X122907616Y-109215051D01*
X122894692Y-109107187D01*
X123300000Y-109107187D01*
X123300000Y-109392813D01*
X123355723Y-109672949D01*
X123465027Y-109936833D01*
X123623711Y-110174321D01*
X123825679Y-110376289D01*
X124063167Y-110534973D01*
X124327051Y-110644277D01*
X124607187Y-110700000D01*
X124892813Y-110700000D01*
X125172949Y-110644277D01*
X125436833Y-110534973D01*
X125674321Y-110376289D01*
X125674799Y-110375811D01*
X133015610Y-110375811D01*
X133108138Y-110647674D01*
X133397947Y-110794812D01*
X133710892Y-110882584D01*
X134034949Y-110907616D01*
X134357662Y-110868947D01*
X134666631Y-110768063D01*
X134891862Y-110647674D01*
X134984390Y-110375811D01*
X134000000Y-109391421D01*
X133015610Y-110375811D01*
X125674799Y-110375811D01*
X125876289Y-110174321D01*
X126034973Y-109936833D01*
X126144277Y-109672949D01*
X126200000Y-109392813D01*
X126200000Y-109284949D01*
X132342384Y-109284949D01*
X132381053Y-109607662D01*
X132481937Y-109916631D01*
X132602326Y-110141862D01*
X132874189Y-110234390D01*
X133858579Y-109250000D01*
X134141421Y-109250000D01*
X135125811Y-110234390D01*
X135397674Y-110141862D01*
X135544812Y-109852053D01*
X135632584Y-109539108D01*
X135657616Y-109215051D01*
X135644692Y-109107187D01*
X136050000Y-109107187D01*
X136050000Y-109392813D01*
X136105723Y-109672949D01*
X136215027Y-109936833D01*
X136373711Y-110174321D01*
X136575679Y-110376289D01*
X136813167Y-110534973D01*
X137077051Y-110644277D01*
X137357187Y-110700000D01*
X137642813Y-110700000D01*
X137922949Y-110644277D01*
X138186833Y-110534973D01*
X138424321Y-110376289D01*
X138626289Y-110174321D01*
X138784973Y-109936833D01*
X138894277Y-109672949D01*
X138950000Y-109392813D01*
X138950000Y-109107187D01*
X139550000Y-109107187D01*
X139550000Y-109392813D01*
X139605723Y-109672949D01*
X139715027Y-109936833D01*
X139873711Y-110174321D01*
X140075679Y-110376289D01*
X140313167Y-110534973D01*
X140577051Y-110644277D01*
X140857187Y-110700000D01*
X141142813Y-110700000D01*
X141422949Y-110644277D01*
X141686833Y-110534973D01*
X141924321Y-110376289D01*
X142126289Y-110174321D01*
X142284973Y-109936833D01*
X142394277Y-109672949D01*
X142450000Y-109392813D01*
X142450000Y-109107187D01*
X142394277Y-108827051D01*
X142284973Y-108563167D01*
X142126289Y-108325679D01*
X141924321Y-108123711D01*
X141686833Y-107965027D01*
X141422949Y-107855723D01*
X141142813Y-107800000D01*
X140857187Y-107800000D01*
X140577051Y-107855723D01*
X140313167Y-107965027D01*
X140075679Y-108123711D01*
X139873711Y-108325679D01*
X139715027Y-108563167D01*
X139605723Y-108827051D01*
X139550000Y-109107187D01*
X138950000Y-109107187D01*
X138894277Y-108827051D01*
X138784973Y-108563167D01*
X138626289Y-108325679D01*
X138424321Y-108123711D01*
X138186833Y-107965027D01*
X137922949Y-107855723D01*
X137642813Y-107800000D01*
X137357187Y-107800000D01*
X137077051Y-107855723D01*
X136813167Y-107965027D01*
X136575679Y-108123711D01*
X136373711Y-108325679D01*
X136215027Y-108563167D01*
X136105723Y-108827051D01*
X136050000Y-109107187D01*
X135644692Y-109107187D01*
X135618947Y-108892338D01*
X135518063Y-108583369D01*
X135397674Y-108358138D01*
X135125811Y-108265610D01*
X134141421Y-109250000D01*
X133858579Y-109250000D01*
X132874189Y-108265610D01*
X132602326Y-108358138D01*
X132455188Y-108647947D01*
X132367416Y-108960892D01*
X132342384Y-109284949D01*
X126200000Y-109284949D01*
X126200000Y-109107187D01*
X126144277Y-108827051D01*
X126034973Y-108563167D01*
X125876289Y-108325679D01*
X125674799Y-108124189D01*
X133015610Y-108124189D01*
X134000000Y-109108579D01*
X134984390Y-108124189D01*
X134891862Y-107852326D01*
X134602053Y-107705188D01*
X134289108Y-107617416D01*
X133965051Y-107592384D01*
X133642338Y-107631053D01*
X133333369Y-107731937D01*
X133108138Y-107852326D01*
X133015610Y-108124189D01*
X125674799Y-108124189D01*
X125674321Y-108123711D01*
X125450000Y-107973825D01*
X125450000Y-106892338D01*
X125458951Y-106878942D01*
X125519257Y-106733351D01*
X125550000Y-106578793D01*
X125550000Y-106421207D01*
X125519257Y-106266649D01*
X125458951Y-106121058D01*
X125371401Y-105990030D01*
X125259970Y-105878599D01*
X125128942Y-105791049D01*
X124983351Y-105730743D01*
X124828793Y-105700000D01*
X124671207Y-105700000D01*
X124516649Y-105730743D01*
X124371058Y-105791049D01*
X124240030Y-105878599D01*
X124128599Y-105990030D01*
X124041049Y-106121058D01*
X123980743Y-106266649D01*
X123950000Y-106421207D01*
X123950000Y-106578793D01*
X123980743Y-106733351D01*
X124041049Y-106878942D01*
X124050001Y-106892339D01*
X124050000Y-107973825D01*
X123825679Y-108123711D01*
X123623711Y-108325679D01*
X123465027Y-108563167D01*
X123355723Y-108827051D01*
X123300000Y-109107187D01*
X122894692Y-109107187D01*
X122868947Y-108892338D01*
X122768063Y-108583369D01*
X122647674Y-108358138D01*
X122375811Y-108265610D01*
X121391421Y-109250000D01*
X121108579Y-109250000D01*
X120124189Y-108265610D01*
X119852326Y-108358138D01*
X119705188Y-108647947D01*
X119617416Y-108960892D01*
X119592384Y-109284949D01*
X119200000Y-109284949D01*
X119200000Y-109107187D01*
X119144277Y-108827051D01*
X119034973Y-108563167D01*
X118876289Y-108325679D01*
X118674799Y-108124189D01*
X120265610Y-108124189D01*
X121250000Y-109108579D01*
X122234390Y-108124189D01*
X122141862Y-107852326D01*
X121852053Y-107705188D01*
X121539108Y-107617416D01*
X121215051Y-107592384D01*
X120892338Y-107631053D01*
X120583369Y-107731937D01*
X120358138Y-107852326D01*
X120265610Y-108124189D01*
X118674799Y-108124189D01*
X118674321Y-108123711D01*
X118436833Y-107965027D01*
X118172949Y-107855723D01*
X117892813Y-107800000D01*
X117607187Y-107800000D01*
X117327051Y-107855723D01*
X117063167Y-107965027D01*
X116825679Y-108123711D01*
X116623711Y-108325679D01*
X116465027Y-108563167D01*
X116355723Y-108827051D01*
X116300000Y-109107187D01*
X109950000Y-109107187D01*
X109894277Y-108827051D01*
X109784973Y-108563167D01*
X109626289Y-108325679D01*
X109424321Y-108123711D01*
X109186833Y-107965027D01*
X108922949Y-107855723D01*
X108642813Y-107800000D01*
X108357187Y-107800000D01*
X108077051Y-107855723D01*
X107813167Y-107965027D01*
X107575679Y-108123711D01*
X107373711Y-108325679D01*
X107215027Y-108563167D01*
X107105723Y-108827051D01*
X107050000Y-109107187D01*
X106450000Y-109107187D01*
X106394277Y-108827051D01*
X106284973Y-108563167D01*
X106126289Y-108325679D01*
X105924321Y-108123711D01*
X105686833Y-107965027D01*
X105422949Y-107855723D01*
X105142813Y-107800000D01*
X104857187Y-107800000D01*
X104577051Y-107855723D01*
X104313167Y-107965027D01*
X104075679Y-108123711D01*
X103873711Y-108325679D01*
X103715027Y-108563167D01*
X103605723Y-108827051D01*
X103550000Y-109107187D01*
X103144692Y-109107187D01*
X103118947Y-108892338D01*
X103018063Y-108583369D01*
X102897674Y-108358138D01*
X102625811Y-108265610D01*
X101641421Y-109250000D01*
X101358579Y-109250000D01*
X100374189Y-108265610D01*
X100102326Y-108358138D01*
X99955188Y-108647947D01*
X99867416Y-108960892D01*
X99842384Y-109284949D01*
X97670976Y-109284949D01*
X97700000Y-109139041D01*
X97700000Y-108360959D01*
X97652904Y-108124189D01*
X100515610Y-108124189D01*
X101500000Y-109108579D01*
X102484390Y-108124189D01*
X102391862Y-107852326D01*
X102102053Y-107705188D01*
X101789108Y-107617416D01*
X101465051Y-107592384D01*
X101142338Y-107631053D01*
X100833369Y-107731937D01*
X100608138Y-107852326D01*
X100515610Y-108124189D01*
X97652904Y-108124189D01*
X97548203Y-107597828D01*
X97250444Y-106878974D01*
X96818165Y-106232022D01*
X96267978Y-105681835D01*
X95958427Y-105475000D01*
X146541573Y-105475000D01*
X146232022Y-105681835D01*
%TD*%
M02*
