%TF.GenerationSoftware,KiCad,Pcbnew,(5.1.6-0)*%
%TF.CreationDate,2023-04-12T18:51:22-07:00*%
%TF.ProjectId,input_buffer_bal_XLR_SMD_1206,696e7075-745f-4627-9566-6665725f6261,rev?*%
%TF.SameCoordinates,Original*%
%TF.FileFunction,Copper,L2,Bot*%
%TF.FilePolarity,Positive*%
%FSLAX46Y46*%
G04 Gerber Fmt 4.6, Leading zero omitted, Abs format (unit mm)*
G04 Created by KiCad (PCBNEW (5.1.6-0)) date 2023-04-12 18:51:22*
%MOMM*%
%LPD*%
G01*
G04 APERTURE LIST*
%TA.AperFunction,ComponentPad*%
%ADD10C,0.800000*%
%TD*%
%TA.AperFunction,ComponentPad*%
%ADD11C,7.000000*%
%TD*%
%TA.AperFunction,ComponentPad*%
%ADD12C,2.900000*%
%TD*%
%TA.AperFunction,ComponentPad*%
%ADD13C,3.400000*%
%TD*%
%TA.AperFunction,ComponentPad*%
%ADD14C,2.000000*%
%TD*%
%TA.AperFunction,ViaPad*%
%ADD15C,0.700000*%
%TD*%
%TA.AperFunction,Conductor*%
%ADD16C,0.500000*%
%TD*%
%TA.AperFunction,Conductor*%
%ADD17C,0.300000*%
%TD*%
G04 APERTURE END LIST*
D10*
%TO.P,H2,1*%
%TO.N,N/C*%
X150606155Y-106893845D03*
X148750000Y-106125000D03*
X146893845Y-106893845D03*
X146125000Y-108750000D03*
X146893845Y-110606155D03*
X148750000Y-111375000D03*
X150606155Y-110606155D03*
X151375000Y-108750000D03*
D11*
X148750000Y-108750000D03*
%TD*%
D10*
%TO.P,H1,1*%
%TO.N,N/C*%
X95606155Y-106893845D03*
X93750000Y-106125000D03*
X91893845Y-106893845D03*
X91125000Y-108750000D03*
X91893845Y-110606155D03*
X93750000Y-111375000D03*
X95606155Y-110606155D03*
X96375000Y-108750000D03*
D11*
X93750000Y-108750000D03*
%TD*%
D12*
%TO.P,J2,G*%
%TO.N,GND*%
X145750000Y-147760000D03*
%TO.P,J2,3*%
%TO.N,Net-(D4-Pad2)*%
X137500000Y-137590000D03*
D13*
%TO.P,J2,2*%
%TO.N,Net-(D3-Pad1)*%
X133690000Y-141405000D03*
%TO.P,J2,1*%
%TO.N,GND*%
X141310000Y-142040000D03*
%TD*%
D12*
%TO.P,J1,G*%
%TO.N,GND*%
X113250000Y-147760000D03*
%TO.P,J1,3*%
%TO.N,Net-(D2-Pad2)*%
X105000000Y-137590000D03*
D13*
%TO.P,J1,2*%
%TO.N,Net-(D1-Pad1)*%
X101190000Y-141405000D03*
%TO.P,J1,1*%
%TO.N,GND*%
X108810000Y-142040000D03*
%TD*%
D14*
%TO.P,J5,3*%
%TO.N,GND*%
X134000000Y-109250000D03*
%TO.P,J5,2*%
%TO.N,Net-(J5-Pad2)*%
X137500000Y-109250000D03*
%TO.P,J5,1*%
%TO.N,Net-(J5-Pad1)*%
X141000000Y-109250000D03*
%TD*%
%TO.P,J4,3*%
%TO.N,GND*%
X101500000Y-109250000D03*
%TO.P,J4,2*%
%TO.N,Net-(J4-Pad2)*%
X105000000Y-109250000D03*
%TO.P,J4,1*%
%TO.N,Net-(J4-Pad1)*%
X108500000Y-109250000D03*
%TD*%
%TO.P,J3,3*%
%TO.N,+15V*%
X117750000Y-109250000D03*
%TO.P,J3,2*%
%TO.N,GND*%
X121250000Y-109250000D03*
%TO.P,J3,1*%
%TO.N,-15V*%
X124750000Y-109250000D03*
%TD*%
D15*
%TO.N,GND*%
X103325000Y-117000000D03*
X106750000Y-126000000D03*
X109750000Y-128250000D03*
X100250000Y-128250000D03*
X94750000Y-122250000D03*
X105000000Y-130250000D03*
X115250000Y-122250000D03*
X137500000Y-130250000D03*
X142750000Y-128250000D03*
X132250000Y-128250000D03*
X139000000Y-126000000D03*
X135750000Y-117000000D03*
X148250000Y-122250000D03*
X126750000Y-122250000D03*
X91651191Y-113492500D03*
X91651191Y-117492500D03*
X91651191Y-121492500D03*
X91651191Y-125492500D03*
X91651191Y-129492500D03*
X91651191Y-133492500D03*
X91651191Y-137492500D03*
X91651191Y-141492500D03*
X91651191Y-145492500D03*
X91651191Y-149492500D03*
X91651191Y-153492500D03*
X93651191Y-115492500D03*
X93651191Y-119492500D03*
X93651191Y-127492500D03*
X93651191Y-131492500D03*
X93651191Y-135492500D03*
X93651191Y-139492500D03*
X93651191Y-143492500D03*
X93651191Y-147492500D03*
X93651191Y-151492500D03*
X93651191Y-155492500D03*
X94651191Y-124492500D03*
X95651191Y-113492500D03*
X95651191Y-117492500D03*
X95651191Y-137492500D03*
X95651191Y-141492500D03*
X95651191Y-145492500D03*
X95651191Y-149492500D03*
X95651191Y-153492500D03*
X96651191Y-120492500D03*
X97651191Y-115492500D03*
X97651191Y-127492500D03*
X97651191Y-131492500D03*
X97651191Y-135492500D03*
X97651191Y-139492500D03*
X97651191Y-143492500D03*
X97651191Y-147492500D03*
X97651191Y-151492500D03*
X97651191Y-155492500D03*
X98651191Y-106492500D03*
X98651191Y-118492500D03*
X99651191Y-133492500D03*
X99651191Y-137492500D03*
X99651191Y-149492500D03*
X99651191Y-153492500D03*
X100651191Y-112492500D03*
X101651191Y-115492500D03*
X101651191Y-135492500D03*
X101651191Y-151492500D03*
X101651191Y-155492500D03*
X102651191Y-147492500D03*
X103651191Y-113492500D03*
X103651191Y-133492500D03*
X103651191Y-143492500D03*
X103651191Y-153492500D03*
X104651191Y-119492500D03*
X104651191Y-123492500D03*
X104651191Y-140492500D03*
X104651191Y-149492500D03*
X105651191Y-111492500D03*
X105651191Y-145492500D03*
X105651191Y-155492500D03*
X106651191Y-127492500D03*
X106651191Y-134492500D03*
X106651191Y-151492500D03*
X107651191Y-124492500D03*
X107651191Y-138492500D03*
X107651191Y-147492500D03*
X108651191Y-112492500D03*
X108651191Y-118492500D03*
X108651191Y-153492500D03*
X109651191Y-115492500D03*
X109651191Y-130492500D03*
X109651191Y-135492500D03*
X109651191Y-145492500D03*
X110651191Y-109492500D03*
X110651191Y-149492500D03*
X110651191Y-155492500D03*
X111651191Y-113492500D03*
X111651191Y-117492500D03*
X111651191Y-132492500D03*
X111651191Y-137492500D03*
X111651191Y-152492500D03*
X112651191Y-120492500D03*
X112651191Y-127492500D03*
X112651191Y-140492500D03*
X112651191Y-144492500D03*
X113651191Y-110492500D03*
X113651191Y-115492500D03*
X113651191Y-135492500D03*
X113651191Y-154492500D03*
X114651191Y-118492500D03*
X114651191Y-138492500D03*
X114651191Y-142492500D03*
X114651191Y-150492500D03*
X115651191Y-112492500D03*
X115651191Y-124492500D03*
X115651191Y-128492500D03*
X115651191Y-132492500D03*
X115651191Y-145492500D03*
X116651191Y-116492500D03*
X116651191Y-120492500D03*
X116651191Y-136492500D03*
X116651191Y-140492500D03*
X116651191Y-148492500D03*
X116651191Y-152492500D03*
X117651191Y-126492500D03*
X117651191Y-130492500D03*
X117651191Y-143492500D03*
X117651191Y-155492500D03*
X118651191Y-111492500D03*
X118651191Y-118492500D03*
X118651191Y-122492500D03*
X118651191Y-133492500D03*
X118651191Y-138492500D03*
X118651191Y-146492500D03*
X118651191Y-150492500D03*
X119651191Y-114492500D03*
X119651191Y-128492500D03*
X119651191Y-141492500D03*
X119651191Y-153492500D03*
X120651191Y-120492500D03*
X120651191Y-124492500D03*
X120651191Y-131492500D03*
X120651191Y-135492500D03*
X120651191Y-144492500D03*
X120651191Y-148492500D03*
X121651191Y-112492500D03*
X121651191Y-116492500D03*
X121651191Y-139492500D03*
X121651191Y-151492500D03*
X121651191Y-155492500D03*
X122651191Y-122492500D03*
X122651191Y-126492500D03*
X122651191Y-133492500D03*
X122651191Y-142492500D03*
X122651191Y-146492500D03*
X123651191Y-114492500D03*
X123651191Y-118492500D03*
X123651191Y-129492500D03*
X123651191Y-136492500D03*
X123651191Y-149492500D03*
X123651191Y-153492500D03*
X124651191Y-111492500D03*
X124651191Y-124492500D03*
X124651191Y-140492500D03*
X124651191Y-144492500D03*
X125651191Y-116492500D03*
X125651191Y-120492500D03*
X125651191Y-127492500D03*
X125651191Y-131492500D03*
X125651191Y-147492500D03*
X125651191Y-151492500D03*
X125651191Y-155492500D03*
X126651191Y-106492500D03*
X126651191Y-113492500D03*
X126651191Y-134492500D03*
X126651191Y-138492500D03*
X126651191Y-142492500D03*
X127651191Y-109492500D03*
X127651191Y-118492500D03*
X127651191Y-145492500D03*
X127651191Y-149492500D03*
X127651191Y-153492500D03*
X128651191Y-115492500D03*
X128651191Y-140492500D03*
X129651191Y-111492500D03*
X129651191Y-120492500D03*
X129651191Y-127492500D03*
X129651191Y-131492500D03*
X129651191Y-135492500D03*
X129651191Y-143492500D03*
X129651191Y-147492500D03*
X129651191Y-151492500D03*
X129651191Y-155492500D03*
X130651191Y-106492500D03*
X130651191Y-117492500D03*
X131651191Y-109492500D03*
X131651191Y-113492500D03*
X131651191Y-133492500D03*
X131651191Y-137492500D03*
X131651191Y-145492500D03*
X131651191Y-149492500D03*
X131651191Y-153492500D03*
X132651191Y-130492500D03*
X133651191Y-115492500D03*
X133651191Y-135492500D03*
X133651191Y-151492500D03*
X133651191Y-155492500D03*
X134651191Y-106492500D03*
X134651191Y-138492500D03*
X134651191Y-148492500D03*
X135651191Y-113492500D03*
X135651191Y-133492500D03*
X135651191Y-144492500D03*
X135651191Y-153492500D03*
X136651191Y-119492500D03*
X136651191Y-123492500D03*
X136651191Y-140492500D03*
X136651191Y-150492500D03*
X137651191Y-111492500D03*
X137651191Y-146492500D03*
X137651191Y-155492500D03*
X138651191Y-106492500D03*
X138651191Y-114492500D03*
X138651191Y-134492500D03*
X138651191Y-152492500D03*
X139651191Y-124492500D03*
X139651191Y-148492500D03*
X140651191Y-136492500D03*
X140651191Y-145492500D03*
X140651191Y-154492500D03*
X141651191Y-112492500D03*
X141651191Y-116492500D03*
X141651191Y-133492500D03*
X142651191Y-106492500D03*
X142651191Y-130492500D03*
X142651191Y-138492500D03*
X142651191Y-147492500D03*
X143651191Y-109492500D03*
X143651191Y-144492500D03*
X143651191Y-150492500D03*
X143651191Y-155492500D03*
X144651191Y-113492500D03*
X144651191Y-117492500D03*
X144651191Y-132492500D03*
X144651191Y-140492500D03*
X145651191Y-120492500D03*
X145651191Y-127492500D03*
X145651191Y-136492500D03*
X145651191Y-152492500D03*
X146651191Y-115492500D03*
X146651191Y-142492500D03*
X147651191Y-118492500D03*
X147651191Y-134492500D03*
X147651191Y-138492500D03*
X147651191Y-145492500D03*
X147651191Y-150492500D03*
X147651191Y-154492500D03*
X148651191Y-113492500D03*
X148651191Y-124492500D03*
X148651191Y-128492500D03*
X149651191Y-116492500D03*
X149651191Y-120492500D03*
X149651191Y-131492500D03*
X149651191Y-136492500D03*
X149651191Y-140492500D03*
X149651191Y-147492500D03*
X149651191Y-152492500D03*
X150651191Y-126492500D03*
X150651191Y-143492500D03*
X150651191Y-155492500D03*
X101400000Y-124300000D03*
X99525000Y-120725000D03*
X131750000Y-120500000D03*
X133650000Y-124175000D03*
%TO.N,-15V*%
X132750000Y-120500000D03*
X132750000Y-123500000D03*
X124750000Y-106500000D03*
X100500000Y-121000000D03*
X100500000Y-123750000D03*
%TD*%
D16*
%TO.N,-15V*%
X132750000Y-120500000D02*
X132750000Y-123500000D01*
X124750000Y-109250000D02*
X124750000Y-106500000D01*
X100500000Y-121000000D02*
X100500000Y-123750000D01*
%TD*%
D17*
%TO.N,GND*%
G36*
X146232022Y-105681835D02*
G01*
X145681835Y-106232022D01*
X145249556Y-106878974D01*
X144951797Y-107597828D01*
X144800000Y-108360959D01*
X144800000Y-109139041D01*
X144951797Y-109902172D01*
X145249556Y-110621026D01*
X145681835Y-111267978D01*
X146232022Y-111818165D01*
X146878974Y-112250444D01*
X147597828Y-112548203D01*
X148360959Y-112700000D01*
X149139041Y-112700000D01*
X149902172Y-112548203D01*
X150621026Y-112250444D01*
X151267978Y-111818165D01*
X151818165Y-111267978D01*
X152025001Y-110958426D01*
X152025000Y-154976769D01*
X151984200Y-155392881D01*
X151870099Y-155770801D01*
X151684769Y-156119356D01*
X151435263Y-156425281D01*
X151131093Y-156676912D01*
X150783834Y-156864674D01*
X150406727Y-156981408D01*
X149991978Y-157025000D01*
X92523231Y-157025000D01*
X92107119Y-156984200D01*
X91729199Y-156870099D01*
X91380644Y-156684769D01*
X91074719Y-156435263D01*
X90823088Y-156131093D01*
X90635326Y-155783834D01*
X90518592Y-155406727D01*
X90475000Y-154991978D01*
X90475000Y-150806886D01*
X107560000Y-150806886D01*
X107560000Y-151053114D01*
X107608037Y-151294611D01*
X107702265Y-151522097D01*
X107839062Y-151726828D01*
X108013172Y-151900938D01*
X108217903Y-152037735D01*
X108445389Y-152131963D01*
X108686886Y-152180000D01*
X108933114Y-152180000D01*
X109174611Y-152131963D01*
X109402097Y-152037735D01*
X109606828Y-151900938D01*
X109780938Y-151726828D01*
X109917735Y-151522097D01*
X110011963Y-151294611D01*
X110060000Y-151053114D01*
X110060000Y-150806886D01*
X140060000Y-150806886D01*
X140060000Y-151053114D01*
X140108037Y-151294611D01*
X140202265Y-151522097D01*
X140339062Y-151726828D01*
X140513172Y-151900938D01*
X140717903Y-152037735D01*
X140945389Y-152131963D01*
X141186886Y-152180000D01*
X141433114Y-152180000D01*
X141674611Y-152131963D01*
X141902097Y-152037735D01*
X142106828Y-151900938D01*
X142280938Y-151726828D01*
X142417735Y-151522097D01*
X142511963Y-151294611D01*
X142560000Y-151053114D01*
X142560000Y-150806886D01*
X142511963Y-150565389D01*
X142417735Y-150337903D01*
X142280938Y-150133172D01*
X142106828Y-149959062D01*
X141902097Y-149822265D01*
X141674611Y-149728037D01*
X141433114Y-149680000D01*
X141186886Y-149680000D01*
X140945389Y-149728037D01*
X140717903Y-149822265D01*
X140513172Y-149959062D01*
X140339062Y-150133172D01*
X140202265Y-150337903D01*
X140108037Y-150565389D01*
X140060000Y-150806886D01*
X110060000Y-150806886D01*
X110011963Y-150565389D01*
X109917735Y-150337903D01*
X109780938Y-150133172D01*
X109606828Y-149959062D01*
X109402097Y-149822265D01*
X109174611Y-149728037D01*
X108933114Y-149680000D01*
X108686886Y-149680000D01*
X108445389Y-149728037D01*
X108217903Y-149822265D01*
X108013172Y-149959062D01*
X107839062Y-150133172D01*
X107702265Y-150337903D01*
X107608037Y-150565389D01*
X107560000Y-150806886D01*
X90475000Y-150806886D01*
X90475000Y-149206098D01*
X111945323Y-149206098D01*
X112091974Y-149524016D01*
X112458368Y-149716040D01*
X112855183Y-149832896D01*
X113267171Y-149870090D01*
X113678500Y-149826196D01*
X114073361Y-149702898D01*
X114408026Y-149524016D01*
X114554677Y-149206098D01*
X144445323Y-149206098D01*
X144591974Y-149524016D01*
X144958368Y-149716040D01*
X145355183Y-149832896D01*
X145767171Y-149870090D01*
X146178500Y-149826196D01*
X146573361Y-149702898D01*
X146908026Y-149524016D01*
X147054677Y-149206098D01*
X145750000Y-147901421D01*
X144445323Y-149206098D01*
X114554677Y-149206098D01*
X113250000Y-147901421D01*
X111945323Y-149206098D01*
X90475000Y-149206098D01*
X90475000Y-147777171D01*
X111139910Y-147777171D01*
X111183804Y-148188500D01*
X111307102Y-148583361D01*
X111485984Y-148918026D01*
X111803902Y-149064677D01*
X113108579Y-147760000D01*
X113391421Y-147760000D01*
X114696098Y-149064677D01*
X115014016Y-148918026D01*
X115206040Y-148551632D01*
X115322896Y-148154817D01*
X115356989Y-147777171D01*
X143639910Y-147777171D01*
X143683804Y-148188500D01*
X143807102Y-148583361D01*
X143985984Y-148918026D01*
X144303902Y-149064677D01*
X145608579Y-147760000D01*
X145891421Y-147760000D01*
X147196098Y-149064677D01*
X147514016Y-148918026D01*
X147706040Y-148551632D01*
X147822896Y-148154817D01*
X147860090Y-147742829D01*
X147816196Y-147331500D01*
X147692898Y-146936639D01*
X147514016Y-146601974D01*
X147196098Y-146455323D01*
X145891421Y-147760000D01*
X145608579Y-147760000D01*
X144303902Y-146455323D01*
X143985984Y-146601974D01*
X143793960Y-146968368D01*
X143677104Y-147365183D01*
X143639910Y-147777171D01*
X115356989Y-147777171D01*
X115360090Y-147742829D01*
X115316196Y-147331500D01*
X115192898Y-146936639D01*
X115014016Y-146601974D01*
X114696098Y-146455323D01*
X113391421Y-147760000D01*
X113108579Y-147760000D01*
X111803902Y-146455323D01*
X111485984Y-146601974D01*
X111293960Y-146968368D01*
X111177104Y-147365183D01*
X111139910Y-147777171D01*
X90475000Y-147777171D01*
X90475000Y-145726886D01*
X99940000Y-145726886D01*
X99940000Y-145973114D01*
X99988037Y-146214611D01*
X100082265Y-146442097D01*
X100219062Y-146646828D01*
X100393172Y-146820938D01*
X100597903Y-146957735D01*
X100825389Y-147051963D01*
X101066886Y-147100000D01*
X101313114Y-147100000D01*
X101554611Y-147051963D01*
X101782097Y-146957735D01*
X101986828Y-146820938D01*
X102160938Y-146646828D01*
X102297735Y-146442097D01*
X102350835Y-146313902D01*
X111945323Y-146313902D01*
X113250000Y-147618579D01*
X114554677Y-146313902D01*
X114408026Y-145995984D01*
X114041632Y-145803960D01*
X113779908Y-145726886D01*
X132440000Y-145726886D01*
X132440000Y-145973114D01*
X132488037Y-146214611D01*
X132582265Y-146442097D01*
X132719062Y-146646828D01*
X132893172Y-146820938D01*
X133097903Y-146957735D01*
X133325389Y-147051963D01*
X133566886Y-147100000D01*
X133813114Y-147100000D01*
X134054611Y-147051963D01*
X134282097Y-146957735D01*
X134486828Y-146820938D01*
X134660938Y-146646828D01*
X134797735Y-146442097D01*
X134850835Y-146313902D01*
X144445323Y-146313902D01*
X145750000Y-147618579D01*
X147054677Y-146313902D01*
X146908026Y-145995984D01*
X146541632Y-145803960D01*
X146144817Y-145687104D01*
X145732829Y-145649910D01*
X145321500Y-145693804D01*
X144926639Y-145817102D01*
X144591974Y-145995984D01*
X144445323Y-146313902D01*
X134850835Y-146313902D01*
X134891963Y-146214611D01*
X134940000Y-145973114D01*
X134940000Y-145726886D01*
X134891963Y-145485389D01*
X134797735Y-145257903D01*
X134660938Y-145053172D01*
X134486828Y-144879062D01*
X134282097Y-144742265D01*
X134054611Y-144648037D01*
X133813114Y-144600000D01*
X133566886Y-144600000D01*
X133325389Y-144648037D01*
X133097903Y-144742265D01*
X132893172Y-144879062D01*
X132719062Y-145053172D01*
X132582265Y-145257903D01*
X132488037Y-145485389D01*
X132440000Y-145726886D01*
X113779908Y-145726886D01*
X113644817Y-145687104D01*
X113232829Y-145649910D01*
X112821500Y-145693804D01*
X112426639Y-145817102D01*
X112091974Y-145995984D01*
X111945323Y-146313902D01*
X102350835Y-146313902D01*
X102391963Y-146214611D01*
X102440000Y-145973114D01*
X102440000Y-145726886D01*
X102391963Y-145485389D01*
X102297735Y-145257903D01*
X102160938Y-145053172D01*
X101986828Y-144879062D01*
X101782097Y-144742265D01*
X101554611Y-144648037D01*
X101313114Y-144600000D01*
X101066886Y-144600000D01*
X100825389Y-144648037D01*
X100597903Y-144742265D01*
X100393172Y-144879062D01*
X100219062Y-145053172D01*
X100082265Y-145257903D01*
X99988037Y-145485389D01*
X99940000Y-145726886D01*
X90475000Y-145726886D01*
X90475000Y-143663939D01*
X107327483Y-143663939D01*
X107504168Y-144007454D01*
X107913089Y-144224405D01*
X108356479Y-144357410D01*
X108817298Y-144401360D01*
X109277836Y-144354563D01*
X109720395Y-144218819D01*
X110115832Y-144007454D01*
X110292517Y-143663939D01*
X139827483Y-143663939D01*
X140004168Y-144007454D01*
X140413089Y-144224405D01*
X140856479Y-144357410D01*
X141317298Y-144401360D01*
X141777836Y-144354563D01*
X142220395Y-144218819D01*
X142615832Y-144007454D01*
X142792517Y-143663939D01*
X141310000Y-142181421D01*
X139827483Y-143663939D01*
X110292517Y-143663939D01*
X108810000Y-142181421D01*
X107327483Y-143663939D01*
X90475000Y-143663939D01*
X90475000Y-141193243D01*
X99040000Y-141193243D01*
X99040000Y-141616757D01*
X99122623Y-142032132D01*
X99284695Y-142423407D01*
X99519986Y-142775545D01*
X99819455Y-143075014D01*
X100171593Y-143310305D01*
X100562868Y-143472377D01*
X100978243Y-143555000D01*
X101401757Y-143555000D01*
X101817132Y-143472377D01*
X102208407Y-143310305D01*
X102560545Y-143075014D01*
X102860014Y-142775545D01*
X103095305Y-142423407D01*
X103251095Y-142047298D01*
X106448640Y-142047298D01*
X106495437Y-142507836D01*
X106631181Y-142950395D01*
X106842546Y-143345832D01*
X107186061Y-143522517D01*
X108668579Y-142040000D01*
X108951421Y-142040000D01*
X110433939Y-143522517D01*
X110777454Y-143345832D01*
X110994405Y-142936911D01*
X111127410Y-142493521D01*
X111171360Y-142032702D01*
X111124563Y-141572164D01*
X111008339Y-141193243D01*
X131540000Y-141193243D01*
X131540000Y-141616757D01*
X131622623Y-142032132D01*
X131784695Y-142423407D01*
X132019986Y-142775545D01*
X132319455Y-143075014D01*
X132671593Y-143310305D01*
X133062868Y-143472377D01*
X133478243Y-143555000D01*
X133901757Y-143555000D01*
X134317132Y-143472377D01*
X134708407Y-143310305D01*
X135060545Y-143075014D01*
X135360014Y-142775545D01*
X135595305Y-142423407D01*
X135751095Y-142047298D01*
X138948640Y-142047298D01*
X138995437Y-142507836D01*
X139131181Y-142950395D01*
X139342546Y-143345832D01*
X139686061Y-143522517D01*
X141168579Y-142040000D01*
X141451421Y-142040000D01*
X142933939Y-143522517D01*
X143277454Y-143345832D01*
X143494405Y-142936911D01*
X143627410Y-142493521D01*
X143671360Y-142032702D01*
X143624563Y-141572164D01*
X143488819Y-141129605D01*
X143277454Y-140734168D01*
X142933939Y-140557483D01*
X141451421Y-142040000D01*
X141168579Y-142040000D01*
X139686061Y-140557483D01*
X139342546Y-140734168D01*
X139125595Y-141143089D01*
X138992590Y-141586479D01*
X138948640Y-142047298D01*
X135751095Y-142047298D01*
X135757377Y-142032132D01*
X135840000Y-141616757D01*
X135840000Y-141193243D01*
X135757377Y-140777868D01*
X135607512Y-140416061D01*
X139827483Y-140416061D01*
X141310000Y-141898579D01*
X142792517Y-140416061D01*
X142615832Y-140072546D01*
X142206911Y-139855595D01*
X141763521Y-139722590D01*
X141302702Y-139678640D01*
X140842164Y-139725437D01*
X140399605Y-139861181D01*
X140004168Y-140072546D01*
X139827483Y-140416061D01*
X135607512Y-140416061D01*
X135595305Y-140386593D01*
X135360014Y-140034455D01*
X135060545Y-139734986D01*
X134708407Y-139499695D01*
X134317132Y-139337623D01*
X133901757Y-139255000D01*
X133478243Y-139255000D01*
X133062868Y-139337623D01*
X132671593Y-139499695D01*
X132319455Y-139734986D01*
X132019986Y-140034455D01*
X131784695Y-140386593D01*
X131622623Y-140777868D01*
X131540000Y-141193243D01*
X111008339Y-141193243D01*
X110988819Y-141129605D01*
X110777454Y-140734168D01*
X110433939Y-140557483D01*
X108951421Y-142040000D01*
X108668579Y-142040000D01*
X107186061Y-140557483D01*
X106842546Y-140734168D01*
X106625595Y-141143089D01*
X106492590Y-141586479D01*
X106448640Y-142047298D01*
X103251095Y-142047298D01*
X103257377Y-142032132D01*
X103340000Y-141616757D01*
X103340000Y-141193243D01*
X103257377Y-140777868D01*
X103107512Y-140416061D01*
X107327483Y-140416061D01*
X108810000Y-141898579D01*
X110292517Y-140416061D01*
X110115832Y-140072546D01*
X109706911Y-139855595D01*
X109263521Y-139722590D01*
X108802702Y-139678640D01*
X108342164Y-139725437D01*
X107899605Y-139861181D01*
X107504168Y-140072546D01*
X107327483Y-140416061D01*
X103107512Y-140416061D01*
X103095305Y-140386593D01*
X102860014Y-140034455D01*
X102560545Y-139734986D01*
X102208407Y-139499695D01*
X101817132Y-139337623D01*
X101401757Y-139255000D01*
X100978243Y-139255000D01*
X100562868Y-139337623D01*
X100171593Y-139499695D01*
X99819455Y-139734986D01*
X99519986Y-140034455D01*
X99284695Y-140386593D01*
X99122623Y-140777868D01*
X99040000Y-141193243D01*
X90475000Y-141193243D01*
X90475000Y-137402866D01*
X103100000Y-137402866D01*
X103100000Y-137777134D01*
X103173016Y-138144209D01*
X103316242Y-138489987D01*
X103524174Y-138801179D01*
X103788821Y-139065826D01*
X104100013Y-139273758D01*
X104445791Y-139416984D01*
X104812866Y-139490000D01*
X105187134Y-139490000D01*
X105554209Y-139416984D01*
X105899987Y-139273758D01*
X106211179Y-139065826D01*
X106475826Y-138801179D01*
X106683758Y-138489987D01*
X106826984Y-138144209D01*
X106900000Y-137777134D01*
X106900000Y-137402866D01*
X135600000Y-137402866D01*
X135600000Y-137777134D01*
X135673016Y-138144209D01*
X135816242Y-138489987D01*
X136024174Y-138801179D01*
X136288821Y-139065826D01*
X136600013Y-139273758D01*
X136945791Y-139416984D01*
X137312866Y-139490000D01*
X137687134Y-139490000D01*
X138054209Y-139416984D01*
X138399987Y-139273758D01*
X138711179Y-139065826D01*
X138975826Y-138801179D01*
X139183758Y-138489987D01*
X139326984Y-138144209D01*
X139400000Y-137777134D01*
X139400000Y-137402866D01*
X139326984Y-137035791D01*
X139183758Y-136690013D01*
X138975826Y-136378821D01*
X138711179Y-136114174D01*
X138399987Y-135906242D01*
X138054209Y-135763016D01*
X137687134Y-135690000D01*
X137312866Y-135690000D01*
X136945791Y-135763016D01*
X136600013Y-135906242D01*
X136288821Y-136114174D01*
X136024174Y-136378821D01*
X135816242Y-136690013D01*
X135673016Y-137035791D01*
X135600000Y-137402866D01*
X106900000Y-137402866D01*
X106826984Y-137035791D01*
X106683758Y-136690013D01*
X106475826Y-136378821D01*
X106211179Y-136114174D01*
X105899987Y-135906242D01*
X105554209Y-135763016D01*
X105187134Y-135690000D01*
X104812866Y-135690000D01*
X104445791Y-135763016D01*
X104100013Y-135906242D01*
X103788821Y-136114174D01*
X103524174Y-136378821D01*
X103316242Y-136690013D01*
X103173016Y-137035791D01*
X103100000Y-137402866D01*
X90475000Y-137402866D01*
X90475000Y-120921207D01*
X99700000Y-120921207D01*
X99700000Y-121078793D01*
X99730743Y-121233351D01*
X99791049Y-121378942D01*
X99800000Y-121392338D01*
X99800001Y-123357661D01*
X99791049Y-123371058D01*
X99730743Y-123516649D01*
X99700000Y-123671207D01*
X99700000Y-123828793D01*
X99730743Y-123983351D01*
X99791049Y-124128942D01*
X99878599Y-124259970D01*
X99990030Y-124371401D01*
X100121058Y-124458951D01*
X100266649Y-124519257D01*
X100421207Y-124550000D01*
X100578793Y-124550000D01*
X100733351Y-124519257D01*
X100878942Y-124458951D01*
X101009970Y-124371401D01*
X101121401Y-124259970D01*
X101208951Y-124128942D01*
X101269257Y-123983351D01*
X101300000Y-123828793D01*
X101300000Y-123671207D01*
X101269257Y-123516649D01*
X101208951Y-123371058D01*
X101200000Y-123357662D01*
X101200000Y-121392338D01*
X101208951Y-121378942D01*
X101269257Y-121233351D01*
X101300000Y-121078793D01*
X101300000Y-120921207D01*
X101269257Y-120766649D01*
X101208951Y-120621058D01*
X101121401Y-120490030D01*
X101052578Y-120421207D01*
X131950000Y-120421207D01*
X131950000Y-120578793D01*
X131980743Y-120733351D01*
X132041049Y-120878942D01*
X132050000Y-120892338D01*
X132050001Y-123107661D01*
X132041049Y-123121058D01*
X131980743Y-123266649D01*
X131950000Y-123421207D01*
X131950000Y-123578793D01*
X131980743Y-123733351D01*
X132041049Y-123878942D01*
X132128599Y-124009970D01*
X132240030Y-124121401D01*
X132371058Y-124208951D01*
X132516649Y-124269257D01*
X132671207Y-124300000D01*
X132828793Y-124300000D01*
X132983351Y-124269257D01*
X133128942Y-124208951D01*
X133259970Y-124121401D01*
X133371401Y-124009970D01*
X133458951Y-123878942D01*
X133519257Y-123733351D01*
X133550000Y-123578793D01*
X133550000Y-123421207D01*
X133519257Y-123266649D01*
X133458951Y-123121058D01*
X133450000Y-123107662D01*
X133450000Y-120892338D01*
X133458951Y-120878942D01*
X133519257Y-120733351D01*
X133550000Y-120578793D01*
X133550000Y-120421207D01*
X133519257Y-120266649D01*
X133458951Y-120121058D01*
X133371401Y-119990030D01*
X133259970Y-119878599D01*
X133128942Y-119791049D01*
X132983351Y-119730743D01*
X132828793Y-119700000D01*
X132671207Y-119700000D01*
X132516649Y-119730743D01*
X132371058Y-119791049D01*
X132240030Y-119878599D01*
X132128599Y-119990030D01*
X132041049Y-120121058D01*
X131980743Y-120266649D01*
X131950000Y-120421207D01*
X101052578Y-120421207D01*
X101009970Y-120378599D01*
X100878942Y-120291049D01*
X100733351Y-120230743D01*
X100578793Y-120200000D01*
X100421207Y-120200000D01*
X100266649Y-120230743D01*
X100121058Y-120291049D01*
X99990030Y-120378599D01*
X99878599Y-120490030D01*
X99791049Y-120621058D01*
X99730743Y-120766649D01*
X99700000Y-120921207D01*
X90475000Y-120921207D01*
X90475000Y-110958427D01*
X90681835Y-111267978D01*
X91232022Y-111818165D01*
X91878974Y-112250444D01*
X92597828Y-112548203D01*
X93360959Y-112700000D01*
X94139041Y-112700000D01*
X94902172Y-112548203D01*
X95621026Y-112250444D01*
X96267978Y-111818165D01*
X96818165Y-111267978D01*
X97250444Y-110621026D01*
X97352015Y-110375811D01*
X100515610Y-110375811D01*
X100608138Y-110647674D01*
X100897947Y-110794812D01*
X101210892Y-110882584D01*
X101534949Y-110907616D01*
X101857662Y-110868947D01*
X102166631Y-110768063D01*
X102391862Y-110647674D01*
X102484390Y-110375811D01*
X101500000Y-109391421D01*
X100515610Y-110375811D01*
X97352015Y-110375811D01*
X97548203Y-109902172D01*
X97670976Y-109284949D01*
X99842384Y-109284949D01*
X99881053Y-109607662D01*
X99981937Y-109916631D01*
X100102326Y-110141862D01*
X100374189Y-110234390D01*
X101358579Y-109250000D01*
X101641421Y-109250000D01*
X102625811Y-110234390D01*
X102897674Y-110141862D01*
X103044812Y-109852053D01*
X103132584Y-109539108D01*
X103157616Y-109215051D01*
X103144692Y-109107187D01*
X103550000Y-109107187D01*
X103550000Y-109392813D01*
X103605723Y-109672949D01*
X103715027Y-109936833D01*
X103873711Y-110174321D01*
X104075679Y-110376289D01*
X104313167Y-110534973D01*
X104577051Y-110644277D01*
X104857187Y-110700000D01*
X105142813Y-110700000D01*
X105422949Y-110644277D01*
X105686833Y-110534973D01*
X105924321Y-110376289D01*
X106126289Y-110174321D01*
X106284973Y-109936833D01*
X106394277Y-109672949D01*
X106450000Y-109392813D01*
X106450000Y-109107187D01*
X107050000Y-109107187D01*
X107050000Y-109392813D01*
X107105723Y-109672949D01*
X107215027Y-109936833D01*
X107373711Y-110174321D01*
X107575679Y-110376289D01*
X107813167Y-110534973D01*
X108077051Y-110644277D01*
X108357187Y-110700000D01*
X108642813Y-110700000D01*
X108922949Y-110644277D01*
X109186833Y-110534973D01*
X109424321Y-110376289D01*
X109626289Y-110174321D01*
X109784973Y-109936833D01*
X109894277Y-109672949D01*
X109950000Y-109392813D01*
X109950000Y-109107187D01*
X116300000Y-109107187D01*
X116300000Y-109392813D01*
X116355723Y-109672949D01*
X116465027Y-109936833D01*
X116623711Y-110174321D01*
X116825679Y-110376289D01*
X117063167Y-110534973D01*
X117327051Y-110644277D01*
X117607187Y-110700000D01*
X117892813Y-110700000D01*
X118172949Y-110644277D01*
X118436833Y-110534973D01*
X118674321Y-110376289D01*
X118674799Y-110375811D01*
X120265610Y-110375811D01*
X120358138Y-110647674D01*
X120647947Y-110794812D01*
X120960892Y-110882584D01*
X121284949Y-110907616D01*
X121607662Y-110868947D01*
X121916631Y-110768063D01*
X122141862Y-110647674D01*
X122234390Y-110375811D01*
X121250000Y-109391421D01*
X120265610Y-110375811D01*
X118674799Y-110375811D01*
X118876289Y-110174321D01*
X119034973Y-109936833D01*
X119144277Y-109672949D01*
X119200000Y-109392813D01*
X119200000Y-109284949D01*
X119592384Y-109284949D01*
X119631053Y-109607662D01*
X119731937Y-109916631D01*
X119852326Y-110141862D01*
X120124189Y-110234390D01*
X121108579Y-109250000D01*
X121391421Y-109250000D01*
X122375811Y-110234390D01*
X122647674Y-110141862D01*
X122794812Y-109852053D01*
X122882584Y-109539108D01*
X122907616Y-109215051D01*
X122894692Y-109107187D01*
X123300000Y-109107187D01*
X123300000Y-109392813D01*
X123355723Y-109672949D01*
X123465027Y-109936833D01*
X123623711Y-110174321D01*
X123825679Y-110376289D01*
X124063167Y-110534973D01*
X124327051Y-110644277D01*
X124607187Y-110700000D01*
X124892813Y-110700000D01*
X125172949Y-110644277D01*
X125436833Y-110534973D01*
X125674321Y-110376289D01*
X125674799Y-110375811D01*
X133015610Y-110375811D01*
X133108138Y-110647674D01*
X133397947Y-110794812D01*
X133710892Y-110882584D01*
X134034949Y-110907616D01*
X134357662Y-110868947D01*
X134666631Y-110768063D01*
X134891862Y-110647674D01*
X134984390Y-110375811D01*
X134000000Y-109391421D01*
X133015610Y-110375811D01*
X125674799Y-110375811D01*
X125876289Y-110174321D01*
X126034973Y-109936833D01*
X126144277Y-109672949D01*
X126200000Y-109392813D01*
X126200000Y-109284949D01*
X132342384Y-109284949D01*
X132381053Y-109607662D01*
X132481937Y-109916631D01*
X132602326Y-110141862D01*
X132874189Y-110234390D01*
X133858579Y-109250000D01*
X134141421Y-109250000D01*
X135125811Y-110234390D01*
X135397674Y-110141862D01*
X135544812Y-109852053D01*
X135632584Y-109539108D01*
X135657616Y-109215051D01*
X135644692Y-109107187D01*
X136050000Y-109107187D01*
X136050000Y-109392813D01*
X136105723Y-109672949D01*
X136215027Y-109936833D01*
X136373711Y-110174321D01*
X136575679Y-110376289D01*
X136813167Y-110534973D01*
X137077051Y-110644277D01*
X137357187Y-110700000D01*
X137642813Y-110700000D01*
X137922949Y-110644277D01*
X138186833Y-110534973D01*
X138424321Y-110376289D01*
X138626289Y-110174321D01*
X138784973Y-109936833D01*
X138894277Y-109672949D01*
X138950000Y-109392813D01*
X138950000Y-109107187D01*
X139550000Y-109107187D01*
X139550000Y-109392813D01*
X139605723Y-109672949D01*
X139715027Y-109936833D01*
X139873711Y-110174321D01*
X140075679Y-110376289D01*
X140313167Y-110534973D01*
X140577051Y-110644277D01*
X140857187Y-110700000D01*
X141142813Y-110700000D01*
X141422949Y-110644277D01*
X141686833Y-110534973D01*
X141924321Y-110376289D01*
X142126289Y-110174321D01*
X142284973Y-109936833D01*
X142394277Y-109672949D01*
X142450000Y-109392813D01*
X142450000Y-109107187D01*
X142394277Y-108827051D01*
X142284973Y-108563167D01*
X142126289Y-108325679D01*
X141924321Y-108123711D01*
X141686833Y-107965027D01*
X141422949Y-107855723D01*
X141142813Y-107800000D01*
X140857187Y-107800000D01*
X140577051Y-107855723D01*
X140313167Y-107965027D01*
X140075679Y-108123711D01*
X139873711Y-108325679D01*
X139715027Y-108563167D01*
X139605723Y-108827051D01*
X139550000Y-109107187D01*
X138950000Y-109107187D01*
X138894277Y-108827051D01*
X138784973Y-108563167D01*
X138626289Y-108325679D01*
X138424321Y-108123711D01*
X138186833Y-107965027D01*
X137922949Y-107855723D01*
X137642813Y-107800000D01*
X137357187Y-107800000D01*
X137077051Y-107855723D01*
X136813167Y-107965027D01*
X136575679Y-108123711D01*
X136373711Y-108325679D01*
X136215027Y-108563167D01*
X136105723Y-108827051D01*
X136050000Y-109107187D01*
X135644692Y-109107187D01*
X135618947Y-108892338D01*
X135518063Y-108583369D01*
X135397674Y-108358138D01*
X135125811Y-108265610D01*
X134141421Y-109250000D01*
X133858579Y-109250000D01*
X132874189Y-108265610D01*
X132602326Y-108358138D01*
X132455188Y-108647947D01*
X132367416Y-108960892D01*
X132342384Y-109284949D01*
X126200000Y-109284949D01*
X126200000Y-109107187D01*
X126144277Y-108827051D01*
X126034973Y-108563167D01*
X125876289Y-108325679D01*
X125674799Y-108124189D01*
X133015610Y-108124189D01*
X134000000Y-109108579D01*
X134984390Y-108124189D01*
X134891862Y-107852326D01*
X134602053Y-107705188D01*
X134289108Y-107617416D01*
X133965051Y-107592384D01*
X133642338Y-107631053D01*
X133333369Y-107731937D01*
X133108138Y-107852326D01*
X133015610Y-108124189D01*
X125674799Y-108124189D01*
X125674321Y-108123711D01*
X125450000Y-107973825D01*
X125450000Y-106892338D01*
X125458951Y-106878942D01*
X125519257Y-106733351D01*
X125550000Y-106578793D01*
X125550000Y-106421207D01*
X125519257Y-106266649D01*
X125458951Y-106121058D01*
X125371401Y-105990030D01*
X125259970Y-105878599D01*
X125128942Y-105791049D01*
X124983351Y-105730743D01*
X124828793Y-105700000D01*
X124671207Y-105700000D01*
X124516649Y-105730743D01*
X124371058Y-105791049D01*
X124240030Y-105878599D01*
X124128599Y-105990030D01*
X124041049Y-106121058D01*
X123980743Y-106266649D01*
X123950000Y-106421207D01*
X123950000Y-106578793D01*
X123980743Y-106733351D01*
X124041049Y-106878942D01*
X124050001Y-106892339D01*
X124050000Y-107973825D01*
X123825679Y-108123711D01*
X123623711Y-108325679D01*
X123465027Y-108563167D01*
X123355723Y-108827051D01*
X123300000Y-109107187D01*
X122894692Y-109107187D01*
X122868947Y-108892338D01*
X122768063Y-108583369D01*
X122647674Y-108358138D01*
X122375811Y-108265610D01*
X121391421Y-109250000D01*
X121108579Y-109250000D01*
X120124189Y-108265610D01*
X119852326Y-108358138D01*
X119705188Y-108647947D01*
X119617416Y-108960892D01*
X119592384Y-109284949D01*
X119200000Y-109284949D01*
X119200000Y-109107187D01*
X119144277Y-108827051D01*
X119034973Y-108563167D01*
X118876289Y-108325679D01*
X118674799Y-108124189D01*
X120265610Y-108124189D01*
X121250000Y-109108579D01*
X122234390Y-108124189D01*
X122141862Y-107852326D01*
X121852053Y-107705188D01*
X121539108Y-107617416D01*
X121215051Y-107592384D01*
X120892338Y-107631053D01*
X120583369Y-107731937D01*
X120358138Y-107852326D01*
X120265610Y-108124189D01*
X118674799Y-108124189D01*
X118674321Y-108123711D01*
X118436833Y-107965027D01*
X118172949Y-107855723D01*
X117892813Y-107800000D01*
X117607187Y-107800000D01*
X117327051Y-107855723D01*
X117063167Y-107965027D01*
X116825679Y-108123711D01*
X116623711Y-108325679D01*
X116465027Y-108563167D01*
X116355723Y-108827051D01*
X116300000Y-109107187D01*
X109950000Y-109107187D01*
X109894277Y-108827051D01*
X109784973Y-108563167D01*
X109626289Y-108325679D01*
X109424321Y-108123711D01*
X109186833Y-107965027D01*
X108922949Y-107855723D01*
X108642813Y-107800000D01*
X108357187Y-107800000D01*
X108077051Y-107855723D01*
X107813167Y-107965027D01*
X107575679Y-108123711D01*
X107373711Y-108325679D01*
X107215027Y-108563167D01*
X107105723Y-108827051D01*
X107050000Y-109107187D01*
X106450000Y-109107187D01*
X106394277Y-108827051D01*
X106284973Y-108563167D01*
X106126289Y-108325679D01*
X105924321Y-108123711D01*
X105686833Y-107965027D01*
X105422949Y-107855723D01*
X105142813Y-107800000D01*
X104857187Y-107800000D01*
X104577051Y-107855723D01*
X104313167Y-107965027D01*
X104075679Y-108123711D01*
X103873711Y-108325679D01*
X103715027Y-108563167D01*
X103605723Y-108827051D01*
X103550000Y-109107187D01*
X103144692Y-109107187D01*
X103118947Y-108892338D01*
X103018063Y-108583369D01*
X102897674Y-108358138D01*
X102625811Y-108265610D01*
X101641421Y-109250000D01*
X101358579Y-109250000D01*
X100374189Y-108265610D01*
X100102326Y-108358138D01*
X99955188Y-108647947D01*
X99867416Y-108960892D01*
X99842384Y-109284949D01*
X97670976Y-109284949D01*
X97700000Y-109139041D01*
X97700000Y-108360959D01*
X97652904Y-108124189D01*
X100515610Y-108124189D01*
X101500000Y-109108579D01*
X102484390Y-108124189D01*
X102391862Y-107852326D01*
X102102053Y-107705188D01*
X101789108Y-107617416D01*
X101465051Y-107592384D01*
X101142338Y-107631053D01*
X100833369Y-107731937D01*
X100608138Y-107852326D01*
X100515610Y-108124189D01*
X97652904Y-108124189D01*
X97548203Y-107597828D01*
X97250444Y-106878974D01*
X96818165Y-106232022D01*
X96267978Y-105681835D01*
X95958427Y-105475000D01*
X146541573Y-105475000D01*
X146232022Y-105681835D01*
G37*
X146232022Y-105681835D02*
X145681835Y-106232022D01*
X145249556Y-106878974D01*
X144951797Y-107597828D01*
X144800000Y-108360959D01*
X144800000Y-109139041D01*
X144951797Y-109902172D01*
X145249556Y-110621026D01*
X145681835Y-111267978D01*
X146232022Y-111818165D01*
X146878974Y-112250444D01*
X147597828Y-112548203D01*
X148360959Y-112700000D01*
X149139041Y-112700000D01*
X149902172Y-112548203D01*
X150621026Y-112250444D01*
X151267978Y-111818165D01*
X151818165Y-111267978D01*
X152025001Y-110958426D01*
X152025000Y-154976769D01*
X151984200Y-155392881D01*
X151870099Y-155770801D01*
X151684769Y-156119356D01*
X151435263Y-156425281D01*
X151131093Y-156676912D01*
X150783834Y-156864674D01*
X150406727Y-156981408D01*
X149991978Y-157025000D01*
X92523231Y-157025000D01*
X92107119Y-156984200D01*
X91729199Y-156870099D01*
X91380644Y-156684769D01*
X91074719Y-156435263D01*
X90823088Y-156131093D01*
X90635326Y-155783834D01*
X90518592Y-155406727D01*
X90475000Y-154991978D01*
X90475000Y-150806886D01*
X107560000Y-150806886D01*
X107560000Y-151053114D01*
X107608037Y-151294611D01*
X107702265Y-151522097D01*
X107839062Y-151726828D01*
X108013172Y-151900938D01*
X108217903Y-152037735D01*
X108445389Y-152131963D01*
X108686886Y-152180000D01*
X108933114Y-152180000D01*
X109174611Y-152131963D01*
X109402097Y-152037735D01*
X109606828Y-151900938D01*
X109780938Y-151726828D01*
X109917735Y-151522097D01*
X110011963Y-151294611D01*
X110060000Y-151053114D01*
X110060000Y-150806886D01*
X140060000Y-150806886D01*
X140060000Y-151053114D01*
X140108037Y-151294611D01*
X140202265Y-151522097D01*
X140339062Y-151726828D01*
X140513172Y-151900938D01*
X140717903Y-152037735D01*
X140945389Y-152131963D01*
X141186886Y-152180000D01*
X141433114Y-152180000D01*
X141674611Y-152131963D01*
X141902097Y-152037735D01*
X142106828Y-151900938D01*
X142280938Y-151726828D01*
X142417735Y-151522097D01*
X142511963Y-151294611D01*
X142560000Y-151053114D01*
X142560000Y-150806886D01*
X142511963Y-150565389D01*
X142417735Y-150337903D01*
X142280938Y-150133172D01*
X142106828Y-149959062D01*
X141902097Y-149822265D01*
X141674611Y-149728037D01*
X141433114Y-149680000D01*
X141186886Y-149680000D01*
X140945389Y-149728037D01*
X140717903Y-149822265D01*
X140513172Y-149959062D01*
X140339062Y-150133172D01*
X140202265Y-150337903D01*
X140108037Y-150565389D01*
X140060000Y-150806886D01*
X110060000Y-150806886D01*
X110011963Y-150565389D01*
X109917735Y-150337903D01*
X109780938Y-150133172D01*
X109606828Y-149959062D01*
X109402097Y-149822265D01*
X109174611Y-149728037D01*
X108933114Y-149680000D01*
X108686886Y-149680000D01*
X108445389Y-149728037D01*
X108217903Y-149822265D01*
X108013172Y-149959062D01*
X107839062Y-150133172D01*
X107702265Y-150337903D01*
X107608037Y-150565389D01*
X107560000Y-150806886D01*
X90475000Y-150806886D01*
X90475000Y-149206098D01*
X111945323Y-149206098D01*
X112091974Y-149524016D01*
X112458368Y-149716040D01*
X112855183Y-149832896D01*
X113267171Y-149870090D01*
X113678500Y-149826196D01*
X114073361Y-149702898D01*
X114408026Y-149524016D01*
X114554677Y-149206098D01*
X144445323Y-149206098D01*
X144591974Y-149524016D01*
X144958368Y-149716040D01*
X145355183Y-149832896D01*
X145767171Y-149870090D01*
X146178500Y-149826196D01*
X146573361Y-149702898D01*
X146908026Y-149524016D01*
X147054677Y-149206098D01*
X145750000Y-147901421D01*
X144445323Y-149206098D01*
X114554677Y-149206098D01*
X113250000Y-147901421D01*
X111945323Y-149206098D01*
X90475000Y-149206098D01*
X90475000Y-147777171D01*
X111139910Y-147777171D01*
X111183804Y-148188500D01*
X111307102Y-148583361D01*
X111485984Y-148918026D01*
X111803902Y-149064677D01*
X113108579Y-147760000D01*
X113391421Y-147760000D01*
X114696098Y-149064677D01*
X115014016Y-148918026D01*
X115206040Y-148551632D01*
X115322896Y-148154817D01*
X115356989Y-147777171D01*
X143639910Y-147777171D01*
X143683804Y-148188500D01*
X143807102Y-148583361D01*
X143985984Y-148918026D01*
X144303902Y-149064677D01*
X145608579Y-147760000D01*
X145891421Y-147760000D01*
X147196098Y-149064677D01*
X147514016Y-148918026D01*
X147706040Y-148551632D01*
X147822896Y-148154817D01*
X147860090Y-147742829D01*
X147816196Y-147331500D01*
X147692898Y-146936639D01*
X147514016Y-146601974D01*
X147196098Y-146455323D01*
X145891421Y-147760000D01*
X145608579Y-147760000D01*
X144303902Y-146455323D01*
X143985984Y-146601974D01*
X143793960Y-146968368D01*
X143677104Y-147365183D01*
X143639910Y-147777171D01*
X115356989Y-147777171D01*
X115360090Y-147742829D01*
X115316196Y-147331500D01*
X115192898Y-146936639D01*
X115014016Y-146601974D01*
X114696098Y-146455323D01*
X113391421Y-147760000D01*
X113108579Y-147760000D01*
X111803902Y-146455323D01*
X111485984Y-146601974D01*
X111293960Y-146968368D01*
X111177104Y-147365183D01*
X111139910Y-147777171D01*
X90475000Y-147777171D01*
X90475000Y-145726886D01*
X99940000Y-145726886D01*
X99940000Y-145973114D01*
X99988037Y-146214611D01*
X100082265Y-146442097D01*
X100219062Y-146646828D01*
X100393172Y-146820938D01*
X100597903Y-146957735D01*
X100825389Y-147051963D01*
X101066886Y-147100000D01*
X101313114Y-147100000D01*
X101554611Y-147051963D01*
X101782097Y-146957735D01*
X101986828Y-146820938D01*
X102160938Y-146646828D01*
X102297735Y-146442097D01*
X102350835Y-146313902D01*
X111945323Y-146313902D01*
X113250000Y-147618579D01*
X114554677Y-146313902D01*
X114408026Y-145995984D01*
X114041632Y-145803960D01*
X113779908Y-145726886D01*
X132440000Y-145726886D01*
X132440000Y-145973114D01*
X132488037Y-146214611D01*
X132582265Y-146442097D01*
X132719062Y-146646828D01*
X132893172Y-146820938D01*
X133097903Y-146957735D01*
X133325389Y-147051963D01*
X133566886Y-147100000D01*
X133813114Y-147100000D01*
X134054611Y-147051963D01*
X134282097Y-146957735D01*
X134486828Y-146820938D01*
X134660938Y-146646828D01*
X134797735Y-146442097D01*
X134850835Y-146313902D01*
X144445323Y-146313902D01*
X145750000Y-147618579D01*
X147054677Y-146313902D01*
X146908026Y-145995984D01*
X146541632Y-145803960D01*
X146144817Y-145687104D01*
X145732829Y-145649910D01*
X145321500Y-145693804D01*
X144926639Y-145817102D01*
X144591974Y-145995984D01*
X144445323Y-146313902D01*
X134850835Y-146313902D01*
X134891963Y-146214611D01*
X134940000Y-145973114D01*
X134940000Y-145726886D01*
X134891963Y-145485389D01*
X134797735Y-145257903D01*
X134660938Y-145053172D01*
X134486828Y-144879062D01*
X134282097Y-144742265D01*
X134054611Y-144648037D01*
X133813114Y-144600000D01*
X133566886Y-144600000D01*
X133325389Y-144648037D01*
X133097903Y-144742265D01*
X132893172Y-144879062D01*
X132719062Y-145053172D01*
X132582265Y-145257903D01*
X132488037Y-145485389D01*
X132440000Y-145726886D01*
X113779908Y-145726886D01*
X113644817Y-145687104D01*
X113232829Y-145649910D01*
X112821500Y-145693804D01*
X112426639Y-145817102D01*
X112091974Y-145995984D01*
X111945323Y-146313902D01*
X102350835Y-146313902D01*
X102391963Y-146214611D01*
X102440000Y-145973114D01*
X102440000Y-145726886D01*
X102391963Y-145485389D01*
X102297735Y-145257903D01*
X102160938Y-145053172D01*
X101986828Y-144879062D01*
X101782097Y-144742265D01*
X101554611Y-144648037D01*
X101313114Y-144600000D01*
X101066886Y-144600000D01*
X100825389Y-144648037D01*
X100597903Y-144742265D01*
X100393172Y-144879062D01*
X100219062Y-145053172D01*
X100082265Y-145257903D01*
X99988037Y-145485389D01*
X99940000Y-145726886D01*
X90475000Y-145726886D01*
X90475000Y-143663939D01*
X107327483Y-143663939D01*
X107504168Y-144007454D01*
X107913089Y-144224405D01*
X108356479Y-144357410D01*
X108817298Y-144401360D01*
X109277836Y-144354563D01*
X109720395Y-144218819D01*
X110115832Y-144007454D01*
X110292517Y-143663939D01*
X139827483Y-143663939D01*
X140004168Y-144007454D01*
X140413089Y-144224405D01*
X140856479Y-144357410D01*
X141317298Y-144401360D01*
X141777836Y-144354563D01*
X142220395Y-144218819D01*
X142615832Y-144007454D01*
X142792517Y-143663939D01*
X141310000Y-142181421D01*
X139827483Y-143663939D01*
X110292517Y-143663939D01*
X108810000Y-142181421D01*
X107327483Y-143663939D01*
X90475000Y-143663939D01*
X90475000Y-141193243D01*
X99040000Y-141193243D01*
X99040000Y-141616757D01*
X99122623Y-142032132D01*
X99284695Y-142423407D01*
X99519986Y-142775545D01*
X99819455Y-143075014D01*
X100171593Y-143310305D01*
X100562868Y-143472377D01*
X100978243Y-143555000D01*
X101401757Y-143555000D01*
X101817132Y-143472377D01*
X102208407Y-143310305D01*
X102560545Y-143075014D01*
X102860014Y-142775545D01*
X103095305Y-142423407D01*
X103251095Y-142047298D01*
X106448640Y-142047298D01*
X106495437Y-142507836D01*
X106631181Y-142950395D01*
X106842546Y-143345832D01*
X107186061Y-143522517D01*
X108668579Y-142040000D01*
X108951421Y-142040000D01*
X110433939Y-143522517D01*
X110777454Y-143345832D01*
X110994405Y-142936911D01*
X111127410Y-142493521D01*
X111171360Y-142032702D01*
X111124563Y-141572164D01*
X111008339Y-141193243D01*
X131540000Y-141193243D01*
X131540000Y-141616757D01*
X131622623Y-142032132D01*
X131784695Y-142423407D01*
X132019986Y-142775545D01*
X132319455Y-143075014D01*
X132671593Y-143310305D01*
X133062868Y-143472377D01*
X133478243Y-143555000D01*
X133901757Y-143555000D01*
X134317132Y-143472377D01*
X134708407Y-143310305D01*
X135060545Y-143075014D01*
X135360014Y-142775545D01*
X135595305Y-142423407D01*
X135751095Y-142047298D01*
X138948640Y-142047298D01*
X138995437Y-142507836D01*
X139131181Y-142950395D01*
X139342546Y-143345832D01*
X139686061Y-143522517D01*
X141168579Y-142040000D01*
X141451421Y-142040000D01*
X142933939Y-143522517D01*
X143277454Y-143345832D01*
X143494405Y-142936911D01*
X143627410Y-142493521D01*
X143671360Y-142032702D01*
X143624563Y-141572164D01*
X143488819Y-141129605D01*
X143277454Y-140734168D01*
X142933939Y-140557483D01*
X141451421Y-142040000D01*
X141168579Y-142040000D01*
X139686061Y-140557483D01*
X139342546Y-140734168D01*
X139125595Y-141143089D01*
X138992590Y-141586479D01*
X138948640Y-142047298D01*
X135751095Y-142047298D01*
X135757377Y-142032132D01*
X135840000Y-141616757D01*
X135840000Y-141193243D01*
X135757377Y-140777868D01*
X135607512Y-140416061D01*
X139827483Y-140416061D01*
X141310000Y-141898579D01*
X142792517Y-140416061D01*
X142615832Y-140072546D01*
X142206911Y-139855595D01*
X141763521Y-139722590D01*
X141302702Y-139678640D01*
X140842164Y-139725437D01*
X140399605Y-139861181D01*
X140004168Y-140072546D01*
X139827483Y-140416061D01*
X135607512Y-140416061D01*
X135595305Y-140386593D01*
X135360014Y-140034455D01*
X135060545Y-139734986D01*
X134708407Y-139499695D01*
X134317132Y-139337623D01*
X133901757Y-139255000D01*
X133478243Y-139255000D01*
X133062868Y-139337623D01*
X132671593Y-139499695D01*
X132319455Y-139734986D01*
X132019986Y-140034455D01*
X131784695Y-140386593D01*
X131622623Y-140777868D01*
X131540000Y-141193243D01*
X111008339Y-141193243D01*
X110988819Y-141129605D01*
X110777454Y-140734168D01*
X110433939Y-140557483D01*
X108951421Y-142040000D01*
X108668579Y-142040000D01*
X107186061Y-140557483D01*
X106842546Y-140734168D01*
X106625595Y-141143089D01*
X106492590Y-141586479D01*
X106448640Y-142047298D01*
X103251095Y-142047298D01*
X103257377Y-142032132D01*
X103340000Y-141616757D01*
X103340000Y-141193243D01*
X103257377Y-140777868D01*
X103107512Y-140416061D01*
X107327483Y-140416061D01*
X108810000Y-141898579D01*
X110292517Y-140416061D01*
X110115832Y-140072546D01*
X109706911Y-139855595D01*
X109263521Y-139722590D01*
X108802702Y-139678640D01*
X108342164Y-139725437D01*
X107899605Y-139861181D01*
X107504168Y-140072546D01*
X107327483Y-140416061D01*
X103107512Y-140416061D01*
X103095305Y-140386593D01*
X102860014Y-140034455D01*
X102560545Y-139734986D01*
X102208407Y-139499695D01*
X101817132Y-139337623D01*
X101401757Y-139255000D01*
X100978243Y-139255000D01*
X100562868Y-139337623D01*
X100171593Y-139499695D01*
X99819455Y-139734986D01*
X99519986Y-140034455D01*
X99284695Y-140386593D01*
X99122623Y-140777868D01*
X99040000Y-141193243D01*
X90475000Y-141193243D01*
X90475000Y-137402866D01*
X103100000Y-137402866D01*
X103100000Y-137777134D01*
X103173016Y-138144209D01*
X103316242Y-138489987D01*
X103524174Y-138801179D01*
X103788821Y-139065826D01*
X104100013Y-139273758D01*
X104445791Y-139416984D01*
X104812866Y-139490000D01*
X105187134Y-139490000D01*
X105554209Y-139416984D01*
X105899987Y-139273758D01*
X106211179Y-139065826D01*
X106475826Y-138801179D01*
X106683758Y-138489987D01*
X106826984Y-138144209D01*
X106900000Y-137777134D01*
X106900000Y-137402866D01*
X135600000Y-137402866D01*
X135600000Y-137777134D01*
X135673016Y-138144209D01*
X135816242Y-138489987D01*
X136024174Y-138801179D01*
X136288821Y-139065826D01*
X136600013Y-139273758D01*
X136945791Y-139416984D01*
X137312866Y-139490000D01*
X137687134Y-139490000D01*
X138054209Y-139416984D01*
X138399987Y-139273758D01*
X138711179Y-139065826D01*
X138975826Y-138801179D01*
X139183758Y-138489987D01*
X139326984Y-138144209D01*
X139400000Y-137777134D01*
X139400000Y-137402866D01*
X139326984Y-137035791D01*
X139183758Y-136690013D01*
X138975826Y-136378821D01*
X138711179Y-136114174D01*
X138399987Y-135906242D01*
X138054209Y-135763016D01*
X137687134Y-135690000D01*
X137312866Y-135690000D01*
X136945791Y-135763016D01*
X136600013Y-135906242D01*
X136288821Y-136114174D01*
X136024174Y-136378821D01*
X135816242Y-136690013D01*
X135673016Y-137035791D01*
X135600000Y-137402866D01*
X106900000Y-137402866D01*
X106826984Y-137035791D01*
X106683758Y-136690013D01*
X106475826Y-136378821D01*
X106211179Y-136114174D01*
X105899987Y-135906242D01*
X105554209Y-135763016D01*
X105187134Y-135690000D01*
X104812866Y-135690000D01*
X104445791Y-135763016D01*
X104100013Y-135906242D01*
X103788821Y-136114174D01*
X103524174Y-136378821D01*
X103316242Y-136690013D01*
X103173016Y-137035791D01*
X103100000Y-137402866D01*
X90475000Y-137402866D01*
X90475000Y-120921207D01*
X99700000Y-120921207D01*
X99700000Y-121078793D01*
X99730743Y-121233351D01*
X99791049Y-121378942D01*
X99800000Y-121392338D01*
X99800001Y-123357661D01*
X99791049Y-123371058D01*
X99730743Y-123516649D01*
X99700000Y-123671207D01*
X99700000Y-123828793D01*
X99730743Y-123983351D01*
X99791049Y-124128942D01*
X99878599Y-124259970D01*
X99990030Y-124371401D01*
X100121058Y-124458951D01*
X100266649Y-124519257D01*
X100421207Y-124550000D01*
X100578793Y-124550000D01*
X100733351Y-124519257D01*
X100878942Y-124458951D01*
X101009970Y-124371401D01*
X101121401Y-124259970D01*
X101208951Y-124128942D01*
X101269257Y-123983351D01*
X101300000Y-123828793D01*
X101300000Y-123671207D01*
X101269257Y-123516649D01*
X101208951Y-123371058D01*
X101200000Y-123357662D01*
X101200000Y-121392338D01*
X101208951Y-121378942D01*
X101269257Y-121233351D01*
X101300000Y-121078793D01*
X101300000Y-120921207D01*
X101269257Y-120766649D01*
X101208951Y-120621058D01*
X101121401Y-120490030D01*
X101052578Y-120421207D01*
X131950000Y-120421207D01*
X131950000Y-120578793D01*
X131980743Y-120733351D01*
X132041049Y-120878942D01*
X132050000Y-120892338D01*
X132050001Y-123107661D01*
X132041049Y-123121058D01*
X131980743Y-123266649D01*
X131950000Y-123421207D01*
X131950000Y-123578793D01*
X131980743Y-123733351D01*
X132041049Y-123878942D01*
X132128599Y-124009970D01*
X132240030Y-124121401D01*
X132371058Y-124208951D01*
X132516649Y-124269257D01*
X132671207Y-124300000D01*
X132828793Y-124300000D01*
X132983351Y-124269257D01*
X133128942Y-124208951D01*
X133259970Y-124121401D01*
X133371401Y-124009970D01*
X133458951Y-123878942D01*
X133519257Y-123733351D01*
X133550000Y-123578793D01*
X133550000Y-123421207D01*
X133519257Y-123266649D01*
X133458951Y-123121058D01*
X133450000Y-123107662D01*
X133450000Y-120892338D01*
X133458951Y-120878942D01*
X133519257Y-120733351D01*
X133550000Y-120578793D01*
X133550000Y-120421207D01*
X133519257Y-120266649D01*
X133458951Y-120121058D01*
X133371401Y-119990030D01*
X133259970Y-119878599D01*
X133128942Y-119791049D01*
X132983351Y-119730743D01*
X132828793Y-119700000D01*
X132671207Y-119700000D01*
X132516649Y-119730743D01*
X132371058Y-119791049D01*
X132240030Y-119878599D01*
X132128599Y-119990030D01*
X132041049Y-120121058D01*
X131980743Y-120266649D01*
X131950000Y-120421207D01*
X101052578Y-120421207D01*
X101009970Y-120378599D01*
X100878942Y-120291049D01*
X100733351Y-120230743D01*
X100578793Y-120200000D01*
X100421207Y-120200000D01*
X100266649Y-120230743D01*
X100121058Y-120291049D01*
X99990030Y-120378599D01*
X99878599Y-120490030D01*
X99791049Y-120621058D01*
X99730743Y-120766649D01*
X99700000Y-120921207D01*
X90475000Y-120921207D01*
X90475000Y-110958427D01*
X90681835Y-111267978D01*
X91232022Y-111818165D01*
X91878974Y-112250444D01*
X92597828Y-112548203D01*
X93360959Y-112700000D01*
X94139041Y-112700000D01*
X94902172Y-112548203D01*
X95621026Y-112250444D01*
X96267978Y-111818165D01*
X96818165Y-111267978D01*
X97250444Y-110621026D01*
X97352015Y-110375811D01*
X100515610Y-110375811D01*
X100608138Y-110647674D01*
X100897947Y-110794812D01*
X101210892Y-110882584D01*
X101534949Y-110907616D01*
X101857662Y-110868947D01*
X102166631Y-110768063D01*
X102391862Y-110647674D01*
X102484390Y-110375811D01*
X101500000Y-109391421D01*
X100515610Y-110375811D01*
X97352015Y-110375811D01*
X97548203Y-109902172D01*
X97670976Y-109284949D01*
X99842384Y-109284949D01*
X99881053Y-109607662D01*
X99981937Y-109916631D01*
X100102326Y-110141862D01*
X100374189Y-110234390D01*
X101358579Y-109250000D01*
X101641421Y-109250000D01*
X102625811Y-110234390D01*
X102897674Y-110141862D01*
X103044812Y-109852053D01*
X103132584Y-109539108D01*
X103157616Y-109215051D01*
X103144692Y-109107187D01*
X103550000Y-109107187D01*
X103550000Y-109392813D01*
X103605723Y-109672949D01*
X103715027Y-109936833D01*
X103873711Y-110174321D01*
X104075679Y-110376289D01*
X104313167Y-110534973D01*
X104577051Y-110644277D01*
X104857187Y-110700000D01*
X105142813Y-110700000D01*
X105422949Y-110644277D01*
X105686833Y-110534973D01*
X105924321Y-110376289D01*
X106126289Y-110174321D01*
X106284973Y-109936833D01*
X106394277Y-109672949D01*
X106450000Y-109392813D01*
X106450000Y-109107187D01*
X107050000Y-109107187D01*
X107050000Y-109392813D01*
X107105723Y-109672949D01*
X107215027Y-109936833D01*
X107373711Y-110174321D01*
X107575679Y-110376289D01*
X107813167Y-110534973D01*
X108077051Y-110644277D01*
X108357187Y-110700000D01*
X108642813Y-110700000D01*
X108922949Y-110644277D01*
X109186833Y-110534973D01*
X109424321Y-110376289D01*
X109626289Y-110174321D01*
X109784973Y-109936833D01*
X109894277Y-109672949D01*
X109950000Y-109392813D01*
X109950000Y-109107187D01*
X116300000Y-109107187D01*
X116300000Y-109392813D01*
X116355723Y-109672949D01*
X116465027Y-109936833D01*
X116623711Y-110174321D01*
X116825679Y-110376289D01*
X117063167Y-110534973D01*
X117327051Y-110644277D01*
X117607187Y-110700000D01*
X117892813Y-110700000D01*
X118172949Y-110644277D01*
X118436833Y-110534973D01*
X118674321Y-110376289D01*
X118674799Y-110375811D01*
X120265610Y-110375811D01*
X120358138Y-110647674D01*
X120647947Y-110794812D01*
X120960892Y-110882584D01*
X121284949Y-110907616D01*
X121607662Y-110868947D01*
X121916631Y-110768063D01*
X122141862Y-110647674D01*
X122234390Y-110375811D01*
X121250000Y-109391421D01*
X120265610Y-110375811D01*
X118674799Y-110375811D01*
X118876289Y-110174321D01*
X119034973Y-109936833D01*
X119144277Y-109672949D01*
X119200000Y-109392813D01*
X119200000Y-109284949D01*
X119592384Y-109284949D01*
X119631053Y-109607662D01*
X119731937Y-109916631D01*
X119852326Y-110141862D01*
X120124189Y-110234390D01*
X121108579Y-109250000D01*
X121391421Y-109250000D01*
X122375811Y-110234390D01*
X122647674Y-110141862D01*
X122794812Y-109852053D01*
X122882584Y-109539108D01*
X122907616Y-109215051D01*
X122894692Y-109107187D01*
X123300000Y-109107187D01*
X123300000Y-109392813D01*
X123355723Y-109672949D01*
X123465027Y-109936833D01*
X123623711Y-110174321D01*
X123825679Y-110376289D01*
X124063167Y-110534973D01*
X124327051Y-110644277D01*
X124607187Y-110700000D01*
X124892813Y-110700000D01*
X125172949Y-110644277D01*
X125436833Y-110534973D01*
X125674321Y-110376289D01*
X125674799Y-110375811D01*
X133015610Y-110375811D01*
X133108138Y-110647674D01*
X133397947Y-110794812D01*
X133710892Y-110882584D01*
X134034949Y-110907616D01*
X134357662Y-110868947D01*
X134666631Y-110768063D01*
X134891862Y-110647674D01*
X134984390Y-110375811D01*
X134000000Y-109391421D01*
X133015610Y-110375811D01*
X125674799Y-110375811D01*
X125876289Y-110174321D01*
X126034973Y-109936833D01*
X126144277Y-109672949D01*
X126200000Y-109392813D01*
X126200000Y-109284949D01*
X132342384Y-109284949D01*
X132381053Y-109607662D01*
X132481937Y-109916631D01*
X132602326Y-110141862D01*
X132874189Y-110234390D01*
X133858579Y-109250000D01*
X134141421Y-109250000D01*
X135125811Y-110234390D01*
X135397674Y-110141862D01*
X135544812Y-109852053D01*
X135632584Y-109539108D01*
X135657616Y-109215051D01*
X135644692Y-109107187D01*
X136050000Y-109107187D01*
X136050000Y-109392813D01*
X136105723Y-109672949D01*
X136215027Y-109936833D01*
X136373711Y-110174321D01*
X136575679Y-110376289D01*
X136813167Y-110534973D01*
X137077051Y-110644277D01*
X137357187Y-110700000D01*
X137642813Y-110700000D01*
X137922949Y-110644277D01*
X138186833Y-110534973D01*
X138424321Y-110376289D01*
X138626289Y-110174321D01*
X138784973Y-109936833D01*
X138894277Y-109672949D01*
X138950000Y-109392813D01*
X138950000Y-109107187D01*
X139550000Y-109107187D01*
X139550000Y-109392813D01*
X139605723Y-109672949D01*
X139715027Y-109936833D01*
X139873711Y-110174321D01*
X140075679Y-110376289D01*
X140313167Y-110534973D01*
X140577051Y-110644277D01*
X140857187Y-110700000D01*
X141142813Y-110700000D01*
X141422949Y-110644277D01*
X141686833Y-110534973D01*
X141924321Y-110376289D01*
X142126289Y-110174321D01*
X142284973Y-109936833D01*
X142394277Y-109672949D01*
X142450000Y-109392813D01*
X142450000Y-109107187D01*
X142394277Y-108827051D01*
X142284973Y-108563167D01*
X142126289Y-108325679D01*
X141924321Y-108123711D01*
X141686833Y-107965027D01*
X141422949Y-107855723D01*
X141142813Y-107800000D01*
X140857187Y-107800000D01*
X140577051Y-107855723D01*
X140313167Y-107965027D01*
X140075679Y-108123711D01*
X139873711Y-108325679D01*
X139715027Y-108563167D01*
X139605723Y-108827051D01*
X139550000Y-109107187D01*
X138950000Y-109107187D01*
X138894277Y-108827051D01*
X138784973Y-108563167D01*
X138626289Y-108325679D01*
X138424321Y-108123711D01*
X138186833Y-107965027D01*
X137922949Y-107855723D01*
X137642813Y-107800000D01*
X137357187Y-107800000D01*
X137077051Y-107855723D01*
X136813167Y-107965027D01*
X136575679Y-108123711D01*
X136373711Y-108325679D01*
X136215027Y-108563167D01*
X136105723Y-108827051D01*
X136050000Y-109107187D01*
X135644692Y-109107187D01*
X135618947Y-108892338D01*
X135518063Y-108583369D01*
X135397674Y-108358138D01*
X135125811Y-108265610D01*
X134141421Y-109250000D01*
X133858579Y-109250000D01*
X132874189Y-108265610D01*
X132602326Y-108358138D01*
X132455188Y-108647947D01*
X132367416Y-108960892D01*
X132342384Y-109284949D01*
X126200000Y-109284949D01*
X126200000Y-109107187D01*
X126144277Y-108827051D01*
X126034973Y-108563167D01*
X125876289Y-108325679D01*
X125674799Y-108124189D01*
X133015610Y-108124189D01*
X134000000Y-109108579D01*
X134984390Y-108124189D01*
X134891862Y-107852326D01*
X134602053Y-107705188D01*
X134289108Y-107617416D01*
X133965051Y-107592384D01*
X133642338Y-107631053D01*
X133333369Y-107731937D01*
X133108138Y-107852326D01*
X133015610Y-108124189D01*
X125674799Y-108124189D01*
X125674321Y-108123711D01*
X125450000Y-107973825D01*
X125450000Y-106892338D01*
X125458951Y-106878942D01*
X125519257Y-106733351D01*
X125550000Y-106578793D01*
X125550000Y-106421207D01*
X125519257Y-106266649D01*
X125458951Y-106121058D01*
X125371401Y-105990030D01*
X125259970Y-105878599D01*
X125128942Y-105791049D01*
X124983351Y-105730743D01*
X124828793Y-105700000D01*
X124671207Y-105700000D01*
X124516649Y-105730743D01*
X124371058Y-105791049D01*
X124240030Y-105878599D01*
X124128599Y-105990030D01*
X124041049Y-106121058D01*
X123980743Y-106266649D01*
X123950000Y-106421207D01*
X123950000Y-106578793D01*
X123980743Y-106733351D01*
X124041049Y-106878942D01*
X124050001Y-106892339D01*
X124050000Y-107973825D01*
X123825679Y-108123711D01*
X123623711Y-108325679D01*
X123465027Y-108563167D01*
X123355723Y-108827051D01*
X123300000Y-109107187D01*
X122894692Y-109107187D01*
X122868947Y-108892338D01*
X122768063Y-108583369D01*
X122647674Y-108358138D01*
X122375811Y-108265610D01*
X121391421Y-109250000D01*
X121108579Y-109250000D01*
X120124189Y-108265610D01*
X119852326Y-108358138D01*
X119705188Y-108647947D01*
X119617416Y-108960892D01*
X119592384Y-109284949D01*
X119200000Y-109284949D01*
X119200000Y-109107187D01*
X119144277Y-108827051D01*
X119034973Y-108563167D01*
X118876289Y-108325679D01*
X118674799Y-108124189D01*
X120265610Y-108124189D01*
X121250000Y-109108579D01*
X122234390Y-108124189D01*
X122141862Y-107852326D01*
X121852053Y-107705188D01*
X121539108Y-107617416D01*
X121215051Y-107592384D01*
X120892338Y-107631053D01*
X120583369Y-107731937D01*
X120358138Y-107852326D01*
X120265610Y-108124189D01*
X118674799Y-108124189D01*
X118674321Y-108123711D01*
X118436833Y-107965027D01*
X118172949Y-107855723D01*
X117892813Y-107800000D01*
X117607187Y-107800000D01*
X117327051Y-107855723D01*
X117063167Y-107965027D01*
X116825679Y-108123711D01*
X116623711Y-108325679D01*
X116465027Y-108563167D01*
X116355723Y-108827051D01*
X116300000Y-109107187D01*
X109950000Y-109107187D01*
X109894277Y-108827051D01*
X109784973Y-108563167D01*
X109626289Y-108325679D01*
X109424321Y-108123711D01*
X109186833Y-107965027D01*
X108922949Y-107855723D01*
X108642813Y-107800000D01*
X108357187Y-107800000D01*
X108077051Y-107855723D01*
X107813167Y-107965027D01*
X107575679Y-108123711D01*
X107373711Y-108325679D01*
X107215027Y-108563167D01*
X107105723Y-108827051D01*
X107050000Y-109107187D01*
X106450000Y-109107187D01*
X106394277Y-108827051D01*
X106284973Y-108563167D01*
X106126289Y-108325679D01*
X105924321Y-108123711D01*
X105686833Y-107965027D01*
X105422949Y-107855723D01*
X105142813Y-107800000D01*
X104857187Y-107800000D01*
X104577051Y-107855723D01*
X104313167Y-107965027D01*
X104075679Y-108123711D01*
X103873711Y-108325679D01*
X103715027Y-108563167D01*
X103605723Y-108827051D01*
X103550000Y-109107187D01*
X103144692Y-109107187D01*
X103118947Y-108892338D01*
X103018063Y-108583369D01*
X102897674Y-108358138D01*
X102625811Y-108265610D01*
X101641421Y-109250000D01*
X101358579Y-109250000D01*
X100374189Y-108265610D01*
X100102326Y-108358138D01*
X99955188Y-108647947D01*
X99867416Y-108960892D01*
X99842384Y-109284949D01*
X97670976Y-109284949D01*
X97700000Y-109139041D01*
X97700000Y-108360959D01*
X97652904Y-108124189D01*
X100515610Y-108124189D01*
X101500000Y-109108579D01*
X102484390Y-108124189D01*
X102391862Y-107852326D01*
X102102053Y-107705188D01*
X101789108Y-107617416D01*
X101465051Y-107592384D01*
X101142338Y-107631053D01*
X100833369Y-107731937D01*
X100608138Y-107852326D01*
X100515610Y-108124189D01*
X97652904Y-108124189D01*
X97548203Y-107597828D01*
X97250444Y-106878974D01*
X96818165Y-106232022D01*
X96267978Y-105681835D01*
X95958427Y-105475000D01*
X146541573Y-105475000D01*
X146232022Y-105681835D01*
%TD*%
M02*
