%TF.GenerationSoftware,KiCad,Pcbnew,(5.1.6-0)*%
%TF.CreationDate,2023-05-04T14:14:28-07:00*%
%TF.ProjectId,input_buffer_bal_XLR_combo_SMD_1206,696e7075-745f-4627-9566-6665725f6261,rev?*%
%TF.SameCoordinates,Original*%
%TF.FileFunction,Legend,Bot*%
%TF.FilePolarity,Positive*%
%FSLAX46Y46*%
G04 Gerber Fmt 4.6, Leading zero omitted, Abs format (unit mm)*
G04 Created by KiCad (PCBNEW (5.1.6-0)) date 2023-05-04 14:14:28*
%MOMM*%
%LPD*%
G01*
G04 APERTURE LIST*
%ADD10C,0.150000*%
G04 APERTURE END LIST*
D10*
X143821428Y-123702380D02*
X144154761Y-123226190D01*
X144392857Y-123702380D02*
X144392857Y-122702380D01*
X144011904Y-122702380D01*
X143916666Y-122750000D01*
X143869047Y-122797619D01*
X143821428Y-122892857D01*
X143821428Y-123035714D01*
X143869047Y-123130952D01*
X143916666Y-123178571D01*
X144011904Y-123226190D01*
X144392857Y-123226190D01*
X143011904Y-123654761D02*
X143107142Y-123702380D01*
X143297619Y-123702380D01*
X143392857Y-123654761D01*
X143440476Y-123559523D01*
X143440476Y-123178571D01*
X143392857Y-123083333D01*
X143297619Y-123035714D01*
X143107142Y-123035714D01*
X143011904Y-123083333D01*
X142964285Y-123178571D01*
X142964285Y-123273809D01*
X143440476Y-123369047D01*
X142630952Y-123035714D02*
X142392857Y-123702380D01*
X142154761Y-123035714D01*
X140488095Y-123702380D02*
X141059523Y-123702380D01*
X140773809Y-123702380D02*
X140773809Y-122702380D01*
X140869047Y-122845238D01*
X140964285Y-122940476D01*
X141059523Y-122988095D01*
X140059523Y-123607142D02*
X140011904Y-123654761D01*
X140059523Y-123702380D01*
X140107142Y-123654761D01*
X140059523Y-123607142D01*
X140059523Y-123702380D01*
X139059523Y-123702380D02*
X139630952Y-123702380D01*
X139345238Y-123702380D02*
X139345238Y-122702380D01*
X139440476Y-122845238D01*
X139535714Y-122940476D01*
X139630952Y-122988095D01*
X144452380Y-121702380D02*
X144452380Y-120702380D01*
X144119047Y-121416666D01*
X143785714Y-120702380D01*
X143785714Y-121702380D01*
X142880952Y-121702380D02*
X142880952Y-121178571D01*
X142928571Y-121083333D01*
X143023809Y-121035714D01*
X143214285Y-121035714D01*
X143309523Y-121083333D01*
X142880952Y-121654761D02*
X142976190Y-121702380D01*
X143214285Y-121702380D01*
X143309523Y-121654761D01*
X143357142Y-121559523D01*
X143357142Y-121464285D01*
X143309523Y-121369047D01*
X143214285Y-121321428D01*
X142976190Y-121321428D01*
X142880952Y-121273809D01*
X142500000Y-121035714D02*
X142261904Y-121702380D01*
X142023809Y-121035714D02*
X142261904Y-121702380D01*
X142357142Y-121940476D01*
X142404761Y-121988095D01*
X142500000Y-122035714D01*
X140928571Y-120797619D02*
X140880952Y-120750000D01*
X140785714Y-120702380D01*
X140547619Y-120702380D01*
X140452380Y-120750000D01*
X140404761Y-120797619D01*
X140357142Y-120892857D01*
X140357142Y-120988095D01*
X140404761Y-121130952D01*
X140976190Y-121702380D01*
X140357142Y-121702380D01*
X139738095Y-120702380D02*
X139642857Y-120702380D01*
X139547619Y-120750000D01*
X139500000Y-120797619D01*
X139452380Y-120892857D01*
X139404761Y-121083333D01*
X139404761Y-121321428D01*
X139452380Y-121511904D01*
X139500000Y-121607142D01*
X139547619Y-121654761D01*
X139642857Y-121702380D01*
X139738095Y-121702380D01*
X139833333Y-121654761D01*
X139880952Y-121607142D01*
X139928571Y-121511904D01*
X139976190Y-121321428D01*
X139976190Y-121083333D01*
X139928571Y-120892857D01*
X139880952Y-120797619D01*
X139833333Y-120750000D01*
X139738095Y-120702380D01*
X139023809Y-120797619D02*
X138976190Y-120750000D01*
X138880952Y-120702380D01*
X138642857Y-120702380D01*
X138547619Y-120750000D01*
X138500000Y-120797619D01*
X138452380Y-120892857D01*
X138452380Y-120988095D01*
X138500000Y-121130952D01*
X139071428Y-121702380D01*
X138452380Y-121702380D01*
X138119047Y-120702380D02*
X137500000Y-120702380D01*
X137833333Y-121083333D01*
X137690476Y-121083333D01*
X137595238Y-121130952D01*
X137547619Y-121178571D01*
X137500000Y-121273809D01*
X137500000Y-121511904D01*
X137547619Y-121607142D01*
X137595238Y-121654761D01*
X137690476Y-121702380D01*
X137976190Y-121702380D01*
X138071428Y-121654761D01*
X138119047Y-121607142D01*
M02*
