%TF.GenerationSoftware,KiCad,Pcbnew,(5.1.6-0)*%
%TF.CreationDate,2023-04-12T18:51:22-07:00*%
%TF.ProjectId,input_buffer_bal_XLR_SMD_1206,696e7075-745f-4627-9566-6665725f6261,rev?*%
%TF.SameCoordinates,Original*%
%TF.FileFunction,Legend,Top*%
%TF.FilePolarity,Positive*%
%FSLAX46Y46*%
G04 Gerber Fmt 4.6, Leading zero omitted, Abs format (unit mm)*
G04 Created by KiCad (PCBNEW (5.1.6-0)) date 2023-04-12 18:51:22*
%MOMM*%
%LPD*%
G01*
G04 APERTURE LIST*
%ADD10C,0.120000*%
%ADD11C,0.150000*%
G04 APERTURE END LIST*
D10*
X137500000Y-156000000D02*
X137500000Y-157500000D01*
X105000000Y-156000000D02*
X105000000Y-157500000D01*
D11*
X117059523Y-155972380D02*
X117678571Y-155972380D01*
X117345238Y-156353333D01*
X117488095Y-156353333D01*
X117583333Y-156400952D01*
X117630952Y-156448571D01*
X117678571Y-156543809D01*
X117678571Y-156781904D01*
X117630952Y-156877142D01*
X117583333Y-156924761D01*
X117488095Y-156972380D01*
X117202380Y-156972380D01*
X117107142Y-156924761D01*
X117059523Y-156877142D01*
X118059523Y-156067619D02*
X118107142Y-156020000D01*
X118202380Y-155972380D01*
X118440476Y-155972380D01*
X118535714Y-156020000D01*
X118583333Y-156067619D01*
X118630952Y-156162857D01*
X118630952Y-156258095D01*
X118583333Y-156400952D01*
X118011904Y-156972380D01*
X118630952Y-156972380D01*
X119059523Y-156877142D02*
X119107142Y-156924761D01*
X119059523Y-156972380D01*
X119011904Y-156924761D01*
X119059523Y-156877142D01*
X119059523Y-156972380D01*
X120011904Y-155972380D02*
X119535714Y-155972380D01*
X119488095Y-156448571D01*
X119535714Y-156400952D01*
X119630952Y-156353333D01*
X119869047Y-156353333D01*
X119964285Y-156400952D01*
X120011904Y-156448571D01*
X120059523Y-156543809D01*
X120059523Y-156781904D01*
X120011904Y-156877142D01*
X119964285Y-156924761D01*
X119869047Y-156972380D01*
X119630952Y-156972380D01*
X119535714Y-156924761D01*
X119488095Y-156877142D01*
X120678571Y-155972380D02*
X120773809Y-155972380D01*
X120869047Y-156020000D01*
X120916666Y-156067619D01*
X120964285Y-156162857D01*
X121011904Y-156353333D01*
X121011904Y-156591428D01*
X120964285Y-156781904D01*
X120916666Y-156877142D01*
X120869047Y-156924761D01*
X120773809Y-156972380D01*
X120678571Y-156972380D01*
X120583333Y-156924761D01*
X120535714Y-156877142D01*
X120488095Y-156781904D01*
X120440476Y-156591428D01*
X120440476Y-156353333D01*
X120488095Y-156162857D01*
X120535714Y-156067619D01*
X120583333Y-156020000D01*
X120678571Y-155972380D01*
X121630952Y-155972380D02*
X121726190Y-155972380D01*
X121821428Y-156020000D01*
X121869047Y-156067619D01*
X121916666Y-156162857D01*
X121964285Y-156353333D01*
X121964285Y-156591428D01*
X121916666Y-156781904D01*
X121869047Y-156877142D01*
X121821428Y-156924761D01*
X121726190Y-156972380D01*
X121630952Y-156972380D01*
X121535714Y-156924761D01*
X121488095Y-156877142D01*
X121440476Y-156781904D01*
X121392857Y-156591428D01*
X121392857Y-156353333D01*
X121440476Y-156162857D01*
X121488095Y-156067619D01*
X121535714Y-156020000D01*
X121630952Y-155972380D01*
X123154761Y-156972380D02*
X123154761Y-156305714D01*
X123154761Y-156400952D02*
X123202380Y-156353333D01*
X123297619Y-156305714D01*
X123440476Y-156305714D01*
X123535714Y-156353333D01*
X123583333Y-156448571D01*
X123583333Y-156972380D01*
X123583333Y-156448571D02*
X123630952Y-156353333D01*
X123726190Y-156305714D01*
X123869047Y-156305714D01*
X123964285Y-156353333D01*
X124011904Y-156448571D01*
X124011904Y-156972380D01*
X124488095Y-156972380D02*
X124488095Y-156305714D01*
X124488095Y-156400952D02*
X124535714Y-156353333D01*
X124630952Y-156305714D01*
X124773809Y-156305714D01*
X124869047Y-156353333D01*
X124916666Y-156448571D01*
X124916666Y-156972380D01*
X124916666Y-156448571D02*
X124964285Y-156353333D01*
X125059523Y-156305714D01*
X125202380Y-156305714D01*
X125297619Y-156353333D01*
X125345238Y-156448571D01*
X125345238Y-156972380D01*
D10*
X105000000Y-155250000D02*
X137500000Y-155250000D01*
X105000000Y-153250000D02*
X105000000Y-155836421D01*
X137500000Y-153250000D02*
X137500000Y-155836421D01*
X137500000Y-155250000D02*
X136373496Y-155836421D01*
X137500000Y-155250000D02*
X136373496Y-154663579D01*
X105000000Y-155250000D02*
X106126504Y-155836421D01*
X105000000Y-155250000D02*
X106126504Y-154663579D01*
D11*
X123988095Y-114071428D02*
X124750000Y-114071428D01*
X125750000Y-114452380D02*
X125178571Y-114452380D01*
X125464285Y-114452380D02*
X125464285Y-113452380D01*
X125369047Y-113595238D01*
X125273809Y-113690476D01*
X125178571Y-113738095D01*
X126654761Y-113452380D02*
X126178571Y-113452380D01*
X126130952Y-113928571D01*
X126178571Y-113880952D01*
X126273809Y-113833333D01*
X126511904Y-113833333D01*
X126607142Y-113880952D01*
X126654761Y-113928571D01*
X126702380Y-114023809D01*
X126702380Y-114261904D01*
X126654761Y-114357142D01*
X126607142Y-114404761D01*
X126511904Y-114452380D01*
X126273809Y-114452380D01*
X126178571Y-114404761D01*
X126130952Y-114357142D01*
X126988095Y-113452380D02*
X127321428Y-114452380D01*
X127654761Y-113452380D01*
X114738095Y-114071428D02*
X115500000Y-114071428D01*
X115119047Y-114452380D02*
X115119047Y-113690476D01*
X116500000Y-114452380D02*
X115928571Y-114452380D01*
X116214285Y-114452380D02*
X116214285Y-113452380D01*
X116119047Y-113595238D01*
X116023809Y-113690476D01*
X115928571Y-113738095D01*
X117404761Y-113452380D02*
X116928571Y-113452380D01*
X116880952Y-113928571D01*
X116928571Y-113880952D01*
X117023809Y-113833333D01*
X117261904Y-113833333D01*
X117357142Y-113880952D01*
X117404761Y-113928571D01*
X117452380Y-114023809D01*
X117452380Y-114261904D01*
X117404761Y-114357142D01*
X117357142Y-114404761D01*
X117261904Y-114452380D01*
X117023809Y-114452380D01*
X116928571Y-114404761D01*
X116880952Y-114357142D01*
X117738095Y-113452380D02*
X118071428Y-114452380D01*
X118404761Y-113452380D01*
X108880952Y-113452380D02*
X109071428Y-113452380D01*
X109166666Y-113500000D01*
X109261904Y-113595238D01*
X109309523Y-113785714D01*
X109309523Y-114119047D01*
X109261904Y-114309523D01*
X109166666Y-114404761D01*
X109071428Y-114452380D01*
X108880952Y-114452380D01*
X108785714Y-114404761D01*
X108690476Y-114309523D01*
X108642857Y-114119047D01*
X108642857Y-113785714D01*
X108690476Y-113595238D01*
X108785714Y-113500000D01*
X108880952Y-113452380D01*
X109738095Y-113452380D02*
X109738095Y-114261904D01*
X109785714Y-114357142D01*
X109833333Y-114404761D01*
X109928571Y-114452380D01*
X110119047Y-114452380D01*
X110214285Y-114404761D01*
X110261904Y-114357142D01*
X110309523Y-114261904D01*
X110309523Y-113452380D01*
X110642857Y-113452380D02*
X111214285Y-113452380D01*
X110928571Y-114452380D02*
X110928571Y-113452380D01*
X111547619Y-114071428D02*
X112309523Y-114071428D01*
X141380952Y-113452380D02*
X141571428Y-113452380D01*
X141666666Y-113500000D01*
X141761904Y-113595238D01*
X141809523Y-113785714D01*
X141809523Y-114119047D01*
X141761904Y-114309523D01*
X141666666Y-114404761D01*
X141571428Y-114452380D01*
X141380952Y-114452380D01*
X141285714Y-114404761D01*
X141190476Y-114309523D01*
X141142857Y-114119047D01*
X141142857Y-113785714D01*
X141190476Y-113595238D01*
X141285714Y-113500000D01*
X141380952Y-113452380D01*
X142238095Y-113452380D02*
X142238095Y-114261904D01*
X142285714Y-114357142D01*
X142333333Y-114404761D01*
X142428571Y-114452380D01*
X142619047Y-114452380D01*
X142714285Y-114404761D01*
X142761904Y-114357142D01*
X142809523Y-114261904D01*
X142809523Y-113452380D01*
X143142857Y-113452380D02*
X143714285Y-113452380D01*
X143428571Y-114452380D02*
X143428571Y-113452380D01*
X144047619Y-114071428D02*
X144809523Y-114071428D01*
X136380952Y-113452380D02*
X136571428Y-113452380D01*
X136666666Y-113500000D01*
X136761904Y-113595238D01*
X136809523Y-113785714D01*
X136809523Y-114119047D01*
X136761904Y-114309523D01*
X136666666Y-114404761D01*
X136571428Y-114452380D01*
X136380952Y-114452380D01*
X136285714Y-114404761D01*
X136190476Y-114309523D01*
X136142857Y-114119047D01*
X136142857Y-113785714D01*
X136190476Y-113595238D01*
X136285714Y-113500000D01*
X136380952Y-113452380D01*
X137238095Y-113452380D02*
X137238095Y-114261904D01*
X137285714Y-114357142D01*
X137333333Y-114404761D01*
X137428571Y-114452380D01*
X137619047Y-114452380D01*
X137714285Y-114404761D01*
X137761904Y-114357142D01*
X137809523Y-114261904D01*
X137809523Y-113452380D01*
X138142857Y-113452380D02*
X138714285Y-113452380D01*
X138428571Y-114452380D02*
X138428571Y-113452380D01*
X139047619Y-114071428D02*
X139809523Y-114071428D01*
X139428571Y-114452380D02*
X139428571Y-113690476D01*
X103880952Y-113452380D02*
X104071428Y-113452380D01*
X104166666Y-113500000D01*
X104261904Y-113595238D01*
X104309523Y-113785714D01*
X104309523Y-114119047D01*
X104261904Y-114309523D01*
X104166666Y-114404761D01*
X104071428Y-114452380D01*
X103880952Y-114452380D01*
X103785714Y-114404761D01*
X103690476Y-114309523D01*
X103642857Y-114119047D01*
X103642857Y-113785714D01*
X103690476Y-113595238D01*
X103785714Y-113500000D01*
X103880952Y-113452380D01*
X104738095Y-113452380D02*
X104738095Y-114261904D01*
X104785714Y-114357142D01*
X104833333Y-114404761D01*
X104928571Y-114452380D01*
X105119047Y-114452380D01*
X105214285Y-114404761D01*
X105261904Y-114357142D01*
X105309523Y-114261904D01*
X105309523Y-113452380D01*
X105642857Y-113452380D02*
X106214285Y-113452380D01*
X105928571Y-114452380D02*
X105928571Y-113452380D01*
X106547619Y-114071428D02*
X107309523Y-114071428D01*
X106928571Y-114452380D02*
X106928571Y-113690476D01*
X132238095Y-113500000D02*
X132142857Y-113452380D01*
X132000000Y-113452380D01*
X131857142Y-113500000D01*
X131761904Y-113595238D01*
X131714285Y-113690476D01*
X131666666Y-113880952D01*
X131666666Y-114023809D01*
X131714285Y-114214285D01*
X131761904Y-114309523D01*
X131857142Y-114404761D01*
X132000000Y-114452380D01*
X132095238Y-114452380D01*
X132238095Y-114404761D01*
X132285714Y-114357142D01*
X132285714Y-114023809D01*
X132095238Y-114023809D01*
X132714285Y-114452380D02*
X132714285Y-113452380D01*
X133285714Y-114452380D01*
X133285714Y-113452380D01*
X133761904Y-114452380D02*
X133761904Y-113452380D01*
X134000000Y-113452380D01*
X134142857Y-113500000D01*
X134238095Y-113595238D01*
X134285714Y-113690476D01*
X134333333Y-113880952D01*
X134333333Y-114023809D01*
X134285714Y-114214285D01*
X134238095Y-114309523D01*
X134142857Y-114404761D01*
X134000000Y-114452380D01*
X133761904Y-114452380D01*
X120488095Y-113500000D02*
X120392857Y-113452380D01*
X120250000Y-113452380D01*
X120107142Y-113500000D01*
X120011904Y-113595238D01*
X119964285Y-113690476D01*
X119916666Y-113880952D01*
X119916666Y-114023809D01*
X119964285Y-114214285D01*
X120011904Y-114309523D01*
X120107142Y-114404761D01*
X120250000Y-114452380D01*
X120345238Y-114452380D01*
X120488095Y-114404761D01*
X120535714Y-114357142D01*
X120535714Y-114023809D01*
X120345238Y-114023809D01*
X120964285Y-114452380D02*
X120964285Y-113452380D01*
X121535714Y-114452380D01*
X121535714Y-113452380D01*
X122011904Y-114452380D02*
X122011904Y-113452380D01*
X122250000Y-113452380D01*
X122392857Y-113500000D01*
X122488095Y-113595238D01*
X122535714Y-113690476D01*
X122583333Y-113880952D01*
X122583333Y-114023809D01*
X122535714Y-114214285D01*
X122488095Y-114309523D01*
X122392857Y-114404761D01*
X122250000Y-114452380D01*
X122011904Y-114452380D01*
X99488095Y-113500000D02*
X99392857Y-113452380D01*
X99250000Y-113452380D01*
X99107142Y-113500000D01*
X99011904Y-113595238D01*
X98964285Y-113690476D01*
X98916666Y-113880952D01*
X98916666Y-114023809D01*
X98964285Y-114214285D01*
X99011904Y-114309523D01*
X99107142Y-114404761D01*
X99250000Y-114452380D01*
X99345238Y-114452380D01*
X99488095Y-114404761D01*
X99535714Y-114357142D01*
X99535714Y-114023809D01*
X99345238Y-114023809D01*
X99964285Y-114452380D02*
X99964285Y-113452380D01*
X100535714Y-114452380D01*
X100535714Y-113452380D01*
X101011904Y-114452380D02*
X101011904Y-113452380D01*
X101250000Y-113452380D01*
X101392857Y-113500000D01*
X101488095Y-113595238D01*
X101535714Y-113690476D01*
X101583333Y-113880952D01*
X101583333Y-114023809D01*
X101535714Y-114214285D01*
X101488095Y-114309523D01*
X101392857Y-114404761D01*
X101250000Y-114452380D01*
X101011904Y-114452380D01*
D10*
%TO.C,D4*%
X143300000Y-127250000D02*
X143300000Y-129250000D01*
X143300000Y-129250000D02*
X147150000Y-129250000D01*
X143300000Y-127250000D02*
X147150000Y-127250000D01*
%TO.C,D3*%
X127300000Y-127250000D02*
X127300000Y-129250000D01*
X127300000Y-129250000D02*
X131150000Y-129250000D01*
X127300000Y-127250000D02*
X131150000Y-127250000D01*
%TO.C,D2*%
X110300000Y-127250000D02*
X110300000Y-129250000D01*
X110300000Y-129250000D02*
X114150000Y-129250000D01*
X110300000Y-127250000D02*
X114150000Y-127250000D01*
%TO.C,D1*%
X95300000Y-127250000D02*
X95300000Y-129250000D01*
X95300000Y-129250000D02*
X99150000Y-129250000D01*
X95300000Y-127250000D02*
X99150000Y-127250000D01*
%TO.C,U2*%
X137500000Y-118940000D02*
X134050000Y-118940000D01*
X137500000Y-118940000D02*
X139450000Y-118940000D01*
X137500000Y-124060000D02*
X135550000Y-124060000D01*
X137500000Y-124060000D02*
X139450000Y-124060000D01*
%TO.C,U1*%
X105000000Y-118940000D02*
X101550000Y-118940000D01*
X105000000Y-118940000D02*
X106950000Y-118940000D01*
X105000000Y-124060000D02*
X103050000Y-124060000D01*
X105000000Y-124060000D02*
X106950000Y-124060000D01*
%TO.C,R10*%
X141410000Y-130852064D02*
X141410000Y-129647936D01*
X139590000Y-130852064D02*
X139590000Y-129647936D01*
%TO.C,R9*%
X133590000Y-129647936D02*
X133590000Y-130852064D01*
X135410000Y-129647936D02*
X135410000Y-130852064D01*
%TO.C,R8*%
X108910000Y-130852064D02*
X108910000Y-129647936D01*
X107090000Y-130852064D02*
X107090000Y-129647936D01*
%TO.C,R7*%
X101090000Y-129647936D02*
X101090000Y-130852064D01*
X102910000Y-129647936D02*
X102910000Y-130852064D01*
%TO.C,R6*%
X138410000Y-130852064D02*
X138410000Y-129647936D01*
X136590000Y-130852064D02*
X136590000Y-129647936D01*
%TO.C,R5*%
X105910000Y-130852064D02*
X105910000Y-129647936D01*
X104090000Y-130852064D02*
X104090000Y-129647936D01*
%TO.C,R4*%
X144897936Y-126160000D02*
X146102064Y-126160000D01*
X144897936Y-124340000D02*
X146102064Y-124340000D01*
%TO.C,R3*%
X130102064Y-124340000D02*
X128897936Y-124340000D01*
X130102064Y-126160000D02*
X128897936Y-126160000D01*
%TO.C,R2*%
X111897936Y-126160000D02*
X113102064Y-126160000D01*
X111897936Y-124340000D02*
X113102064Y-124340000D01*
%TO.C,R1*%
X98102064Y-124340000D02*
X96897936Y-124340000D01*
X98102064Y-126160000D02*
X96897936Y-126160000D01*
%TO.C,C8*%
X146102064Y-121340000D02*
X144897936Y-121340000D01*
X146102064Y-123160000D02*
X144897936Y-123160000D01*
%TO.C,C7*%
X130102064Y-121340000D02*
X128897936Y-121340000D01*
X130102064Y-123160000D02*
X128897936Y-123160000D01*
%TO.C,C6*%
X113102064Y-121340000D02*
X111897936Y-121340000D01*
X113102064Y-123160000D02*
X111897936Y-123160000D01*
%TO.C,C5*%
X98102064Y-121340000D02*
X96897936Y-121340000D01*
X98102064Y-123160000D02*
X96897936Y-123160000D01*
%TO.C,C4*%
X136852064Y-125090000D02*
X135647936Y-125090000D01*
X136852064Y-126910000D02*
X135647936Y-126910000D01*
%TO.C,C3*%
X104602064Y-125090000D02*
X103397936Y-125090000D01*
X104602064Y-126910000D02*
X103397936Y-126910000D01*
%TO.C,C2*%
X139102064Y-116090000D02*
X137897936Y-116090000D01*
X139102064Y-117910000D02*
X137897936Y-117910000D01*
%TO.C,C1*%
X106602064Y-116090000D02*
X105397936Y-116090000D01*
X106602064Y-117910000D02*
X105397936Y-117910000D01*
%TO.C,J2*%
X148370000Y-142620000D02*
X145620000Y-142620000D01*
X126630000Y-148120000D02*
X126630000Y-142620000D01*
X129380000Y-142620000D02*
X126630000Y-142620000D01*
X145620000Y-142620000D02*
X145620000Y-135120000D01*
X148370000Y-148120000D02*
X148370000Y-142620000D01*
X145620000Y-135120000D02*
X129380000Y-135120000D01*
X129380000Y-142620000D02*
X129380000Y-135120000D01*
X148620000Y-157560000D02*
X126380000Y-157560000D01*
X150120000Y-154860000D02*
X148620000Y-154860000D01*
X126380000Y-154860000D02*
X124880000Y-154860000D01*
X126380000Y-154860000D02*
X126380000Y-157560000D01*
X148620000Y-154860000D02*
X148620000Y-157560000D01*
X124880000Y-148120000D02*
X126630000Y-148120000D01*
X148370000Y-148120000D02*
X150120000Y-148120000D01*
X150120000Y-154860000D02*
X150120000Y-148120000D01*
X124880000Y-154860000D02*
X124880000Y-148120000D01*
%TO.C,J1*%
X115870000Y-142620000D02*
X113120000Y-142620000D01*
X94130000Y-148120000D02*
X94130000Y-142620000D01*
X96880000Y-142620000D02*
X94130000Y-142620000D01*
X113120000Y-142620000D02*
X113120000Y-135120000D01*
X115870000Y-148120000D02*
X115870000Y-142620000D01*
X113120000Y-135120000D02*
X96880000Y-135120000D01*
X96880000Y-142620000D02*
X96880000Y-135120000D01*
X116120000Y-157560000D02*
X93880000Y-157560000D01*
X117620000Y-154860000D02*
X116120000Y-154860000D01*
X93880000Y-154860000D02*
X92380000Y-154860000D01*
X93880000Y-154860000D02*
X93880000Y-157560000D01*
X116120000Y-154860000D02*
X116120000Y-157560000D01*
X92380000Y-148120000D02*
X94130000Y-148120000D01*
X115870000Y-148120000D02*
X117620000Y-148120000D01*
X117620000Y-154860000D02*
X117620000Y-148120000D01*
X92380000Y-154860000D02*
X92380000Y-148120000D01*
%TO.C,J5*%
X133500000Y-107500000D02*
X133500000Y-105750000D01*
X134500000Y-107500000D02*
X133500000Y-107500000D01*
X134500000Y-105750000D02*
X134500000Y-107500000D01*
X137000000Y-107500000D02*
X137000000Y-105750000D01*
X138000000Y-107500000D02*
X137000000Y-107500000D01*
X138000000Y-105750000D02*
X138000000Y-107500000D01*
X141500000Y-107500000D02*
X141500000Y-105750000D01*
X140500000Y-107500000D02*
X140500000Y-105750000D01*
X141500000Y-107500000D02*
X140500000Y-107500000D01*
X142250000Y-109250000D02*
G75*
G03*
X142250000Y-109250000I-1250000J0D01*
G01*
X138750000Y-109250000D02*
G75*
G03*
X138750000Y-109250000I-1250000J0D01*
G01*
X135250000Y-109250000D02*
G75*
G03*
X135250000Y-109250000I-1250000J0D01*
G01*
X131500000Y-112750000D02*
X143500000Y-112750000D01*
X131500000Y-105750000D02*
X143500000Y-105750000D01*
X143500000Y-112750000D02*
X143500000Y-105750000D01*
X131500000Y-112750000D02*
X131500000Y-105750000D01*
%TO.C,J4*%
X101000000Y-107500000D02*
X101000000Y-105750000D01*
X102000000Y-107500000D02*
X101000000Y-107500000D01*
X102000000Y-105750000D02*
X102000000Y-107500000D01*
X104500000Y-107500000D02*
X104500000Y-105750000D01*
X105500000Y-107500000D02*
X104500000Y-107500000D01*
X105500000Y-105750000D02*
X105500000Y-107500000D01*
X109000000Y-107500000D02*
X109000000Y-105750000D01*
X108000000Y-107500000D02*
X108000000Y-105750000D01*
X109000000Y-107500000D02*
X108000000Y-107500000D01*
X109750000Y-109250000D02*
G75*
G03*
X109750000Y-109250000I-1250000J0D01*
G01*
X106250000Y-109250000D02*
G75*
G03*
X106250000Y-109250000I-1250000J0D01*
G01*
X102750000Y-109250000D02*
G75*
G03*
X102750000Y-109250000I-1250000J0D01*
G01*
X99000000Y-112750000D02*
X111000000Y-112750000D01*
X99000000Y-105750000D02*
X111000000Y-105750000D01*
X111000000Y-112750000D02*
X111000000Y-105750000D01*
X99000000Y-112750000D02*
X99000000Y-105750000D01*
%TO.C,J3*%
X117250000Y-107500000D02*
X117250000Y-105750000D01*
X118250000Y-107500000D02*
X117250000Y-107500000D01*
X118250000Y-105750000D02*
X118250000Y-107500000D01*
X120750000Y-107500000D02*
X120750000Y-105750000D01*
X121750000Y-107500000D02*
X120750000Y-107500000D01*
X121750000Y-105750000D02*
X121750000Y-107500000D01*
X125250000Y-107500000D02*
X125250000Y-105750000D01*
X124250000Y-107500000D02*
X124250000Y-105750000D01*
X125250000Y-107500000D02*
X124250000Y-107500000D01*
X126000000Y-109250000D02*
G75*
G03*
X126000000Y-109250000I-1250000J0D01*
G01*
X122500000Y-109250000D02*
G75*
G03*
X122500000Y-109250000I-1250000J0D01*
G01*
X119000000Y-109250000D02*
G75*
G03*
X119000000Y-109250000I-1250000J0D01*
G01*
X115250000Y-112750000D02*
X127250000Y-112750000D01*
X115250000Y-105750000D02*
X127250000Y-105750000D01*
X127250000Y-112750000D02*
X127250000Y-105750000D01*
X115250000Y-112750000D02*
X115250000Y-105750000D01*
%TO.C,D4*%
D11*
X148261904Y-128702380D02*
X148261904Y-127702380D01*
X148500000Y-127702380D01*
X148642857Y-127750000D01*
X148738095Y-127845238D01*
X148785714Y-127940476D01*
X148833333Y-128130952D01*
X148833333Y-128273809D01*
X148785714Y-128464285D01*
X148738095Y-128559523D01*
X148642857Y-128654761D01*
X148500000Y-128702380D01*
X148261904Y-128702380D01*
X149690476Y-128035714D02*
X149690476Y-128702380D01*
X149452380Y-127654761D02*
X149214285Y-128369047D01*
X149833333Y-128369047D01*
%TO.C,D3*%
X125261904Y-128702380D02*
X125261904Y-127702380D01*
X125500000Y-127702380D01*
X125642857Y-127750000D01*
X125738095Y-127845238D01*
X125785714Y-127940476D01*
X125833333Y-128130952D01*
X125833333Y-128273809D01*
X125785714Y-128464285D01*
X125738095Y-128559523D01*
X125642857Y-128654761D01*
X125500000Y-128702380D01*
X125261904Y-128702380D01*
X126166666Y-127702380D02*
X126785714Y-127702380D01*
X126452380Y-128083333D01*
X126595238Y-128083333D01*
X126690476Y-128130952D01*
X126738095Y-128178571D01*
X126785714Y-128273809D01*
X126785714Y-128511904D01*
X126738095Y-128607142D01*
X126690476Y-128654761D01*
X126595238Y-128702380D01*
X126309523Y-128702380D01*
X126214285Y-128654761D01*
X126166666Y-128607142D01*
%TO.C,D2*%
X115261904Y-128702380D02*
X115261904Y-127702380D01*
X115500000Y-127702380D01*
X115642857Y-127750000D01*
X115738095Y-127845238D01*
X115785714Y-127940476D01*
X115833333Y-128130952D01*
X115833333Y-128273809D01*
X115785714Y-128464285D01*
X115738095Y-128559523D01*
X115642857Y-128654761D01*
X115500000Y-128702380D01*
X115261904Y-128702380D01*
X116214285Y-127797619D02*
X116261904Y-127750000D01*
X116357142Y-127702380D01*
X116595238Y-127702380D01*
X116690476Y-127750000D01*
X116738095Y-127797619D01*
X116785714Y-127892857D01*
X116785714Y-127988095D01*
X116738095Y-128130952D01*
X116166666Y-128702380D01*
X116785714Y-128702380D01*
%TO.C,D1*%
X93261904Y-128702380D02*
X93261904Y-127702380D01*
X93500000Y-127702380D01*
X93642857Y-127750000D01*
X93738095Y-127845238D01*
X93785714Y-127940476D01*
X93833333Y-128130952D01*
X93833333Y-128273809D01*
X93785714Y-128464285D01*
X93738095Y-128559523D01*
X93642857Y-128654761D01*
X93500000Y-128702380D01*
X93261904Y-128702380D01*
X94785714Y-128702380D02*
X94214285Y-128702380D01*
X94500000Y-128702380D02*
X94500000Y-127702380D01*
X94404761Y-127845238D01*
X94309523Y-127940476D01*
X94214285Y-127988095D01*
%TO.C,U2*%
X131488095Y-117952380D02*
X131488095Y-118761904D01*
X131535714Y-118857142D01*
X131583333Y-118904761D01*
X131678571Y-118952380D01*
X131869047Y-118952380D01*
X131964285Y-118904761D01*
X132011904Y-118857142D01*
X132059523Y-118761904D01*
X132059523Y-117952380D01*
X132488095Y-118047619D02*
X132535714Y-118000000D01*
X132630952Y-117952380D01*
X132869047Y-117952380D01*
X132964285Y-118000000D01*
X133011904Y-118047619D01*
X133059523Y-118142857D01*
X133059523Y-118238095D01*
X133011904Y-118380952D01*
X132440476Y-118952380D01*
X133059523Y-118952380D01*
%TO.C,U1*%
X98988095Y-119202380D02*
X98988095Y-120011904D01*
X99035714Y-120107142D01*
X99083333Y-120154761D01*
X99178571Y-120202380D01*
X99369047Y-120202380D01*
X99464285Y-120154761D01*
X99511904Y-120107142D01*
X99559523Y-120011904D01*
X99559523Y-119202380D01*
X100559523Y-120202380D02*
X99988095Y-120202380D01*
X100273809Y-120202380D02*
X100273809Y-119202380D01*
X100178571Y-119345238D01*
X100083333Y-119440476D01*
X99988095Y-119488095D01*
%TO.C,R10*%
X143202380Y-133392857D02*
X142726190Y-133726190D01*
X143202380Y-133964285D02*
X142202380Y-133964285D01*
X142202380Y-133583333D01*
X142250000Y-133488095D01*
X142297619Y-133440476D01*
X142392857Y-133392857D01*
X142535714Y-133392857D01*
X142630952Y-133440476D01*
X142678571Y-133488095D01*
X142726190Y-133583333D01*
X142726190Y-133964285D01*
X143202380Y-132440476D02*
X143202380Y-133011904D01*
X143202380Y-132726190D02*
X142202380Y-132726190D01*
X142345238Y-132821428D01*
X142440476Y-132916666D01*
X142488095Y-133011904D01*
X142202380Y-131821428D02*
X142202380Y-131726190D01*
X142250000Y-131630952D01*
X142297619Y-131583333D01*
X142392857Y-131535714D01*
X142583333Y-131488095D01*
X142821428Y-131488095D01*
X143011904Y-131535714D01*
X143107142Y-131583333D01*
X143154761Y-131630952D01*
X143202380Y-131726190D01*
X143202380Y-131821428D01*
X143154761Y-131916666D01*
X143107142Y-131964285D01*
X143011904Y-132011904D01*
X142821428Y-132059523D01*
X142583333Y-132059523D01*
X142392857Y-132011904D01*
X142297619Y-131964285D01*
X142250000Y-131916666D01*
X142202380Y-131821428D01*
%TO.C,R9*%
X134952380Y-133916666D02*
X134476190Y-134250000D01*
X134952380Y-134488095D02*
X133952380Y-134488095D01*
X133952380Y-134107142D01*
X134000000Y-134011904D01*
X134047619Y-133964285D01*
X134142857Y-133916666D01*
X134285714Y-133916666D01*
X134380952Y-133964285D01*
X134428571Y-134011904D01*
X134476190Y-134107142D01*
X134476190Y-134488095D01*
X134952380Y-133440476D02*
X134952380Y-133250000D01*
X134904761Y-133154761D01*
X134857142Y-133107142D01*
X134714285Y-133011904D01*
X134523809Y-132964285D01*
X134142857Y-132964285D01*
X134047619Y-133011904D01*
X134000000Y-133059523D01*
X133952380Y-133154761D01*
X133952380Y-133345238D01*
X134000000Y-133440476D01*
X134047619Y-133488095D01*
X134142857Y-133535714D01*
X134380952Y-133535714D01*
X134476190Y-133488095D01*
X134523809Y-133440476D01*
X134571428Y-133345238D01*
X134571428Y-133154761D01*
X134523809Y-133059523D01*
X134476190Y-133011904D01*
X134380952Y-132964285D01*
%TO.C,R8*%
X108452380Y-133916666D02*
X107976190Y-134250000D01*
X108452380Y-134488095D02*
X107452380Y-134488095D01*
X107452380Y-134107142D01*
X107500000Y-134011904D01*
X107547619Y-133964285D01*
X107642857Y-133916666D01*
X107785714Y-133916666D01*
X107880952Y-133964285D01*
X107928571Y-134011904D01*
X107976190Y-134107142D01*
X107976190Y-134488095D01*
X107880952Y-133345238D02*
X107833333Y-133440476D01*
X107785714Y-133488095D01*
X107690476Y-133535714D01*
X107642857Y-133535714D01*
X107547619Y-133488095D01*
X107500000Y-133440476D01*
X107452380Y-133345238D01*
X107452380Y-133154761D01*
X107500000Y-133059523D01*
X107547619Y-133011904D01*
X107642857Y-132964285D01*
X107690476Y-132964285D01*
X107785714Y-133011904D01*
X107833333Y-133059523D01*
X107880952Y-133154761D01*
X107880952Y-133345238D01*
X107928571Y-133440476D01*
X107976190Y-133488095D01*
X108071428Y-133535714D01*
X108261904Y-133535714D01*
X108357142Y-133488095D01*
X108404761Y-133440476D01*
X108452380Y-133345238D01*
X108452380Y-133154761D01*
X108404761Y-133059523D01*
X108357142Y-133011904D01*
X108261904Y-132964285D01*
X108071428Y-132964285D01*
X107976190Y-133011904D01*
X107928571Y-133059523D01*
X107880952Y-133154761D01*
%TO.C,R7*%
X102452380Y-133916666D02*
X101976190Y-134250000D01*
X102452380Y-134488095D02*
X101452380Y-134488095D01*
X101452380Y-134107142D01*
X101500000Y-134011904D01*
X101547619Y-133964285D01*
X101642857Y-133916666D01*
X101785714Y-133916666D01*
X101880952Y-133964285D01*
X101928571Y-134011904D01*
X101976190Y-134107142D01*
X101976190Y-134488095D01*
X101452380Y-133583333D02*
X101452380Y-132916666D01*
X102452380Y-133345238D01*
%TO.C,R6*%
X137952380Y-133916666D02*
X137476190Y-134250000D01*
X137952380Y-134488095D02*
X136952380Y-134488095D01*
X136952380Y-134107142D01*
X137000000Y-134011904D01*
X137047619Y-133964285D01*
X137142857Y-133916666D01*
X137285714Y-133916666D01*
X137380952Y-133964285D01*
X137428571Y-134011904D01*
X137476190Y-134107142D01*
X137476190Y-134488095D01*
X136952380Y-133059523D02*
X136952380Y-133250000D01*
X137000000Y-133345238D01*
X137047619Y-133392857D01*
X137190476Y-133488095D01*
X137380952Y-133535714D01*
X137761904Y-133535714D01*
X137857142Y-133488095D01*
X137904761Y-133440476D01*
X137952380Y-133345238D01*
X137952380Y-133154761D01*
X137904761Y-133059523D01*
X137857142Y-133011904D01*
X137761904Y-132964285D01*
X137523809Y-132964285D01*
X137428571Y-133011904D01*
X137380952Y-133059523D01*
X137333333Y-133154761D01*
X137333333Y-133345238D01*
X137380952Y-133440476D01*
X137428571Y-133488095D01*
X137523809Y-133535714D01*
%TO.C,R5*%
X105452380Y-133916666D02*
X104976190Y-134250000D01*
X105452380Y-134488095D02*
X104452380Y-134488095D01*
X104452380Y-134107142D01*
X104500000Y-134011904D01*
X104547619Y-133964285D01*
X104642857Y-133916666D01*
X104785714Y-133916666D01*
X104880952Y-133964285D01*
X104928571Y-134011904D01*
X104976190Y-134107142D01*
X104976190Y-134488095D01*
X104452380Y-133011904D02*
X104452380Y-133488095D01*
X104928571Y-133535714D01*
X104880952Y-133488095D01*
X104833333Y-133392857D01*
X104833333Y-133154761D01*
X104880952Y-133059523D01*
X104928571Y-133011904D01*
X105023809Y-132964285D01*
X105261904Y-132964285D01*
X105357142Y-133011904D01*
X105404761Y-133059523D01*
X105452380Y-133154761D01*
X105452380Y-133392857D01*
X105404761Y-133488095D01*
X105357142Y-133535714D01*
%TO.C,R4*%
X148833333Y-125702380D02*
X148500000Y-125226190D01*
X148261904Y-125702380D02*
X148261904Y-124702380D01*
X148642857Y-124702380D01*
X148738095Y-124750000D01*
X148785714Y-124797619D01*
X148833333Y-124892857D01*
X148833333Y-125035714D01*
X148785714Y-125130952D01*
X148738095Y-125178571D01*
X148642857Y-125226190D01*
X148261904Y-125226190D01*
X149690476Y-125035714D02*
X149690476Y-125702380D01*
X149452380Y-124654761D02*
X149214285Y-125369047D01*
X149833333Y-125369047D01*
%TO.C,R3*%
X125833333Y-125702380D02*
X125500000Y-125226190D01*
X125261904Y-125702380D02*
X125261904Y-124702380D01*
X125642857Y-124702380D01*
X125738095Y-124750000D01*
X125785714Y-124797619D01*
X125833333Y-124892857D01*
X125833333Y-125035714D01*
X125785714Y-125130952D01*
X125738095Y-125178571D01*
X125642857Y-125226190D01*
X125261904Y-125226190D01*
X126166666Y-124702380D02*
X126785714Y-124702380D01*
X126452380Y-125083333D01*
X126595238Y-125083333D01*
X126690476Y-125130952D01*
X126738095Y-125178571D01*
X126785714Y-125273809D01*
X126785714Y-125511904D01*
X126738095Y-125607142D01*
X126690476Y-125654761D01*
X126595238Y-125702380D01*
X126309523Y-125702380D01*
X126214285Y-125654761D01*
X126166666Y-125607142D01*
%TO.C,R2*%
X116083333Y-125702380D02*
X115750000Y-125226190D01*
X115511904Y-125702380D02*
X115511904Y-124702380D01*
X115892857Y-124702380D01*
X115988095Y-124750000D01*
X116035714Y-124797619D01*
X116083333Y-124892857D01*
X116083333Y-125035714D01*
X116035714Y-125130952D01*
X115988095Y-125178571D01*
X115892857Y-125226190D01*
X115511904Y-125226190D01*
X116464285Y-124797619D02*
X116511904Y-124750000D01*
X116607142Y-124702380D01*
X116845238Y-124702380D01*
X116940476Y-124750000D01*
X116988095Y-124797619D01*
X117035714Y-124892857D01*
X117035714Y-124988095D01*
X116988095Y-125130952D01*
X116416666Y-125702380D01*
X117035714Y-125702380D01*
%TO.C,R1*%
X93833333Y-125702380D02*
X93500000Y-125226190D01*
X93261904Y-125702380D02*
X93261904Y-124702380D01*
X93642857Y-124702380D01*
X93738095Y-124750000D01*
X93785714Y-124797619D01*
X93833333Y-124892857D01*
X93833333Y-125035714D01*
X93785714Y-125130952D01*
X93738095Y-125178571D01*
X93642857Y-125226190D01*
X93261904Y-125226190D01*
X94785714Y-125702380D02*
X94214285Y-125702380D01*
X94500000Y-125702380D02*
X94500000Y-124702380D01*
X94404761Y-124845238D01*
X94309523Y-124940476D01*
X94214285Y-124988095D01*
%TO.C,C8*%
X148833333Y-122607142D02*
X148785714Y-122654761D01*
X148642857Y-122702380D01*
X148547619Y-122702380D01*
X148404761Y-122654761D01*
X148309523Y-122559523D01*
X148261904Y-122464285D01*
X148214285Y-122273809D01*
X148214285Y-122130952D01*
X148261904Y-121940476D01*
X148309523Y-121845238D01*
X148404761Y-121750000D01*
X148547619Y-121702380D01*
X148642857Y-121702380D01*
X148785714Y-121750000D01*
X148833333Y-121797619D01*
X149404761Y-122130952D02*
X149309523Y-122083333D01*
X149261904Y-122035714D01*
X149214285Y-121940476D01*
X149214285Y-121892857D01*
X149261904Y-121797619D01*
X149309523Y-121750000D01*
X149404761Y-121702380D01*
X149595238Y-121702380D01*
X149690476Y-121750000D01*
X149738095Y-121797619D01*
X149785714Y-121892857D01*
X149785714Y-121940476D01*
X149738095Y-122035714D01*
X149690476Y-122083333D01*
X149595238Y-122130952D01*
X149404761Y-122130952D01*
X149309523Y-122178571D01*
X149261904Y-122226190D01*
X149214285Y-122321428D01*
X149214285Y-122511904D01*
X149261904Y-122607142D01*
X149309523Y-122654761D01*
X149404761Y-122702380D01*
X149595238Y-122702380D01*
X149690476Y-122654761D01*
X149738095Y-122607142D01*
X149785714Y-122511904D01*
X149785714Y-122321428D01*
X149738095Y-122226190D01*
X149690476Y-122178571D01*
X149595238Y-122130952D01*
%TO.C,C7*%
X125833333Y-122607142D02*
X125785714Y-122654761D01*
X125642857Y-122702380D01*
X125547619Y-122702380D01*
X125404761Y-122654761D01*
X125309523Y-122559523D01*
X125261904Y-122464285D01*
X125214285Y-122273809D01*
X125214285Y-122130952D01*
X125261904Y-121940476D01*
X125309523Y-121845238D01*
X125404761Y-121750000D01*
X125547619Y-121702380D01*
X125642857Y-121702380D01*
X125785714Y-121750000D01*
X125833333Y-121797619D01*
X126166666Y-121702380D02*
X126833333Y-121702380D01*
X126404761Y-122702380D01*
%TO.C,C6*%
X116083333Y-122607142D02*
X116035714Y-122654761D01*
X115892857Y-122702380D01*
X115797619Y-122702380D01*
X115654761Y-122654761D01*
X115559523Y-122559523D01*
X115511904Y-122464285D01*
X115464285Y-122273809D01*
X115464285Y-122130952D01*
X115511904Y-121940476D01*
X115559523Y-121845238D01*
X115654761Y-121750000D01*
X115797619Y-121702380D01*
X115892857Y-121702380D01*
X116035714Y-121750000D01*
X116083333Y-121797619D01*
X116940476Y-121702380D02*
X116750000Y-121702380D01*
X116654761Y-121750000D01*
X116607142Y-121797619D01*
X116511904Y-121940476D01*
X116464285Y-122130952D01*
X116464285Y-122511904D01*
X116511904Y-122607142D01*
X116559523Y-122654761D01*
X116654761Y-122702380D01*
X116845238Y-122702380D01*
X116940476Y-122654761D01*
X116988095Y-122607142D01*
X117035714Y-122511904D01*
X117035714Y-122273809D01*
X116988095Y-122178571D01*
X116940476Y-122130952D01*
X116845238Y-122083333D01*
X116654761Y-122083333D01*
X116559523Y-122130952D01*
X116511904Y-122178571D01*
X116464285Y-122273809D01*
%TO.C,C5*%
X93583333Y-122607142D02*
X93535714Y-122654761D01*
X93392857Y-122702380D01*
X93297619Y-122702380D01*
X93154761Y-122654761D01*
X93059523Y-122559523D01*
X93011904Y-122464285D01*
X92964285Y-122273809D01*
X92964285Y-122130952D01*
X93011904Y-121940476D01*
X93059523Y-121845238D01*
X93154761Y-121750000D01*
X93297619Y-121702380D01*
X93392857Y-121702380D01*
X93535714Y-121750000D01*
X93583333Y-121797619D01*
X94488095Y-121702380D02*
X94011904Y-121702380D01*
X93964285Y-122178571D01*
X94011904Y-122130952D01*
X94107142Y-122083333D01*
X94345238Y-122083333D01*
X94440476Y-122130952D01*
X94488095Y-122178571D01*
X94535714Y-122273809D01*
X94535714Y-122511904D01*
X94488095Y-122607142D01*
X94440476Y-122654761D01*
X94345238Y-122702380D01*
X94107142Y-122702380D01*
X94011904Y-122654761D01*
X93964285Y-122607142D01*
%TO.C,C4*%
X139833333Y-126357142D02*
X139785714Y-126404761D01*
X139642857Y-126452380D01*
X139547619Y-126452380D01*
X139404761Y-126404761D01*
X139309523Y-126309523D01*
X139261904Y-126214285D01*
X139214285Y-126023809D01*
X139214285Y-125880952D01*
X139261904Y-125690476D01*
X139309523Y-125595238D01*
X139404761Y-125500000D01*
X139547619Y-125452380D01*
X139642857Y-125452380D01*
X139785714Y-125500000D01*
X139833333Y-125547619D01*
X140690476Y-125785714D02*
X140690476Y-126452380D01*
X140452380Y-125404761D02*
X140214285Y-126119047D01*
X140833333Y-126119047D01*
%TO.C,C3*%
X107583333Y-126357142D02*
X107535714Y-126404761D01*
X107392857Y-126452380D01*
X107297619Y-126452380D01*
X107154761Y-126404761D01*
X107059523Y-126309523D01*
X107011904Y-126214285D01*
X106964285Y-126023809D01*
X106964285Y-125880952D01*
X107011904Y-125690476D01*
X107059523Y-125595238D01*
X107154761Y-125500000D01*
X107297619Y-125452380D01*
X107392857Y-125452380D01*
X107535714Y-125500000D01*
X107583333Y-125547619D01*
X107916666Y-125452380D02*
X108535714Y-125452380D01*
X108202380Y-125833333D01*
X108345238Y-125833333D01*
X108440476Y-125880952D01*
X108488095Y-125928571D01*
X108535714Y-126023809D01*
X108535714Y-126261904D01*
X108488095Y-126357142D01*
X108440476Y-126404761D01*
X108345238Y-126452380D01*
X108059523Y-126452380D01*
X107964285Y-126404761D01*
X107916666Y-126357142D01*
%TO.C,C2*%
X134583333Y-117357142D02*
X134535714Y-117404761D01*
X134392857Y-117452380D01*
X134297619Y-117452380D01*
X134154761Y-117404761D01*
X134059523Y-117309523D01*
X134011904Y-117214285D01*
X133964285Y-117023809D01*
X133964285Y-116880952D01*
X134011904Y-116690476D01*
X134059523Y-116595238D01*
X134154761Y-116500000D01*
X134297619Y-116452380D01*
X134392857Y-116452380D01*
X134535714Y-116500000D01*
X134583333Y-116547619D01*
X134964285Y-116547619D02*
X135011904Y-116500000D01*
X135107142Y-116452380D01*
X135345238Y-116452380D01*
X135440476Y-116500000D01*
X135488095Y-116547619D01*
X135535714Y-116642857D01*
X135535714Y-116738095D01*
X135488095Y-116880952D01*
X134916666Y-117452380D01*
X135535714Y-117452380D01*
%TO.C,C1*%
X102083333Y-117357142D02*
X102035714Y-117404761D01*
X101892857Y-117452380D01*
X101797619Y-117452380D01*
X101654761Y-117404761D01*
X101559523Y-117309523D01*
X101511904Y-117214285D01*
X101464285Y-117023809D01*
X101464285Y-116880952D01*
X101511904Y-116690476D01*
X101559523Y-116595238D01*
X101654761Y-116500000D01*
X101797619Y-116452380D01*
X101892857Y-116452380D01*
X102035714Y-116500000D01*
X102083333Y-116547619D01*
X103035714Y-117452380D02*
X102464285Y-117452380D01*
X102750000Y-117452380D02*
X102750000Y-116452380D01*
X102654761Y-116595238D01*
X102559523Y-116690476D01*
X102464285Y-116738095D01*
%TO.C,J2*%
X136962380Y-146173333D02*
X137676666Y-146173333D01*
X137819523Y-146220952D01*
X137914761Y-146316190D01*
X137962380Y-146459047D01*
X137962380Y-146554285D01*
X137057619Y-145744761D02*
X137010000Y-145697142D01*
X136962380Y-145601904D01*
X136962380Y-145363809D01*
X137010000Y-145268571D01*
X137057619Y-145220952D01*
X137152857Y-145173333D01*
X137248095Y-145173333D01*
X137390952Y-145220952D01*
X137962380Y-145792380D01*
X137962380Y-145173333D01*
%TO.C,J1*%
X104462380Y-146173333D02*
X105176666Y-146173333D01*
X105319523Y-146220952D01*
X105414761Y-146316190D01*
X105462380Y-146459047D01*
X105462380Y-146554285D01*
X105462380Y-145173333D02*
X105462380Y-145744761D01*
X105462380Y-145459047D02*
X104462380Y-145459047D01*
X104605238Y-145554285D01*
X104700476Y-145649523D01*
X104748095Y-145744761D01*
%TO.C,J5*%
X137166666Y-111202380D02*
X137166666Y-111916666D01*
X137119047Y-112059523D01*
X137023809Y-112154761D01*
X136880952Y-112202380D01*
X136785714Y-112202380D01*
X138119047Y-111202380D02*
X137642857Y-111202380D01*
X137595238Y-111678571D01*
X137642857Y-111630952D01*
X137738095Y-111583333D01*
X137976190Y-111583333D01*
X138071428Y-111630952D01*
X138119047Y-111678571D01*
X138166666Y-111773809D01*
X138166666Y-112011904D01*
X138119047Y-112107142D01*
X138071428Y-112154761D01*
X137976190Y-112202380D01*
X137738095Y-112202380D01*
X137642857Y-112154761D01*
X137595238Y-112107142D01*
%TO.C,J4*%
X104666666Y-111202380D02*
X104666666Y-111916666D01*
X104619047Y-112059523D01*
X104523809Y-112154761D01*
X104380952Y-112202380D01*
X104285714Y-112202380D01*
X105571428Y-111535714D02*
X105571428Y-112202380D01*
X105333333Y-111154761D02*
X105095238Y-111869047D01*
X105714285Y-111869047D01*
%TO.C,J3*%
X120916666Y-111202380D02*
X120916666Y-111916666D01*
X120869047Y-112059523D01*
X120773809Y-112154761D01*
X120630952Y-112202380D01*
X120535714Y-112202380D01*
X121297619Y-111202380D02*
X121916666Y-111202380D01*
X121583333Y-111583333D01*
X121726190Y-111583333D01*
X121821428Y-111630952D01*
X121869047Y-111678571D01*
X121916666Y-111773809D01*
X121916666Y-112011904D01*
X121869047Y-112107142D01*
X121821428Y-112154761D01*
X121726190Y-112202380D01*
X121440476Y-112202380D01*
X121345238Y-112154761D01*
X121297619Y-112107142D01*
%TD*%
M02*
